<?xml version="1.0" encoding="utf-8"?>
<!-- Generator: Adobe Illustrator 16.0.0, SVG Export Plug-In . SVG Version: 6.00 Build 0)  -->
<!DOCTYPE svg PUBLIC "-//W3C//DTD SVG 1.1//EN" "http://www.w3.org/Graphics/SVG/1.1/DTD/svg11.dtd">
<svg version="1.1" id="Layer_1" xmlns="http://www.w3.org/2000/svg" xmlns:xlink="http://www.w3.org/1999/xlink" x="0px" y="0px"
	 width="228px" height="176px" viewBox="0 0 228 176" enable-background="new 0 0 228 176" xml:space="preserve">
<path fill="#FFFFFF" d="M149.827,48.999c0,0-1.334-7.667,12.666-7.667h9.501c0,0,10.166,0.125,10.166,8.792"/>
<circle cx="169.235" cy="61.028" r="5.009"/>
<path fill="none" stroke="#000000" stroke-width="2" stroke-miterlimit="10" d="M135.628,80.017"/>
<path fill="#FFFFFF" d="M135.628,73.478c-12.604,0-22.857,10.254-22.857,22.857s10.254,22.857,22.857,22.857
	s22.857-10.254,22.857-22.857S148.231,73.478,135.628,73.478z M125.56,110.902c-5.185-3-8.406-8.582-8.407-14.567
	c0-5.326,2.441-10.223,6.698-13.435l0.602,0.799c-4.004,3.021-6.3,7.627-6.3,12.636c0.001,5.63,3.031,10.88,7.907,13.702
	L125.56,110.902z M129.638,110.902c-5.185-3-8.406-8.582-8.407-14.567c0-5.326,2.441-10.223,6.698-13.435l0.602,0.799
	c-4.004,3.021-6.3,7.627-6.3,12.636c0.001,5.63,3.031,10.88,7.907,13.702L129.638,110.902z M124.81,96.335
	c0-5.965,4.854-10.818,10.818-10.818s10.818,4.854,10.818,10.818s-4.854,10.818-10.818,10.818S124.81,102.3,124.81,96.335z
	 M143.534,110.902l-0.5-0.865c4.876-2.822,7.906-8.072,7.907-13.702c0-5.009-2.296-9.615-6.3-12.636l0.602-0.799
	c4.257,3.212,6.698,8.108,6.698,13.435C151.94,102.32,148.719,107.902,143.534,110.902z M147.612,110.902l-0.5-0.865
	c4.876-2.822,7.906-8.072,7.907-13.702c0-5.009-2.296-9.615-6.3-12.636l0.602-0.799c4.257,3.212,6.698,8.108,6.698,13.435
	C156.019,102.32,152.797,107.902,147.612,110.902z"/>
<path fill="#FFFFFF" d="M135.628,63.728c-17.979,0-32.607,14.628-32.607,32.607s14.628,32.607,32.607,32.607
	s32.607-14.628,32.607-32.607S153.607,63.728,135.628,63.728z M135.628,121.192c-13.706,0-24.857-11.151-24.857-24.857
	s11.151-24.857,24.857-24.857s24.857,11.151,24.857,24.857S149.334,121.192,135.628,121.192z"/>
<path fill="#FFFFFF" d="M55.328,102.033l-0.8-23.285l-33.147,7.905L46.895,68.95l-19.73-2.819l18.613-6.685L17.641,43.027
	l30.551,4.861l-8.822-9.171l15.05,3.545l-8.805-25.346l21.89,23.714l4.727-20.74l5.814,20.882l19.348-19.615L84.052,54.506
	l15.688,6.8l-16.324,5.699l10.437,22.836L70.771,72.438L55.328,102.033z M56.442,76.234l0.624,18.145L70.089,69.42l18.662,14.069
	l-8.065-17.648l13.562-4.736l-12.774-5.536l10.378-25.946L77.045,44.636l-4.621-16.595l-3.814,16.736L50.651,25.323l6.852,19.721
	L45.514,42.22l8.256,8.581L27.867,46.68l22.621,13.2l-15.066,5.411l16.797,2.399L31.242,82.245L56.442,76.234z"/>
<path fill="#FFFFFF" d="M178.16,48.999H84.102l-2.203,5.507h2.153l12.446,6.523l-14.334,5.009l8,19.015L70.771,72.438l-14.328,25.23
	V76.234l-6.949,1.657v54.107c0,0-2.334,10,9,10h121.334c0,0,8.402,2.489,8.971-9.668c0.02-0.426,0.029-0.869,0.029-1.332
	c0-13.667,0-74,0-74S190.827,48.999,178.16,48.999z M135.628,130.942c-19.083,0-34.607-15.524-34.607-34.607
	s15.524-34.607,34.607-34.607s34.607,15.524,34.607,34.607S154.711,130.942,135.628,130.942z"/>
</svg>
