<svg version="1.1" id="Layer_1" xmlns="http://www.w3.org/2000/svg" xmlns:xlink="http://www.w3.org/1999/xlink" x="0px" y="0px"
   viewBox="0 0 663.2 663.2" style="enable-background:new 0 0 663.2 663.2;" xml:space="preserve">
<style type="text/css">
  .st0{fill:#FFFFFF;}
  .st1{fill:#FFFFFF;stroke:#000000;stroke-width:2;stroke-miterlimit:10;}
  .st2{fill:none;stroke:#000000;stroke-width:2;stroke-miterlimit:10;}
  .st3{fill:none;stroke:#000000;stroke-width:2;stroke-linecap:round;stroke-miterlimit:10;}
  .st4{fill:none;stroke:#000000;stroke-width:2;stroke-linecap:square;stroke-miterlimit:10;}
  .st5{stroke:#FFFFFF;stroke-linecap:round;stroke-miterlimit:10;}
  .st6{fill:none;stroke:#FFFFFF;stroke-width:2;stroke-linejoin:round;stroke-miterlimit:10;}
  .st7{fill:none;stroke:#000000;stroke-width:2;stroke-linejoin:round;stroke-miterlimit:10;}
  .st8{fill:#FFFFFF;stroke:#000000;stroke-width:2;stroke-linejoin:round;stroke-miterlimit:10;}
  .st9{fill:none;stroke:#000000;stroke-width:2;stroke-linecap:round;stroke-miterlimit:5;}
  .st10{fill:#191919;}
  .st11{fill:none;stroke:#FFFFFF;stroke-width:2;stroke-miterlimit:10;}
  .st12{fill:none;}
</style>
<path class="st0" d="M231.9,566.2c-79.1,35.1-155,3.7-193.7-43.2C-4.5,471.3-11.7,398.6,20,340.7c31.3-57,97.4-96.1,175.4-81.8
  c-0.2-20.8-3.6-41.6,0.1-62.8c31.1,0,61.9,0,93,0c0-20.3,0-40.1,0-60.4c-25.5-2.5-50.8-4.9-76.8-7.4c0.5-5.9,1-11.6,1.5-17.3
  c1.2-12.8,2.7-25.5,3.7-38.3c0.3-3.8,1.1-5.5,5.5-5c18,2,36.1,3.5,54.2,5.3c23.5,2.4,47,4.8,70.9,7.3c0,38.4,0,76.8,0,115.7
  c29,0,57.5,0,86.5,0c3.3,17.3,0.8,34.1,0.8,51.6c105.9,11.7,177.2,72.2,228.1,162.5c-9.6,5.8-18.6,11.3-27.6,16.7
  c-78.4,47.1-156.7,94.1-235,141.2c-1.8,1.1-3.5,3.3-4.2,5.3c-5,14-16.3,22.2-31.2,22.3c-32.7,0.1-65.5,0.1-98.2,0
  c-18.1,0-29.1-8.6-33.8-26.1C232.5,568.5,232.2,567.5,231.9,566.2z M416.7,216.4c-68.7,0-135.6,0-202.8,0c0,2.1-0.1,3.8,0,5.5
  c2.1,31.3,4.1,62.6,6.4,93.8c0.1,1.4,2.1,3.5,3.6,3.8c10,2.1,20.2,3.7,30.3,5.5c39,7.1,78,14.2,117.1,21.3c11.4,2.1,22.8,4,35.2,6.2
  C409.9,306.8,413.2,261.8,416.7,216.4z M231.3,425.3c2.2,18.1,3.9,35.2,6.5,52.2c4.4,28.9,9.4,57.8,14.2,86.6
  c1.4,8.2,5.5,11.6,13.7,11.6c32.6,0.1,65.1,0,97.7,0c8.3,0,12.5-3.3,13.9-11.4c4.2-23.6,8.3-47.2,12.1-70.8c2-12.6,3.3-25.4,5-38.7
  C340.2,445,286.2,435.2,231.3,425.3z M21.6,437.7c3.8,25.2,12.7,47,27.4,66.5C89.3,558,162.2,576.3,223,548c3.9-1.8,4.7-3.9,4-7.9
  c-2.9-18.2-5.5-36.5-8.1-54.8c-1.3-9.1-2.5-18.2-3.9-28.1c-2.1,2.3-3.6,3.9-5.1,5.5c-18.3,18.4-40.3,24.6-65,17.1
  c-25-7.6-40.4-25.1-44.8-51c-1.3-7.6-4.6-13-10.5-17.3c-5.5-4-11.7-4.7-17.3-0.6c-4.4,3.3-8.1,7.7-11.9,11.8
  c-3.1,3.4-5.5,7.5-9,10.5C43,440.6,33,441.5,21.6,437.7z M598,425.7c-20-53-110.4-116.1-168-117.3c-0.5,6-1.1,12.1-1.6,18.7
  c15.7-2.1,29.4,0.9,40.9,11.5c11.5,10.6,16.5,23.8,15.1,39.3c-1.1,12.9-6.9,23.7-17,31.8c-14.4,11.6-30.6,13.3-48,7.3
  c-3.1,24.8-6,49.1-9.1,74.1c23.7-11.4,43.7-7.3,61.3,10.6c10.5-6.3,20.8-12.5,31.5-18.9c-15.8-16.6-19.5-35.3-9.7-55.5
  c8.3-17,23-26.1,41.9-25.7c22.8,0.5,38,12.5,45.2,34.7C586.5,432.6,592.3,429.1,598,425.7z M222.4,339.6c2.1,21,4.2,40.9,6.2,60.9
  c0.3,3.1,1.5,4.5,4.7,4.8c3.9,0.4,7.8,1.3,11.6,2c39,7.1,78.1,14.2,117.1,21.3c11.5,2.1,23.1,4.1,35.1,6.2
  c2.3-21.1,4.6-41.6,6.8-62.3C343.2,361.5,283.2,350.6,222.4,339.6z M163,374.4c-24.3,0-43.8,19.4-43.8,43.6
  c0,24.8,19.2,44.7,43.4,44.8c24.7,0.1,45-19.7,45.1-43.9C207.7,393.8,188.2,374.4,163,374.4z M635.7,403
  c-47.5-75.4-111.2-125.5-202.3-135.3c-0.4,3.5-0.8,6.7-1,9.9c-0.2,3.4-0.3,6.7-0.5,9.8c80.3,15.8,143.6,54.9,183.9,127.6
  C622.6,410.9,629,407,635.7,403z M233.4,110.3c25.2,2.4,50,4.7,75.3,7.2c0,26.3,0,52.3,0,78.4c6.5,0,12.4,0,18.7,0
  c0.1-1.9,0.3-3.6,0.3-5.2c0-28.9-0.1-57.9,0.1-86.8c0-4.9-1.8-5.9-6.1-6.3c-19.4-1.7-38.8-3.8-58.2-5.7c-9.1-0.9-18.3-1.7-27.9-2.7
  C234.8,96.5,234.1,103.2,233.4,110.3z M437.4,400.2c11.8-0.2,20.2-5.6,24.9-16.1c4.4-9.7,3.1-19.2-3.5-27.4c-7.2-9-16.7-11.8-28-9.4
  c-3.3,0.7-4.8,2.2-5,5.8c-0.8,11.2-2,22.4-3.2,33.7c-1,9.2,0.2,11,9.4,12.9C433.8,400.1,435.7,400.1,437.4,400.2z M507,448.9
  c1.9,4.8,3.5,9.8,5.8,14.4c2.3,4.5,6.5,6.2,11.3,4.6c12.5-4.2,23.6-10.8,32.8-20.3c4.5-4.6,4.3-8.4,0.8-13.9
  c-6.2-9.8-18.7-14.4-30-11.1C515.8,426,508.1,436.3,507,448.9z M408.9,539.2c15.1-9,29.6-17.8,44.3-26.6c-7.8-8.5-20.6-10.4-31-4.9
  C410.9,513.7,405.7,525.6,408.9,539.2z M86.1,313.7C86.1,313.7,86.2,313.7,86.1,313.7c0,0.5,0,1-0.1,1.5c-0.7,3.7,0.4,6.8,4.4,7.2
  c3.7,0.4,5.4-2.2,5.8-5.7c0.5-4.7,1-9.5,1.5-14.2c0.3-3.4-1.1-5.9-4.5-6.2c-3.8-0.4-5.4,2.2-5.8,5.7
  C86.9,305.9,86.5,309.8,86.1,313.7z M72.4,363c1.7-1.6,4.1-2.7,4.4-4.3c0.4-1.7-0.6-4.9-1.9-5.6c-5.2-2.8-10.7-5.2-16.3-7.1
  c-1.5-0.5-4.6,1-5.4,2.4c-0.8,1.4-0.4,5.1,0.7,5.7C59.6,357.3,65.7,359.9,72.4,363z M52.5,382.5c-6.5,4.2-12.7,8-18.5,12.3
  c-0.7,0.5-0.2,4.2,0.8,5.4c1,1.2,4,2.1,5.3,1.4c5.3-2.6,10.5-5.7,15.4-9.1c1.3-0.9,2-3.7,1.6-5.3C56.7,385.6,54.5,384.5,52.5,382.5z
   M152.1,281.6c2,6.8,3.3,12.6,5.6,18.1c0.6,1.5,4.1,2.6,6.2,2.4c1.3-0.1,3.5-3.3,3.2-4.7c-1.2-6-2.9-11.9-5.1-17.5
  c-0.5-1.3-3.8-2.5-5.4-2.1C154.7,278.1,153.3,280.4,152.1,281.6z M105.1,372c-3.9,0.4-8,0.3-11.6,1.5c-2,0.6-4.5,3.2-4.8,5.2
  c-0.5,3.4,2.4,5.1,5.7,4.9c3.9-0.2,7.8-0.6,11.7-1.1c6.7-0.7,9.4-2.6,8.5-6.4C113.3,370.5,109,371.7,105.1,372z M178,327.9
  c-1.5,1.6-3.8,2.9-4,4.5c-0.3,1.7,0.8,4.9,2.2,5.5c5.4,2.5,11.1,4.5,16.8,6c1.5,0.4,4.7-1.3,5.2-2.6c0.6-1.7-0.1-5.5-1.3-6.1
  C191,332.4,184.8,330.5,178,327.9z M123.3,338.5c6.6-3.6,12.7-6.7,18.6-10.4c0.9-0.6,1-4.1,0.1-5.4c-0.9-1.3-3.8-2.7-5.1-2.1
  c-5.7,2.3-11.2,4.9-16.5,8c-1.3,0.8-2.1,3.9-1.7,5.7C119.1,335.8,121.4,336.8,123.3,338.5z"/>
<rect x="0" class="st12" width="663.2" height="663.2"/>
</svg>
