<?xml version="1.0" encoding="utf-8"?>
<!-- Generator: Adobe Illustrator 16.0.0, SVG Export Plug-In . SVG Version: 6.00 Build 0)  -->
<!DOCTYPE svg PUBLIC "-//W3C//DTD SVG 1.1//EN" "http://www.w3.org/Graphics/SVG/1.1/DTD/svg11.dtd">
<svg version="1.1" id="Layer_1" xmlns="http://www.w3.org/2000/svg" xmlns:xlink="http://www.w3.org/1999/xlink" x="0px" y="0px"
	 width="185.366px" height="158.5px" viewBox="0 0 185.366 158.5" enable-background="new 0 0 185.366 158.5" xml:space="preserve">
<path d="M81.425,135.208c1.514-2.229,2.725-4.537,3.637-6.926c0.916-2.389,1.572-4.693,1.971-6.922
	c0.398-2.225,0.658-4.312,0.777-6.26c0.117-1.953,0.178-3.643,0.178-5.072h0.955v37.107H53.024H27.009h-11.93v-0.951h11.93V64.565
	h-11.93v-0.961h11.93h38.066v0.961H53.024v81.619h3.34c2.227,0,4.496-0.141,6.803-0.42s4.553-0.814,6.744-1.613
	c2.186-0.791,4.254-1.902,6.203-3.338C78.062,139.376,79.833,137.513,81.425,135.208z"/>
<path d="M169.606,147.136c-4.377,0-8.094-0.656-11.158-1.969c-3.062-1.311-5.729-3.16-7.996-5.549
	c-2.266-2.389-4.234-5.266-5.908-8.648c-1.668-3.383-3.338-7.141-5.012-11.279h-26.367l-6.207,21.838
	c-0.08,0.238-0.119,0.498-0.119,0.773c0,0.283,0,0.535,0,0.779c0,0.875,0.242,1.609,0.719,2.205
	c0.475,0.596,1.266,0.898,2.387,0.898h6.324v0.951H91.329v-0.951h6.799c1.51,0,3.006-0.496,4.475-1.494
	c1.473-0.994,2.447-2.328,2.922-3.998l18.262-60.262c-0.875-1.506-1.895-3.199-3.045-5.068c-1.154-1.869-2.404-3.6-3.758-5.189
	c-1.357-1.592-2.746-2.926-4.176-4c-1.434-1.072-2.83-1.607-4.178-1.607v-0.961h21.596c2.945,0,5.553,0.539,7.818,1.613
	c2.27,1.074,4.254,2.43,5.965,4.055c1.711,1.637,3.164,3.445,4.357,5.432c1.191,1.992,2.146,3.861,2.865,5.607
	c1.191,2.867,2.482,6.008,3.877,9.43c1.389,3.42,2.861,6.979,4.412,10.678c1.555,3.701,3.125,7.424,4.715,11.16
	c1.592,3.738,3.105,7.32,4.533,10.736c3.42,8.115,6.92,16.391,10.502,24.82H169.606z M113.521,118.733h25.537L124.499,82.46
	L113.521,118.733z"/>
<path d="M37.294,24.954V12.978h3.289v29.512h-3.289V28.007H22.187v14.482h-3.287V12.978h3.287v11.977H37.294z"/>
<path d="M56.862,12.978h15.303v3.053H60.149v8.768h11.664v3.053H60.149v11.586h12.016v3.053H56.862V12.978z"/>
<path d="M91.226,39.437h8.141v3.053H87.938V12.978h3.287V39.437z"/>
<path d="M116.077,39.437h8.143v3.053h-11.43V12.978h3.287V39.437z"/>
<path d="M166.919,27.772c0,8.494-6.967,15.225-15.381,15.225c-8.416,0-15.383-6.73-15.383-15.225
	c0-8.453,6.967-15.303,15.383-15.303C159.952,12.47,166.919,19.319,166.919,27.772z M139.444,27.733
	c0,6.654,5.4,12.211,12.094,12.211c6.691,0,12.094-5.557,12.094-12.211c0-6.693-5.324-12.211-12.094-12.211
	C144.767,15.522,139.444,21.04,139.444,27.733z"/>
</svg>
