<?xml version="1.0" encoding="utf-8"?>
<!-- Generator: Adobe Illustrator 16.0.0, SVG Export Plug-In . SVG Version: 6.00 Build 0)  -->
<!DOCTYPE svg PUBLIC "-//W3C//DTD SVG 1.1//EN" "http://www.w3.org/Graphics/SVG/1.1/DTD/svg11.dtd">
<svg version="1.1" id="Layer_1" xmlns="http://www.w3.org/2000/svg" xmlns:xlink="http://www.w3.org/1999/xlink" x="0px" y="0px"
	 width="234.366px" height="200.398px" viewBox="0 0 234.366 200.398" enable-background="new 0 0 234.366 200.398"
	 xml:space="preserve">
<g>
	<path d="M105.7,143.527c1.243-1.829,2.236-3.725,2.985-5.686c0.752-1.961,1.291-3.854,1.617-5.683
		c0.328-1.826,0.541-3.54,0.639-5.139c0.096-1.604,0.146-2.99,0.146-4.164h0.783v30.463H82.385H61.027h-9.793v-0.781h9.793V85.534
		h-9.793v-0.789h9.793h31.25v0.789h-9.893v67.004h2.742c1.828,0,3.691-0.115,5.584-0.345c1.895-0.229,3.738-0.668,5.537-1.324
		c1.794-0.649,3.492-1.562,5.092-2.74C102.939,146.949,104.393,145.42,105.7,143.527z"/>
	<path d="M178.092,153.319c-3.594,0-6.645-0.539-9.16-1.616c-2.514-1.076-4.703-2.595-6.564-4.556
		c-1.859-1.961-3.477-4.322-4.85-7.1c-1.37-2.777-2.74-5.862-4.115-9.26h-21.646l-5.096,17.928
		c-0.065,0.196-0.098,0.409-0.098,0.635c0,0.232,0,0.439,0,0.64c0,0.719,0.198,1.321,0.59,1.811c0.39,0.489,1.039,0.737,1.96,0.737
		h5.191v0.781h-20.474v-0.781h5.581c1.24,0,2.468-0.407,3.674-1.227c1.209-0.815,2.009-1.911,2.398-3.282l14.992-49.471
		c-0.719-1.236-1.556-2.627-2.5-4.161c-0.947-1.534-1.975-2.955-3.085-4.26c-1.114-1.307-2.255-2.402-3.429-3.284
		c-1.176-0.88-2.322-1.319-3.43-1.319v-0.789h17.729c2.417,0,4.558,0.442,6.418,1.324c1.863,0.882,3.492,1.995,4.897,3.329
		c1.404,1.344,2.598,2.828,3.576,4.459c0.979,1.636,1.763,3.17,2.353,4.604c0.978,2.354,2.038,4.932,3.183,7.741
		c1.141,2.808,2.35,5.729,3.623,8.766c1.275,3.038,2.564,6.095,3.87,9.161c1.307,3.069,2.55,6.01,3.722,8.814
		c2.807,6.662,5.681,13.456,8.621,20.376H178.092z M132.049,130.003h20.965l-11.952-29.778L132.049,130.003z"/>
	<path d="M69.471,53.016v-9.832h2.701v24.228h-2.701v-11.89H57.068v11.89h-2.697V43.184h2.697v9.832H69.471z"/>
	<path d="M85.535,43.184h12.562v2.506h-9.863v7.198h9.575v2.506h-9.575v9.511h9.863v2.507H85.535V43.184z"/>
	<path d="M113.746,64.904h6.683v2.507h-9.382V43.184h2.699V64.904z"/>
	<path d="M134.147,64.904h6.685v2.507h-9.383V43.184h2.698V64.904z"/>
	<path d="M175.885,55.329c0,6.974-5.719,12.499-12.626,12.499c-6.909,0-12.628-5.525-12.628-12.499
		c0-6.939,5.719-12.562,12.628-12.562C170.166,42.767,175.885,48.39,175.885,55.329z M153.33,55.297
		c0,5.463,4.434,10.024,9.929,10.024c5.493,0,9.929-4.562,9.929-10.024c0-5.494-4.371-10.024-9.929-10.024
		C157.699,45.272,153.33,49.803,153.33,55.297z"/>
</g>
<rect x="29.985" y="9.398" fill="none" stroke="#000000" stroke-miterlimit="10" width="177.289" height="177.289"/>
</svg>
