<svg id="Layer_2" data-name="Layer 2" xmlns="http://www.w3.org/2000/svg" viewBox="0 0 3917.23 2203.44"><defs><style>.cls-1{fill:#c75f28;}.cls-2,.cls-3,.cls-4,.cls-5,.cls-6,.cls-7,.cls-8,.cls-9{fill:none;stroke:#e5aa15;}.cls-2,.cls-3,.cls-4,.cls-5,.cls-6,.cls-7,.cls-8{stroke-linecap:round;}.cls-2,.cls-3,.cls-5,.cls-6,.cls-7,.cls-8,.cls-9{stroke-miterlimit:10;}.cls-3,.cls-4{stroke-width:6px;}.cls-4{stroke-linejoin:round;}.cls-5{stroke-width:3px;}.cls-6{stroke-width:5px;}.cls-7{stroke-width:4px;}.cls-8{stroke-width:2px;}</style></defs><title>MapOrange</title><rect class="cls-1" width="3917.23" height="2203.44"/><line class="cls-2" x1="1593.05" y1="492.61" x2="1593.05" y2="2106.61"/><path class="cls-2" d="M1540,2131.61V1015.87s-5-15.56.27-26.58c0,0,2.73-4.9,2.73-26.54V922.7s-3.41-3.22-5.18-17.92-0.14-40-.14-40,2.14-1.63,2-8.57-0.52-321.58-.52-321.58"/><polyline class="cls-2" points="1486.05 2120.61 1486.05 517.66 1658.95 478.13 1679.24 475.27 1709.69 457.71 1716.05 449.95 1716.05 425.78 1731.46 402.45 1793.03 363.11 1830.55 363.11"/><path class="cls-2" d="M1434,2101.61V1389.85s13-11.88-3-37.53v-176l3-5.89V964.11s9-26.07,21-45V856.7s2.77-2.6,2.77-12.78-2.27-58.71-2.27-58.71,4.5,1.94,5.5-5.82V534.61"/><path class="cls-2" d="M1313.55,535.11h53.59s9.45-8.72,27.82,0l226.16-.65"/><polyline class="cls-2" points="1620.05 486.61 1620.05 597.89 1626.05 607.55 1626.05 640.59 1623.08 645.11 1622.11 855.79"/><path class="cls-2" d="M1406,534.61v162.5h-8v107h-21V834.7s-5.82,6.21-4,10.8,3.52,7.81,2.15,10.35"/><path class="cls-2" d="M963.39,263l15.11,43.84s-2.29,27.88,30.24,30.17,32.07-3.7,44.44,11.42,10.08,20.6,10.08,20.6-10.08,7.78-3.21,15.11,21.53,9.62,23.37,15.11-0.46,5.5,5,8.7c0,0,3.08,1.31,1.37,6.41s7.07,4.84,8.77,2.49,8.64,1.83,5.5,5.24-12.7,3.53-14.79,2.09-9.82,4.84-8.64,7.72c0,0-2.09,10.08,2.36,14.4s4.19,10.73,4.19,10.73a11.27,11.27,0,0,0,4.71,8.12c4.45,3,1.83,14.14,1.83,14.14s-1.44,6.41,1.83,7.46-2.36,7.46.65,10.21,5.93-1.44,8.66,2.49,2.6,6.15,6.52,5.5,4.84,0.13,5.5,3.4,9.42,6.15,11,6.15,2.88,4.32,2,9.42,4.45,4.19,4.06,7.59-2.45,6.68,0,8.25,8.36,2.88,8.49,9.29,0,25.79,0,25.79,0.92,5.37-.92,7.2,0.24,3.4-.15,4.84,0.67,3.27-1.33,6.28V785.53l8.69,13.3s0.78,44.77-8.91,50.39l-5.76,5.37,0.26,8.51L1122.42,878l-18.59,46.16-22.65,90.93h-7.64"/><path class="cls-3" d="M491.29,251.71s9.9,15.62,6.29,41.4-10.83,73.73-33.51,99.51-33.51,53.1-32.48,69.09-3.61,33,19.59,62.9c0,0,19.08,13.41,6.7,47.95,0,0,.52,11.34,3.09,19.59s10.31,16.5,13.41,58.78,5.67,57.23,17,72.18S593.48,867.46,593.48,867.46L627,914.9a125.4,125.4,0,0,1,4.64,19.59c2.06,12.37,55.68,83,55.68,83s15,28.36,17.53,36.61,32.48,39.18,32.48,39.18l233,353.17s12.89,23.2,80.95,57.23,60.84,50.53,65.48,75.79-3.61,52.07,2.58,82.49,8.76,29.39,7.22,72.18S1127,1862,1127,1862s-2.5,28.87-5.59,38.67-11.86,50.53-10.31,72.7,1,72.18,1,72.18-2.06,19.59,25.78,40.73,36.61,41.25,36.61,41.25"/><path class="cls-3" d="M906.55,1814.61h121.54s15.46-3.15,40.68,4.92,96.85,1.94,109.46-11.68,63.56-14.16,82.72,4.5,22.19,33.78,63.05,45.38,89.78-2,89.78-2,22.19-4,41.36-.51,81.21-9.59,103.91-19.67,157.37,3.53,172.51,7.06,105.42-7.06,111-9.58,42.37-3,58.51.5,50.95,7.91,87.77-3.36,46.41,0.84,66.58,11.93,150.31,80.71,150.31,80.71,99.37,51.45,143.25,42.37,124.59-18.66,185.12-17.15,196.77-3.38,233.59-7.92"/><path class="cls-3" d="M1056,179.57s76.38,7.5,106.09,0,33.62,5.76,62.2,3.33,38.67-19.24,65-9.15,71.17,18.58,104.79,3.13,42.83-6.15,52-6.32,32.1,0.39,56.2-9.7,61.08,0,61.08,0,23.54,9.53,43.71,6.72,34.74,12.89,34.74,12.89,6.16,8.41,60.52-7.29,93.59-20.17,153.55-12.89,81.82,35.87,81.82,35.87,47.63,49.31,103.11,44.83,77.9,3.36,105.92-20.17,67.81,20.46,67.81,20.46,45.39,44.54,102.55,19.33,58.28-20.73,88-39.23,39.79-36.43,55.48-31.94,100.87,7.85,136.74,3.92,172.6-6.16,213-4.48c0,0,8.41,5.6,21.86,15.13s17.37,24.66,59.4,19.61,56-11.77,83.5-8.41,159.71-3.48,176.53-2.86S3203,225.87,3229.07,246s73.75,65.57,93.93,65,279.08,0,279.08,0,29.14,5,89.1,29.14,49.88,27.46,86.3,14,61.08-30.82,61.08-30.82"/><path class="cls-3" d="M1039.17,99.88s23.69,102.64,73.69,127.64c0,0,9.21,11.89,18.42,35.55s64.48,60.51,79,65.77S1240.5,338,1257.61,363s49.82,47.41,55.18,63.2,2.72,41.8,15.88,60.38S1365,531.25,1380,533.19s36.61-8.27,51.2,16.73,25,48.69,35.57,56.58,36.92,27.63,46.13,56.58,129,75,169.75,88.17,51.32,22.37,64.48,28.95,80.27,26.32,100,55.27,18.42,40.79,52.64,60.53,67.11,25,94.74,26.32,27.63,54.23,26.32,92.91,11.84,74.21,47.37,80.79,90.8,1.32,138.17-19.74a36.91,36.91,0,0,1,32.9-6.58c19.74,5.26,54-6.58,68.43-14.47s47.37-23.69,89.48-17.11,60.53,14.47,107.9,31.58c0,0,44.74,10.53,96.06-3.95,0,0,72.37-7.9,102.64-7.9s65.8-13.16,65.8-13.16,15.79-7.9,32.9-3.95,96.06-22.37,105.27-28.95,118.43-7.9,185.54,10.53,83.4,15.79,135.79,42.11,35.28,35.59,91.87,34.24,93.43,22.34,106.59,44.71,51.32,73.69,67.11,81.59,354,129,354,129"/><path class="cls-3" d="M1580.36,118.24c6.62,38,39.2,49.85,61.45,62.24s25.39,35.34,25.39,35.34S1703.58,382,1706.06,392s10.75,12.4,20.67,53.75,28.12,47.35,28.12,47.35l62,38.18L1863.19,578l62.08,76.08,56.18,45.48,24,6.62s5,4.13,20.67,20.69,8.27,27.28,8.27,34.72,0.83,14.89,5.79,19.85,13.23,28.94,13.23,33.08-2.48,25.64,5,50.45,6.62,33.08,8.27,61.2-9.1,52.1-17.37,65.33-16.54,28.94-16.54,28.94-2.48,23.16-10.75,41.35-26.46,32.25-26.46,32.25l-31.43,8.27-47.14,24.3c-58.72,16.86-57.89-13.55-95.1-26.78s-74.43-43-74.43-43-18.19-28.94-50.45-29.77-65.33,10.75-65.33,10.75-184.42-5.79-213.36,4.59-153.82,10.29-176.15,13.6-83.52,5-83.52,5-24.81-6.62-65.33-14.89-54.11,0-54.11,0-57.53,36.39-67.46,44.66-64.5,11.58-89.31-1.65a125,125,0,0,0-48-14.28s-12.4,1.87-60.37.22-77.74,6.62-77.74,6.62-37.21,16.54-69.47,25.64-36.39-.83-88.49,14.06-91,46.31-93.45,54.58-48.79,38-57.06,42.51,0.83-7-24.81,4.62-30.6-12.4-30.6-12.4l-70.32-69.13-95.67-64.23s-7.53-2.66-15.5-4.87-39.42-17.72-39.42-17.72l-9.74-11.2L85,1034.35l-8.42-8L50,1018.85"/><path class="cls-3" d="M1789.89,652.26s-3-8.52,7.3-16.43,53.55-62.07,52.94-90.67-1.83-45.92,20.08-58.56,91.89-55.84,91.89-55.84,28.6-17.65,18.26-56-3.4-66.94,2.26-93.71,20.87-97.36,20.87-97.36,4.87-17.65-3.65-39.55-6.09-38.94-.61-38.94"/><path class="cls-3" d="M2473,371.26s0-7.85,8.83,27.47S2452.44,433,2452.44,433s-37.28,1-59.85.05-44.15,11.77-44.15,11.77-15.7,18.64-28.45,21.58-25.51,11.77-25.51,11.77-4.91,18.64-29.43,14.87-19.62,18.48-19.62,18.48l-17.66,22.93c-31.39,32.74-40.22,15.34-73.58,26.13s-39.24,51-39.24,51-2.94,59.85-30.41,59.57-61.81,23.94-61.81,23.94-79.47,70.52-80.45,84.26-21.58,32.38-36.3,41.2-39.24,16.68-39.24,16.68l-53,51s-11.41,37.28-68.31,73.58-48.91,94.12-48.91,94.12v54.64l-38.32,87.68-5.17,101.61,8.74,54,1.06,76.89-4.31,31.5v181.39l9,47.66v102.44s-7.83,16.65-9.6,55.9-29.56,76.5-33.49,98.08-5.92,91.19,0,106.89,2.92,8.73,3.9,33.26,6.83,75.35,6.83,75.35"/><path class="cls-3" d="M2222.42,2128s0-103,30.23-126.54,34.71-119.4,34.71-119.4,3.36-36.25-5.6-59.77,29.11-47,29.11-47,25.76-7.84,24.64-85.11-3.36-100.78,5.6-119.82,16.8-108.62,7.84-136.62-39.19-54.87-44.79-67.19-17.92-14.56,0-57.11,14.56-114.22,14.56-114.22-11.2-59.35,1.12-95.18,16.8-47,14.56-89.58S2352.91,950,2352.91,950s28.52-13.44,15.08-60.47,12.32-78.39,12.32-78.39S2396,773,2392.63,761.84"/><path class="cls-3" d="M2735.9,2115.63s-13.89-164.41-3.7-233.57,62-165.45,62-165.45,65.73-121.28,66.66-157.38,47.22-104.61,61.1-119.43,34.25-98.13,39.81-127.76,43.51-55.55,43.51-55.55,17.59-23.14,22.22-43.51,46.29-59.25,88-84.25,80.54-50.92,108.32-89.8c0,0,5.55-13.89,42.59-26.85S3308,988,3326.55,948.21s48.14-90.73,44.44-119.43,2.08-52.77,8.45-71.29,7.29-42.59,6.37-60.18,25-51.84,39.81-63,39.81-36.11,44.44-84.25S3518.19,452,3518.19,452s75.91-68.51,91.65-97.21,34.25-44.44,32.4-71.29"/><path class="cls-3" d="M2422.09,306.39s13.18-59.92-7.19-128.23,0-78.28,0-78.28"/><path class="cls-3" d="M2003.68,925.13s6.17-26.73,52.09-25.23,44.42,23.46,82.36,8,69.38-8,69.38-8,34.44,8.55,68.38-17.41S2349.77,851,2349.77,851s23.46,11.48,63.89-18,70.88-47.92,126.78-47.92,492.15-7.49,492.15-7.49,14-5.49,51.41,16.47,123.79,18,123.79,18,19.47-7.49,37.44.5,34.44,28,82.86,23.46,402.8-58.9,402.8-58.9l80.36,2"/><path class="cls-3" d="M1995.5,1094.07s56.64-3,82.83,8.64,97.13,50.57,97.13,50.57,17.87,10.55,47,8.73,60.36,7.28,110.2,35.65,59.66,30.19,86.94,60.75,50.2,59.3,50.2,59.3,9.46,21.16,22.92,36.23,37.11,44.9,37.11,44.9l25.83,23.65,38.2,44,23.65,35.29,12.73,50.57s7.64,23.65,26.92,39.29,66.94,55.66,66.94,55.66,12,8.37,26.19,35.29l135.69,238.27a134.94,134.94,0,0,0,30.92,29.47c18.92,12.73,29.47,20.74,49.47,47.65s133.51,105.81,157.88,117.66"/><polyline class="cls-4" points="310.78 1225.7 505.33 1040.18 605.58 980.78 713.74 945.13 1048.12 671.16 1092.77 643.55 1639.47 639.11 1651.38 630.61 1663.47 630.61 1670.35 639.86 1681.73 646.13 1701.15 692.62 1709.86 704.32 1718.9 709.67 1725.93 721.72 1743.68 731.42 1752.72 741.8 1781.52 736.11 1834.63 762.9 1843.55 779.64 1843.55 799.76 1851.93 831.2 1868.63 849.29 1874.72 834.53"/><path class="cls-4" d="M411.86,1203.67l19.78,22.17,67.27,62,124.73,72.92,9.85,7.38,58.15,80.7,35.95,33.48,40.88,72.25,19,10.92,27.84,41.43,41.24,46.72h79.62s17.3-2.27,17.65,11.47,1.49,227,1.49,227l2.2,16.62v201.87"/><polyline class="cls-4" points="609.29 1352.36 746.4 1273 1077.77 1043.53"/><path class="cls-3" d="M997.42,1391.1l-3.92,6.1-19.18,6.54-76.71-7.41s-26.59,1.74-42.71,16.13-37,31.38-37,31.38-13.08,14.38-49.25,3.05-96.76-25.72-96.76-25.72"/><path class="cls-5" d="M676.11,1629.85l40.17-22.28,99-.75,141.63-1.7h130.7s7.3,3.92,15.25-7.7c0,0-.88-4.54,15.31-4.84l97.51-1.81"/><polyline class="cls-5" points="2871.71 1919.91 2873.19 1786.84 2802.84 1785.28 2746.57 1750.4 2633.43 1680.07 2605.91 1668.76 2494.31 1599.65 2433.47 1554.71 2347.43 1544.55 2022.24 1502.12 1979.13 1495.7 1316.58 1497.53 1246.26 1537.28 1226.39 1559.6 1211.1 1566.94 1150.26 1561.13 1083.41 1592.62 1074.05 1599.35 1074.05 1605.61"/><path class="cls-5" d="M2503,2127.61V1979.95s1.69-13.52,8.34-23.37,102.09-167.93,102.09-167.93,3.89-3.45,3.89-7.88a19.32,19.32,0,0,1,3.92-11.08c2-2.71,16.24-28.07,16.24-28.07l102.67-241.3,69.19-118.68,33.2-28.81,16.46-31.76V1298l17.07-56.44,13.42-53.92,7.57-15,33.7-22.41,39.63-77.81L2980,1048l-0.5-177.78-6.16-23.64-42.84-46.54-3.2-10.34-4.43-320.09,5.39-28.07-3.23-84v-153"/><polyline class="cls-3" points="2963.51 216.44 2941.39 233.39 2471.41 236.34 2473.05 371.26"/><path class="cls-5" d="M3795.55,327.11h-29.22s-22.43,1.21-43.79-20.64-22.82-24.36-45.64-25.33-93.21,0-93.21,0l-117.49,2.11a69.28,69.28,0,0,1-31.56-7.11H3391l-183.12,3h-64l-35.59-62.35"/><polyline class="cls-5" points="2411.94 1159.75 2758.56 1247.87 2913.73 1326.07 3011.23 1409.28 3059.63 1451.24 3115.13 1543 3289.25 1660.93 3487.2 1751.11 3572.21 1751.11 3627.34 1758.11 3810.55 1758.11"/><path class="cls-6" d="M3407,2120.28s29.45-22.85,40.8-40.3,17.79-57.69,42.24-78.64,78-82.13,78-82.13v-164.6"/><polyline class="cls-6" points="2265.89 1816.27 2355.41 1826.59 2386.27 1833.74 2524.35 1920.11 3867.55 1920.11"/><polyline class="cls-7" points="747.27 1517.06 878.44 1446.59 760.29 1333.36 728.28 1283.49"/><path class="cls-7" d="M1662.37,1388.77l-449.68,2.35a189.46,189.46,0,0,0-46.82,9.17c-24,8.16-91.81-5.77-91.81-5.77a115.94,115.94,0,0,0-34.88-3.15c-18.58,1.33-71.92.25-71.92,0.25H950.44l-72,55.21"/><path class="cls-7" d="M1105.27,1563.79s9.76-7.42,9.37-37.5S1112.3,1424,1112.3,1424s0-31.25,8.2-43,2.34-47.65,0-51.17-24.22-46.33-24.22-46.33l1.56-57.79-5.11-17.35s-4.33-10.88,0-18.72,11-20.73,9-36.74,6-71.09,6-71.09l14.3-38.26"/><polyline class="cls-7" points="1062.7 1050.55 1092.74 1073.2 1106.85 1088.49"/><path class="cls-7" d="M1077.19,657.57l2.35,301.33a150.13,150.13,0,0,0-5.09,19.57c-2,10.57,2.54,16,2.54,16s-6.07,23.09-6.07,25.44,1.57,30.6,1.57,30.6"/><path class="cls-5" d="M2549.78,524.16l63.57-48.77L2650,446.13l155-64.9,49.4-19.18,70.18-11.8L3043,340.52s36.68,6.74,59.14,0S3150.07,288,3150.07,288s9.73-21.85,21.71-21.85H3184v-44.5"/><polyline class="cls-2" points="1142.81 558.87 1147.4 563.11 1169.14 563.11 1177.75 560.15 1620.12 560.79"/><path class="cls-2" d="M51.46,958.13l20.67-6.39s8.81-1.32,14.45,1.27,15.57-2.77,15.57-2.77l24.49,1.44,10.83-8s7.06-4.46,11.3,2.83,5.41,8.71,9.65,10.35,48.92,46.33,48.92,46.33,6.35,7.06,10.11,1.88S220.52,987,220.52,987s-0.47-2.35,5.17-6.11,12.94-8.94,12.94-8.94,4-3.06,4.7-6.35A35,35,0,0,1,247.8,955c1.88-2.82,3.76-4,4.23-9.17s0.71-11.52,4.7-11.52,7.76-.24,10.11,6.82,0.24,13.64-1.65,16.23-5.41,5.64-3.29,8.47,3.76,5.17,8.23,3.76,15.29-22.11,15.29-22.11,9.17-18.35,17.64-22.11,8.47-2.82,17.87-4.47,6.35-7.29,6.35-7.29-0.94-1.18,7.29-7.29,11.05-6.12,12.23-12,2.59-21.87,2.59-21.87-0.47-7.06,6.12-6.12,8.94,1.41,8.94,6.82,0.94,7.06,4.23,9.64,3.06,2.35,6.12,8.47,16,4,16,4a63.12,63.12,0,0,0,15.29-4.94A23.36,23.36,0,0,1,420,888.19s10.11-.47,16.46-2.35,20.23-7.29,20.23-7.29l49.16-46.33-1.41-18.35s0.71-14.35,6.59-23.52,25.64-21.64,25.64-21.64,5.41-6.82,12,0,15.29,2.59,15.29,2.59l7.06-7.06,15.52-1.41,15.76-17.4s1.88-1.65,6.12,0,17.17,7.53,22.34,16,3.76,9.88,13.41,8.7,16.46-1.41,16.46-8.7-1.88-15.52,7.76-18.82a85.19,85.19,0,0,1,20.7-3.76l21.17-19.76s6.82-.47,8.7-7.29,6.13-14.33,16.35-8.26a23.3,23.3,0,0,1,11.18,16.61s0.32,8.94,7,7.34a15.51,15.51,0,0,0,10.22-8c1-1.6,2.55-6.39,9.26-4.79s17.88,2.24,20.12,7.34S800.39,739,800.39,739s1.92,9.58,9.26,5.43a166.68,166.68,0,0,1,16.93-8l20.12-14.69,13.09-10.86,29.06-31.62s3.83-7.66,16.61-7,25.23,0.79,45-8.48,29.38-19.65,29.38-19.65H1032s10.16-5.9,17.82-9.42,20.23-13.8,21.13-15.08,5.37-7.7,11.44-7.7,12.45,0.94,19.48-3.85,4.79-6.4,13.09-8.63a18.62,18.62,0,0,0,11.5-8.7s-0.64-2.63,4.79-2.63h488.32"/><path class="cls-2" d="M1382,2101.61V1590.43s-27-9.16-27-33.34V1301.86s-0.53-9.16-9.73-21.14c0,0-16.35-16.69-16.92-31.65s0-177.87,0-177.87l98.26-215.4"/><path class="cls-2" d="M314.51,1188.5L574,935.45s2.53-6,2.81-9.92,2.82-12.44,12.42-15,19.48-7.07,33.6-16.1S725.56,858,725.56,858s4.23-.85,8.19-13.84,24-26,24-26,6.49-9.32,25.41-7.62,47.72,7.62,47.72,7.62l201.31-.28,73.41,19.2,90.91,13.72,271.89,5.26h169.2l29.28,15.78s8.47-.86,21.74,11.28,22.59,12.13,22.59,12.13l74.54,42.91L1810.86,958"/><line class="cls-2" x1="1622.54" y1="1870.49" x2="1620.7" y2="1231.33"/><path class="cls-2" d="M952.94,1390.18l10.11-8.3-2-61.61a38.11,38.11,0,0,1,3.09-20.36c4.8-10.45,35-83,35-83s4.51-9,5.08-17.23,6.77-17.79,9.32-20.9,5.65-16.1,30.49-20.33,29.93-8.19,29.93-8.19-2.26-2.54,15.53-1.13,33.32,3.19,56.75,3.47,173.92-.48,173.92-0.48h8.15l82.2,24.25,240.27-.49,12.42,4.27"/><path class="cls-2" d="M1228.4,1388.77a48.43,48.43,0,0,1,21.18-24.79c16.09-9,25.13-14.68,33.32-15.53s23.26-3.67,25.18-8.47,4.18-11.29,8.7-13.27,12.71-3.79,13.83-8.67,2.54-25.21,12.14-30.57,11,0,12.71-4.8,11-16.94,16.66-22.59,31.06-28.52,31.06-28.52"/><polyline class="cls-2" points="1808.55 1231.11 1328.31 1231.11 1225.95 1152.59"/><line class="cls-2" x1="1332.55" y1="1310.11" x2="1539.55" y2="1310.11"/><path class="cls-2" d="M1355.55,1283.11h622.38s22.12-2.77,22.12,18.71v278.27l39.93,75.67,53.08,213.52,12.32,237.89"/><polyline class="cls-2" points="2115.59 2107.15 2106.91 1991.51 2167.21 1810.62"/><polyline class="cls-2" points="1137.55 1710.11 1914.05 1710.11 1914.05 1994.18 1921.15 2008.03 1925.68 2115.62"/><polyline class="cls-2" points="1843.56 2107.36 1825.11 2019.7 1819.82 2003.96 1823.57 1581.44 1834.73 1569.86 1834.08 1203.94 1866.05 1161.4 1866.05 1155.63 1881.86 1135.38"/><line class="cls-2" x1="1755.05" y1="2097.61" x2="1755.05" y2="1198.61"/><polyline class="cls-2" points="1701.08 1293.13 1839.69 1041.44 1867.83 1011.74 1877.73 999.44 1890.24 973.18 1899.62 943.48 1921.5 910.65"/><polyline class="cls-2" points="355.24 1225.7 394.79 1269.43 440.81 1323.73 498.11 1408.27 532.86 1460.87 634.3 1388.77 864.43 1235.44"/><path class="cls-2" d="M473.3,1371.66l6-3.53s-0.58-4.09,12.28,0,47.67,13.45,47.67,13.45l14,9.52s6.14,10,17.55,9.17,54.2-4.94,54.2-4.94"/><polyline class="cls-2" points="507.89 1423.08 546.59 1395.92 557.41 1388.77 565.3 1383.32 579.93 1375.45 609.83 1356.14"/><path class="cls-2" d="M453.31,1342.18L606.54,1245s5-2.92,14-2,17.26-.29,21.35,6.14,52.35,81.31,52.35,81.31l5.39,14.81"/><polyline class="cls-2" points="647.74 1326.53 593.67 1240.11 584.23 1240.11 527.58 1155.59"/><polyline class="cls-2" points="382.35 1255.78 384.92 1251.85 418.52 1225.76 540.75 1147.64 565.02 1130.08 589.88 1115.15 623.51 1098.18 662.99 1074.2 686.68 1056.94 708.91 1044.95 719.73 1038.22 782.32 1002.83 894.34 923.86 939.38 906.97 951.66 904.11 995.74 904.11 1021.62 904.11 1162.83 937.41 1196.47 952.28 1243.56 957.23 1271.92 958.1 1319.6 951.51 1421.96 965.11 1649.24 965.11 1724.38 1004.18 1785.8 1041.53"/><polyline class="cls-2" points="680.25 1060.74 663.28 1123.63 645.74 1133.57 625.55 1149.65 567.64 1189.63 442.17 1276.88 417.64 1296.4"/><path class="cls-2" d="M1688,2102.61v-33.37l13-18.17v-860.5l57.32-107.31,32.88-49.43,15.41-21.35,23.79-18.13,9.78-8.19,34.48-43.58,24-30.42,22.8-30.42,17.27-22.23,9.94-16.38,42.12-28.37s-0.62-5.85,12.85-1.46,26.34,11.41,36.87,11.41,74.29-.88,74.29-0.88l8.48,5s17.26-1.46,32.17,2.63,80.43,23.75,92.42,19.63,18.72-9.68,22.52-18.75,3.83-13.3,21.37-14.17"/><path class="cls-2" d="M1981.54,957.81l6-32.81,5.32-14.41,29.28-14.25s10.84-2.32,18.44-9,26.25-24.85,26.25-24.85l19.68-14.62s16.67-16,23.69-19.3,35.68-21.35,35.68-21.35l13.75-17.26,19.3-31.88,9.36-17.26,3.51-20.77L2226,679.93l8.77-3.82H2251l21.21,6.13,32.76-16.07,23.11-13.74,28.66-2.63a46.52,46.52,0,0,0,14.92-9.06c7.6-6.73,44.46-36.85,44.46-36.85s7.6-6.73,8.19-23.11-2.92-21.64,6.73-29,4.68-7.9,25.74-8.48,63.47,0,63.47,0,5.36,0.8,20.47-11.7l7.74-6.36"/><line class="cls-2" x1="1275.1" y1="2103.82" x2="1275.65" y2="1520.67"/><path class="cls-2" d="M1221.07,2101.55l1-443.2,3.56-31.12s-7.3-.86-7.66-32.14,5.22-29.08-2.21-39.29-23.7-35.14-23.7-35.14v-48l-6.11-29.11,5-31.64a201.9,201.9,0,0,1-5.13-20.82c-2.55-12.85-4.1-40.92,0-50.1a38.3,38.3,0,0,0,1.52-27c-2.55-8.67-10.15-12.47-4.05-31s10.17-20.55,9.66-36.88,7.65-19.86,7.65-19.86,3.31-4,2.68-28.29-4.47-46.24,0-61.55,14.16-23.47,18.75-37.76,33.15-87.25,33.15-87.25L1274,950.16V927.87l5-15.47s-4.27-15.82-11.41-16.84,0.42-23.47.42-23.47a68.63,68.63,0,0,0,6.08-27.55c0-15.31,1.51-247.47,1.51-247.47l-13.28-48.47s0-3.06,16.32-3.57,27.55,0,27.55,0"/><path class="cls-2" d="M1170,2098.2l-0.63-440.79a316.21,316.21,0,0,1-3.35-47.1v-46.71"/><polyline class="cls-2" points="1063.59 2097.05 1064.08 1690.39 1074.05 1667.07 1074.05 1601.61"/><line class="cls-2" x1="959.1" y1="2084.55" x2="1592.95" y2="2085.18"/><path class="cls-2" d="M824.74,2037.72l14.36-6.61h908.49l19.43-4.55,59.2-1.63,89.81-3.37,650.47-5.31s15.6,1,31.86,12.61c0,0,2,3,38.5,2s578.79-3.32,578.79-3.32,21.24,1.66,37.5,12.61,22.57,17.26,47.46,16.59,66.71-4.65,66.71-4.65,52.44,0,67,11.28S3522,2078,3522,2078s38.17,0.66,49.78-2,30.86,2.06,30.86,2.06,13.61,3.91,16.26,3.91,14.93,6,16.59,17.6"/><path class="cls-2" d="M1742,2102.88s25.19-6.3,33.47-12.16,22.08-16.56,37.27-16.22,848.13-4.49,848.13-4.49"/><line class="cls-2" x1="1275.55" y1="1978.11" x2="1820.55" y2="1978.11"/><polyline class="cls-2" points="1750.78 2115.5 1726.05 2010.04 1726.05 1397.62 1724.05 1390.18 1724.05 1345.86 1730.05 1339.6 1730.05 1240.61"/><path class="cls-2" d="M1708,1231.61v-10l69.14-127.9s4.89-6.14,19.49-28.05,23.12-33.78,23.12-33.78L1853,999.44s5.78-9.24,7.61-12.59,8.49-10.23,8.49-10.23"/><polyline class="cls-2" points="1764.44 1086.67 1807.05 1023.37 1845.39 992.33 1869.13 964.03 1879.78 953.99 1918.06 895.28 1925.26 894.54"/><path class="cls-2" d="M1673,2101.61V1228.1l54.22-104.21,37.14-64.37,30.17-41.68,9.5-8.67,93.26-120.7,10.73-9.28,19-48.9,8-14.44,33.43-29.51s18.16-7.22,32.19-6.19,13.55,3.11,13.55,3.11"/><path class="cls-2" d="M2032.94,2110.69l-111.63-722.12-10.47-140.88,1.34-96.87L1920,974l8.59-107.61,6.17-23.35s-1.61-8.86,11.54-17.71,31.4-23.61,31.4-23.61,9.39-4,18.78-8.59S2043.14,769,2043.14,769l130.58-2.37"/><path class="cls-2" d="M1433.55,1445.11h51.35s8.06-2,13.41-4h90.12l13,2h16.73l7.33-3h123.37l8.41,5h277.58s11.45,3.36,37.75,6.72S2548,1513.32,2548,1513.32s15.11,3.6,24.9-2.83,7.83-7.57,14.83-9,14.38-12.3,12.59-20.15-9.79-22.5-9.79-22.5l17.35-41.85a15.72,15.72,0,0,0,5.88-6.44c2.24-4.48,59.88-124.79,59.88-124.79s1.4-6.16,10.07-7,19.87-2.78,21.26-11.88,32.18-122.7,32.18-122.7l13.71-17.91s-3.36-29.94,7.27-36.93,19.31-15.39,29.94-16.23,13.15,0.28,22.94-7,12.59-15.11,31.9-10.91,24.06,7.55,33.57,2,13.43-5.6,6.71-14-12.38-14.42-12.38-14.42"/><polyline class="cls-2" points="1064.55 1870.11 1131.61 1870.11 1142.12 1872.16 1433.89 1870.12"/><polyline class="cls-2" points="1485.53 1869.93 1558.39 1868.14 1569.14 1872.11 1870.52 1872.11 1885.57 1864.11 1913.55 1864.11"/><path class="cls-2" d="M954.55,1846.11H1008v-5h5.81l13.45-8h7.25s13.85-9.46,29-6.77,62.74-4.4,62.74-4.4l39.58-2.83H1723l7.38-3h65.09l11,10.91,111.36,0.42,55.89,3.72"/><polyline class="cls-2" points="836.05 1816.61 836.05 1924.3 2009.94 1926.6 2045.93 1921.51"/><path class="cls-2" d="M2054.41,2107.37a186.91,186.91,0,0,0,2.31-40.23c-1.32-20.45-4.77-68.62-4.77-68.62a32.31,32.31,0,0,1,0-11.22c1.15-5.28,1.82-15.1,0-21.07s-9.67-62.72-9.67-62.72-3.89-21,0-39.38,12.79-36.18,13.12-47.88,4.29-59.21,4.29-59.21,5.28-7.26,6.27-14.51,28-221.35,28-221.35,5.94-13.2-2.31-19.79-14.84-6.27-15.17-30.35-2-81.48-2-81.48"/><path class="cls-2" d="M1666.55,1390.11h458.91L2313,1413.43s10.23-8.48,41.57-3.53,100,12.25,126.35,20.5,36.62,13.88,47.83,19.82S2615,1498.1,2615,1498.1s-4.07-8.28,12.42-9.27,46.84,12.87,46.84,12.87l135.91,51.13s12.21,4.29,32.66,1.32,28.66-2.31,43.69,2.64,40.76,10.89,53.3,12.21,39.92-7.59,64.33,6.93,59.38,35.63,59.38,35.63l125,103.25,37.28,38.62,42.89,32.68h97.82"/><line class="cls-2" x1="3366.05" y1="1829.61" x2="3366.05" y2="1696.61"/><path class="cls-2" d="M3369.41,2117l34.44-81.68a502.54,502.54,0,0,0,2.89-56.35c-0.19-30.68,0-141.82,0-141.82l7.35-21.07v-83.32l5-10.38"/><path class="cls-2" d="M849.87,2101.29S839,2085.09,836,2074.72s-12.8-57-25.12-70.6-14.93-16.68-17.52-26.15-6.39-11.51-11.43-19.1-16.19-32.28-16.19-32.28l-23.13-54.85s-1.68-3.51-7.57-15.07-21.45-53.62-21.45-53.62l-22.92-54.88-23.55-51.09-16-30.7s-7.15-16.4-8.62-22.71-11.14-27.54-3.15-34.27,24.39-21.87,24.39-21.87,10.45-14.3,12.37-17.66,22.11-34.48,22.11-34.48,2.31-4.63,10.51-8.83,24-11.77,22.5-16.82-5.89-17,4.84-30.7,30.07-42.89,30.07-42.89L789.27,1404,812,1368.65l21.24-31.54,26.49-40.71,17.66-26.15,20.19-30.7,16-27.54,9-8.32,20.61-30.79,22.71-36.38,15.56-23.13,1.47-21.87,4-9.46,6.73-12.62s4.42-5.47,6.73-20.4,11.14-54.25,11.14-54.25l8-38.69,9.25-19.55s4.14-25.44,3.93-45.63,0.36-102.61.36-102.61V741.53s-0.29-5.4-5.54-14.63-7.47-16.17-6.42-29.84"/><path class="cls-2" d="M997,715.36s26,4.21,35.61-1.05,13.38-5.68,27.68-6.31,20.4-3.78,25.44-6.52,6.31-8,19.55-7.15,58.24-.09,58.24-0.09l64.55,0.93,72.75,1.47,115.44,0.21,85.58-.42,94-1.31,26.87,0.25"/><path class="cls-2" d="M274.79,1150.14L445.63,984.66s-8.36-5.68-6.35-10.7,15.71-4,15.71-4,5.68,1,15-9.36,54.16-54.49,54.16-54.49"/><path class="cls-2" d="M213.53,1006.94s-0.92,11.14-.12,18.5-2.47,13-4.08,14.38-4.75,12.7-4.08,16.72,0,8.69,0,14,6.69,13,8,18.39-8,10.36-8,10.36,8.78-8.9,19.11-10.81,13.19,1.34,19.88-3.63,15.1-15.68,15.87-19.12,5.54-11.66,8.6-2.87,5,10.71,6.88,12.81,36.63,38.17,36.63,38.17"/><path class="cls-2" d="M101.8,1043.53s9.51,5.65,13.53-8.06,7.35-21.06,9.36-23.4,2.34-7.2,2-12.63,4-15.12,7.69-20.8,11.37-15.71,11.37-20.06-1.07-15.82-1.07-15.82"/><path class="cls-2" d="M237.36,1122.17s9.75-18,18.93-27.15,21.41-18.54,22.75-24.09,9.56-30.59,13.19-39.77S310,1009.37,310,1009.37s46.46-51,65-55.63S473.85,930,473.85,930l30.59-8s22.56-5.35,28.49-7.26,24.28-3.82,28.68,3.25,42.25,61.37,42.25,61.37"/><path class="cls-2" d="M454.71,879.3l15.89,22.82s6.21,26.67,13.57,31.54,13,6.12,12.81,10.9,1.72,8.22,6.5,11.28,15.49,8.79,15.1,14.72-0.19,16.25,7.07,21.6,49.9,48.56,49.9,48.56l45.88,48a143.34,143.34,0,0,1,19.69,26.38c8.6,15.1,14,24.85,16.25,36.32s2.49,30.34,9.37,38.21,52.77,80.7,52.77,80.7l6.69,11.09"/><polyline class="cls-2" points="650.9 1263.06 684.23 1243.87 696.1 1233.53"/><polyline class="cls-2" points="256.29 1095.02 295.53 1130.05 399.49 1240.53"/><polyline class="cls-2" points="357.12 1222.73 378.2 1203.69 499.68 1084.82"/><polyline class="cls-2" points="279.71 1068.43 407.55 1197.95 410.76 1201.2"/><line class="cls-2" x1="468.89" y1="1193.57" x2="300.96" y2="1018.5"/><line class="cls-2" x1="388.23" y1="1040.25" x2="510.26" y2="1167.13"/><line class="cls-2" x1="463.72" y1="1079.85" x2="533.17" y2="1152.49"/><path class="cls-2" d="M507.09,1103.69s4-6.14-3.7-14.69-80.77-82.06-80.77-82.06l-65.5-68.14s-3.35-7.69,1.21-17.38,6.55-14-4.27-13.39-12.26-1.86-13.83-5.63"/><path class="cls-2" d="M505.81,832.21s11,1.43,11,16-3.13,20.8-1.71,27.36,3.13,25.85,14.53,37.44,33.19,33.37,33.19,33.37a15.84,15.84,0,0,0,2.72,7.57c2.56,3.7,75.81,103.74,75.81,103.74l55.86,87.21,19.09,29.07a17.13,17.13,0,0,0,9.92,6.27c6.61,1.42,11.74-3.42,18.29,6s81.22,124.54,81.22,124.54"/><path class="cls-2" d="M719.55,1332.11h38.08l45.4-3.79s11-.82,13.86-7.37,11.68-11.67,14-13.95,36.48-78.65,36.48-78.65,4.27-14.82,13.11-21.37,19.66-20.52,19.66-20.52l52.84-39.61s6.17-4.65,8.91-3.36"/><path class="cls-2" d="M757.88,1269.43L792,1318.91s9,11,15.79,16.11,33.18,25.77,45.1,39.63,26.74,34.84,36.08,43,13.17,10.63,13.17,10.63"/><path class="cls-2" d="M654.06,1596.38l53.5,98.11s2.48,5,4,19.82,16.75,44.6,16.75,44.6,26.87,49.06,26.37,55l-0.5,5.95"/><path class="cls-8" d="M719.92,1819.88l40.42-.81s11.3-2.8,17.13-2.81,115,0,115,0h11.3"/><path class="cls-5" d="M884.38,1731.1s-5.74-11.49,7.86-13.91,31.75-5.74,45.05-6,68.64,0,68.64,0l138.78-1"/><path class="cls-2" d="M883.24,2103.82s8.83-17.28,23.21-21.81,17.55-2.72,30.23-17.66,20.24-20.83,20.24-20.83"/><path class="cls-2" d="M765.4,1926.72s16.7-7,24.85-13.56,69.9-10,84.84-10H994.44l15.59-3.06"/><line class="cls-2" x1="1011.05" y1="1924.61" x2="1011.05" y2="1815.61"/><polyline class="cls-2" points="988.05 1924.61 988.05 1889.36 976.05 1875.06 976.05 1846.61"/><line class="cls-2" x1="1035.05" y1="1924.61" x2="1035.05" y2="1814.61"/><line class="cls-2" x1="1381.55" y1="1766.11" x2="1539.55" y2="1766.11"/><line class="cls-2" x1="1381.55" y1="1657.11" x2="1539.55" y2="1657.11"/><path class="cls-2" d="M692.61,1667.06s10.53-9.24,25.13-5.7,37.15,0.16,43.35-.81,21.23-1.82,38-3.38,124.73-14.39,124.73-14.39,3-16.81,22.05-17.69,27.49-5,35-12.38,38.92-41.58,38.92-41.58l102.61-117.65s8.4-3.54,11.94-10.17,10.65-38.92,21.06-41"/><path class="cls-5" d="M954,1659.73s1.82-2.1,1.64-8.08,1.4-65,1.4-65v-33.8L969,1501.21s2.16-23,1.25-30.25-5.17-24.45-13.23-27.17-10.46-6.7-10.46-6.7a28.18,28.18,0,0,0-17.23-7.25c-10.87-.72-16.13-6.52-34.79,6.34"/><line class="cls-5" x1="1010.55" y1="1493.11" x2="970.55" y2="1493.11"/><path class="cls-8" d="M978.09,1455.65s4-28.19,11.83-30.54,25.32-2.45,25.31-17.92v-15.47"/><path class="cls-2" d="M923.85,1642.78l44.66,1.8s9.49,0.59,19,10.38c0,0,2.37,4.15,19.28,3.56s268.34,0.06,268.34.06"/><path class="cls-2" d="M1275.1,1627.32s6.32-1.43,17.88,2.53a43,43,0,0,0,21.43,1.7s5.11-3.28,13.69-1.92,23.24,9,33.11,6.71,14.66-7,20.58-6.2"/><path class="cls-2" d="M1218.55,1591.11H1239s2.65-2.43,12.24,6,18.32,9,30.73,9h219.73l438.26-.46s7.89-1.57,11.56,5.2,14.94,12.47,31.29,17,88.24,13.56,88.24,13.56L2254,1664s38.9,9.31,51.59,11.28,95,11.56,95,11.56l48.49,12.69,29.6-1.13,144.34,88.12,65.69,40.72,63.15,46.52,254.69,163.81"/><path class="cls-2" d="M3115.12,1543c-0.73,7.94-4,11.32-4,11.32s-118.22,140.29-123.33,147.75-5.89,22-5.89,22l1.57,203.16-6.68,13,3.27,163.47"/><path class="cls-2" d="M970.41,1117.7l7.3,11.59,48.08-35s4.93-4.5,17-5.84,53.92-20.29,58.82-23.56,92.47-53.25,92.47-53.25,7.19-7.16,24.18-4.42,46.72,11.85,65.35,11.85h355.26l84.76,44.84,113.43,61.75,28.75,19.6s11.11,9.3,24.5,12.89,47.37,11.91,47.37,11.91h37.64l11,11.26,68.28,1.73,50.6,24.55,68.45,8.85,315.48,128.08s9.47,2.62,20.58-6.53,26.14-28.09,41.17-28.75,16.66-1,45.09,13.4,91.48,45.09,91.48,45.09l17.64,11.44,23.32,22.54,98.22,64,51.95,35,183.61,50.31s6.86,2.61,28.42-3.27l21.56-5.88"/><line class="cls-2" x1="1592.55" y1="1766.11" x2="1821.55" y2="1766.11"/><polyline class="cls-2" points="1672.55 1723.11 1754.06 1723.11 1768.35 1727.11 1982.55 1727.11"/><polyline class="cls-2" points="1592.55 1657.11 1808.05 1657.11 1808.05 1200.92 1819.96 1159.06 1857.81 1110.63 1874.73 1090.79 1889.06 1060.62 1908.66 1031.95 1910.85 970.85 1914.81 945.22"/><path class="cls-2" d="M748.62,1192.49l94.93-51.06L862,1129.31l52-35.1,4.9-7.43,10.94-6.67H982.8l7.81,0.34,23.41,22.49a28.25,28.25,0,0,0,17,7.71c10.56,0.91,46.8,3.16,46.8,3.16l67.11,5.15,26,5.15h447.28l189.58,101.69"/><path class="cls-2" d="M1185,1123.92l104.4,12.66,58.76,10.93,85.59,22.93s7.88,6,28.66,5.94"/><path class="cls-2" d="M1212.45,1390.91l3.89-22.93s-7.59-13.07-13.88-18.26-14.18-14.73-12.27-17.19,6.3-3.81,6.85-12.29,2.19-13.39,8.75-18.85,9-7.38,15.31-15.3,13.12-13.66,23.78-11.48,32.25,7.38,41.82,3.28,22.41-10.47,27.33-18.12,9.57-12.65,23.51-12.65h34.78l6.42,6.82"/><path class="cls-2" d="M1754.7,1360l-482.14.7-13.29-31.25s-17.49-6.76-17.49-12.59,0.47-24.72,5.36-29.62,6.65-8.54,6.59-10.8"/><path class="cls-2" d="M1201.55,1177.11h38.77l11.74,9h6.37l8.07-9h111s14.9-4.87,14.45-21.11-1.21-63-1.21-63l5.33-11.09v-10.33"/><path class="cls-2" d="M1315.26,1257.78s-9.44-4.83-10.54-13.38-5.26-16-17.1-21.92-26.75-2.41-30.25-15.57-2.63-20.87-2.63-20.87"/><path class="cls-2" d="M1285,1220.89a84.28,84.28,0,0,0-1.2-10.77c-0.89-4.16,6.76-9.28,6.76-9.28s6.79-4.64,6.79-20.33-0.88-48.33-.88-48.33l-0.5-72.18,9.41-19.08,15.69-38.54,11.55-35.15,6.76-13.32"/><line class="cls-2" x1="1018.02" y1="1711.06" x2="1023" y2="1567.49"/><line class="cls-2" x1="688.01" y1="1551.19" x2="744.14" y2="1518.21"/><path class="cls-2" d="M691.64,1448.81s7.35-1.41,8-9.94,3.44-23.67,19.13-33,72.07-43.2,72.07-43.2"/><line class="cls-2" x1="760.58" y1="1444.45" x2="730.04" y2="1399.18"/><path class="cls-2" d="M441.39,1164.55l31.13-29.89s5.39-5.44,7.75-10.84,17.87-18.17,33.72-22.56,33.39-14.82,33.39-14.82l40.28-10.11,41-7.91,52.95-38.62L825.72,928s18.1-13.66,20.46-24,4.72-16.79,12.48-21.85,7.42-10.79,17.2-11.8,61.72,0,61.72,0a43.45,43.45,0,0,0,14.5,3c8.43,0.34,126.78-.68,126.78-0.68l100.53,14.17,156.83,3.71,32.71,11.8,34.13,5,38.38,17.8h198.73l21.84,3.1,94.1,51.13,12.14,4.33,35.84,25.54"/><polyline class="cls-2" points="1663.2 1231.98 1669.77 1213.61 1732.17 1099.62 1758.47 1053.75 1880.9 894.54 1895.06 885.12 1900.8 875.34 1930.14 804.95"/><polyline class="cls-2" points="1688.39 1161.62 1758.88 1025.03 1855.18 900.33 1860.94 891.43 1871.94 879.12 1886.09 864.71"/><polyline class="cls-2" points="1733.05 1099.61 1733.05 1088.34 1764.61 1037.67 1766.58 1028.66 1862.28 906.24"/><polyline class="cls-2" points="1648.39 2105.32 1645.78 2060.81 1649.05 2032.24 1649.05 1180.22 1732.93 1017.19 1836.37 885.45 1841.46 878.83 1859.09 869.83 1864.47 866.33"/><polyline class="cls-2" points="1697.96 1106.37 1743.8 1015.84 1830.41 905.07 1841.16 903.93 1862.07 876.13"/><line class="cls-2" x1="1640.72" y1="1136.03" x2="1640.28" y2="857.5"/><polyline class="cls-2" points="1696.18 776.61 1640.28 885.24 1493.9 887.08 1487.48 883.11 1433.53 883.11 1417.88 874.5"/><polyline class="cls-2" points="1592.55 870.11 1640.18 870.11 1744.9 930.39 1783.76 945.16 1840.2 986.14 1916.47 1053.34 2029.21 1056.65"/><line class="cls-2" x1="696.74" y1="1051.52" x2="639.16" y2="970.8"/><polyline class="cls-2" points="561.2 1004.32 713.09 890.94 736.38 886.42 754.45 871.21 744.46 853.86 731.62 850.05"/><polyline class="cls-2" points="581.56 1077.87 584.59 1090.32 609.83 1103.69 636.22 1141.15"/><polyline class="cls-2" points="659.29 1164.55 680.25 1155.8 748.62 1113.19 795.72 1091.65 813.95 1077.87"/><polyline class="cls-2" points="962.55 1345.11 932.33 1345.11 843.53 1277.86 831.51 1253.03 814.5 1228.8"/><path class="cls-2" d="M961.74,1341.55l-22.85-21.21-74.47-50.9s-3.42-1.8-13.36-18.37S753,1101.92,753,1101.92s1-8-2.32-12.59-24.43-33.81-24.43-33.81a41.23,41.23,0,0,0-6.48-17.3c-5.88-9.22-76.8-108-76.8-108L625.69,908"/><line class="cls-2" x1="812.21" y1="1225.7" x2="716.29" y2="1077.87"/><line class="cls-2" x1="940.62" y1="1433" x2="924.86" y2="1410.85"/><line class="cls-2" x1="959.82" y1="1426.46" x2="960.67" y2="1383.83"/><line class="cls-2" x1="945.55" y1="1327.11" x2="961.55" y2="1327.11"/><polyline class="cls-2" points="973.07 1279.14 889.89 1173.63 782.32 1002.83 732.49 929.77"/><path class="cls-2" d="M918.38,1172.77l-49.92-77.08s-5.37-11.75-3.36-21.16,7.72-13.39,11.08-24,8.06-16,8.06-16,3-1.68,2.69-9.07S898,1015.22,898,1015.22s17.13,2.9,15.11-6.17-15.78-20.15-15.78-20.15l-29.77-46.17"/><path class="cls-2" d="M830.33,969L803,933.5s2-6-1.4-9.4-7.1-5-7.91-11.42-3.84-18.47-7.2-23.84-7.05-9.81-7.05-19,1.68-8.53-6.38-22-33.58-62.12-33.58-62.12l1.68-23.51s-5-19.14-11.75-30.56S717,715.51,717,715.51"/><path class="cls-2" d="M868.45,1095.69l-7.87,3.7s-4.76-13.47-14.08-14.44-23.44,1.62-26.33,3.54-11.79,2.24-16.81-6.11-56.73-85.11-56.73-85.11L717,954.56,696.74,928l-16.91-24-16.7-29-7.07-9.63,1.76-23"/><line class="cls-2" x1="638.55" y1="842.11" x2="681.55" y2="842.11"/><path class="cls-2" d="M655,881.61v-8.09s22.68-2.46,23.64-8.57,0.89-31.79,6-34,5.1-2.25,5.1-2.25,4.16-8.35,4.48-15.74-1.29-19.59,4.17-24.41,11.24-9,5.46-20.55-6.1-13.17-6.1-18.95-1.22-10.11-4.07-14.29"/><polyline class="cls-2" points="642.71 885.74 599.73 825.24 593.61 754.95"/><path class="cls-2" d="M549.55,800.11h26.91s7.45-6.43,14-6.37,13.77-12.06,27.7.07,14.26,5.6,20.42,19.76,1.18,13.27.59,20.75-2.52,20.74,3.55,28.83,12.17,10.22,12.17,10.22"/><path class="cls-2" d="M723.33,703.35s6.67-3.64-4.16-24.22S697.51,641.47,697,630.24s-1.62-1.48-9.21-15.56,4.87-9.75-4.87-21.12S658,577.85,657.43,565.39s6.5-14.08,0-23.29-9.75-11.37-6.5-17.33,8.73-9.21,3.82-17.87-11.95-16.25-9.24-27.62,8.12-21.66,8.12-36.83-7-19-2.71-30.87-6-25.46,4.33-30.33,16.79,4.33,17.33-7,5.42-6,5.42-16.79-23.29-13.54-23.29-13.54-12.46-1.62-12.46-10.83-6.5-17.87-12.46-12.46-9.75,6.94-13-1.68,1.62-10.24,5.42-20.53,2.71-15.16-2.17-16.79-13-15.38-.54-18.52"/><polyline class="cls-2" points="801.04 874.47 815.8 894.73 834.25 920.07"/><line class="cls-2" x1="848.86" y1="867.38" x2="815.8" y2="894.73"/><line class="cls-2" x1="819.64" y1="860.74" x2="880.3" y2="933.8"/><polyline class="cls-2" points="894.34 923.86 877.61 894.02 860.88 880.29 835.15 848.09"/><path class="cls-8" d="M933.4,1079.54l10.78-31.43a32.46,32.46,0,0,0-3.4-16.77c-4.39-9-4.29-14.12-1.9-18.27s6.8-7.79,3.14-18.78S941.55,969,941.55,969V913.64l-2.09-6.76"/><polyline class="cls-2" points="938.29 907.94 940.05 865.19 940.05 817.88 913.42 785.37"/><path class="cls-2" d="M926.21,818.08s-8.36-16.84-19.34-26.12-7.57-14.89-18.31-20.5-28.07-20-33.2-31.49-8.67-18.24-8.67-18.24"/><polyline class="cls-2" points="1350.55 1246.85 1352.92 1220.88 1340.05 1199.56 1340.05 1155.61"/><path class="cls-2" d="M1362.34,1151.31s-2.5,6.26-2.07,25.67,1.92,32.55-10.43,39.78"/><polyline class="cls-2" points="1383.14 1249.74 1377.35 1244.23 1377.48 1176.98 1374.88 1166.05"/><polyline class="cls-2" points="1180.98 1123.92 1224.07 994.94 1233.86 985.15 1264.61 892.03"/><polyline class="cls-2" points="1232.05 795.61 1232.05 801.84 1239.18 810.39 1238.11 819.63 1230.05 828.23 1230.05 851.45 1212.23 899.27 1145.44 1118.42"/><path class="cls-2" d="M995.55,769.11h84.3l84.3,13.92,48.65,8.37,51.81,11.38,160.57,2.33h205.94l38.18,15.47,3.88,5.46,20.56,10.73,7.34,9,7,1.5,88.55,44.64,10.88,21.95,67.14,52.07,15.55,7.3,20,15s0.52,1.63,9,3,20.37-.65,20.37-0.65l22.31,16,27.56-3.82,23.39-8.7h36.26l134.45,72.73,299.56-2.25"/><path class="cls-2" d="M2035.32,1503.83l-6.23-344.13,3.12-57.81s130.11-243.1,134.3-254.63A238.45,238.45,0,0,1,2178.94,819c4.83-9.67,15.17-65.89,9.31-78.18"/><path class="cls-2" d="M2260.68,679s-7.24,3.7-14.38,4.33-13.44-4.62-25.2,12.18-30.48,37.43-31.1,54"/><path class="cls-2" d="M2509.08,458.47l-36.53,3s-8.06,1.66-15.08-2.34h-99.09L2340,484.52l-9.68.68s-4.18-4.22-11.2,0-18,0-18,0l-4,7.58-16.32,5.69s-14.23-2.85-17.46-16.13a23.84,23.84,0,0,1,1.65-12.91c2.9-7,28-56.75,28-56.75l3.23-42.1-4.36-6.86s-2.28-4.55,0-15.18,8.73-28.66,5.5-36.63-5.69-11.77-5.88-16.32-0.38-8.92-9.68-14-10.44-9.87-10.44-11"/><path class="cls-2" d="M2269.51,270.58a32.36,32.36,0,0,1-15,7.35c-8.73,1.52-23.13,15.92-23.13,15.92s-11,9.1-22.19,3.78-18-9.5-18-9.5-6.64-7.4-14.61-5.32-16.32,1.9-21.06-.76-24.29,3.18-35.68,2.82-52.19,1.73-52.19,1.73l-29-6.07a15.64,15.64,0,0,1-8.73-4.74c-3.42-4-7-5.88-12.53-8.73s-17.74-10-22.58-15.18-13.85-16.57-13.85-16.57,0.38-1.19-3.8-1.19H1811l-8.83-4h-86.62"/><path class="cls-2" d="M1682.3,272.68l30.85-6.57h24.08a29.54,29.54,0,0,0,4.2-3.16l2.09-1.9"/><path class="cls-2" d="M1608,87.9s46.31,34.73,53.71,45.17,33.59,57.5,44.6,78.57,37.2,85.21,37.2,85.21a8.34,8.34,0,0,0,6.64,4c4.55,0.19,9.68,1.33,13.28,9.3s17.27,40.42,17.27,40.42l21.45,31.31,23.34,26,29.8,33.78L1885.67,480l1.52,13.66,31.12,45.93,15,32.07,55.42,76.67,7.78,25.62-5.69,37.77,21.82,48.2,9.29,20.13"/><polyline class="cls-2" points="2059.3 857.99 2058.05 797.87 2058.05 745.41 2022.18 698.43 1996.76 673.95"/><polyline class="cls-2" points="2016.41 768.1 2057.51 745.41 2069.75 699.19 2075.83 670.53 2084.75 653.45 2083.42 641.49"/><path class="cls-2" d="M1991.65,713.57l37.44-31.28,14.28-14.61s27.14-15,34.73-21.64,23-31.12,23-31.12l19-27.71"/><path class="cls-2" d="M2084.58,849.22s-2.3-6-2.68-47S2081,704.8,2081,704.8s0.76-3-1.14-7.51-1.71-9.68,3.61-14,23.15-14.23,27.33-21.07,26.19-42.51,26.19-42.51,6.64-9.87,4.55-15.94a29.74,29.74,0,0,1,.41-19c2.06-6.07,5.14-14.91,5.1-18"/><path class="cls-2" d="M2131.62,572.79s3.61-11.58,2.85-16.7-1.71-15.18,2.47-16.7,47.26-27.9,47.26-27.9l35.3-20.88a35,35,0,0,0,5.88-5.88c3-3.8,24.86-27.33,24.86-27.33s4.18-4.55,3.42-13.09,0-26.95-9.87-42.32-12.34-27.9-12.34-27.9l-9.68-24.86s-12.91-17.08-5.5-29.23,8.92-10.44,8.92-14.8,4.74-14.61,4.74-14.61l0.76-11.2a33.68,33.68,0,0,1,4-6.64c1.9-2.09,4.18-13.54,4.18-13.54"/><polyline class="cls-2" points="1111.61 1071.52 1626.77 1069.32 1845.65 1188.5"/><line class="cls-2" x1="1640.28" y1="1056.75" x2="1670.13" y2="1004.59"/><path class="cls-2" d="M1080.11,1043.62l60.42-41.08a125.53,125.53,0,0,1,47.17-17c27.65-4,116.27-20.12,116.27-20.12s17.19-2.14,39.18,6.45,20.33,19.23,77.3,19.23H1527.6l45.55-7h50.21s3.62-3,28.76,10.4,47.68,25.67,47.68,25.67"/><line class="cls-2" x1="1640.5" y1="976.81" x2="1744.9" y2="780.04"/><polyline class="cls-5" points="1746.58 776.61 1785.95 700.47 1789.47 655.64"/><path class="cls-2" d="M1790.35,567s-4.19,4.61-9,5-1,6.28,1.68,11.1,0.63,7.33,0,7.75-5.45,7.12-7.12,12.36-4.61,11.73-7.88,15.08-3.85,6.91-3.64,10.89-2.51,4.19-8.38,4.4-8.17,3.14-8.17,3.14S1731.91,659,1729,664.65s-5.24,9.43-6.28,14.24-5,9-10.05,16.76A178.92,178.92,0,0,1,1699,713l-39.38,27.44"/><path class="cls-2" d="M1796.43,632.6s-5.66-7.75-6.07-22.83,0-50.66,0-50.66l-0.19-17.84s3.12-5.66-14.69-15.5-27-8.8-27-8.8-13.2-.21-19.48-4.61a28.54,28.54,0,0,0-11.94-5"/><path class="cls-2" d="M1477.85,611.66l163.79-6.49,33.72,1s6.91,1.26,9.63-2.09,1.26-5.66,5.86-9.84,14.87-9,14.87-18.85-6.7-20.95-2.51-29.11,11.52-29.74,11.73-33.51,2.51-6.49,8.38-13.41,25.76-17.18,28.9-22,7.75-10.89,17.59-22S1809,412,1809,412s9.84-5.86,9.43-31.84,0-59.49,0-59.49l-1.27-90.07L1816.74,97"/><path class="cls-2" d="M1756.1,302s0.95,5.06,2.2-15,1-66.19,1-66.19v-57.6l2.08-5.86a65.89,65.89,0,0,0,0-22.41c-2.09-12.78-7.14-18-2.21-22.41"/><path class="cls-8" d="M1681.44,114.83S1698,134.52,1742,134.94s77.71,2.51,77.71,2.51a94.69,94.69,0,0,1,17.18,8.59c8,5.24,30.16,1.26,33.3-1.26S1902,128.44,1902,128.44s6.33,20.11,23.27,20.95"/><path class="cls-8" d="M1823,405.1s8.18-41.86,8.81-50.76,8.17-61.89,8.17-61.89l22.83-47.13L1875,202.8l14.24-28.49,13-23.46s7.12-15.29,14.66-18.75,11.73-7.65,11.94-12.46"/><path class="cls-8" d="M1971.58,418.47s-8.9-8.13-12.67-29.92S1948.55,322,1948.55,322V271.78s-4.26-17.88-6.15-24-8.47-36.24-8.47-36.24l-9.68-40.84,4.58-38.64s16.12-12,6.69-17.28"/><path class="cls-8" d="M1763.54,520.18s5.64-13.87-6.81-23.84-38.28-31.74-47.14-51.68-8.12-58.32-8.12-58.32-0.74-31.38-12.92-37.65-32.85-7.75-35.44-25.84,1.11-28.79-7.75-44.29-16.24-24-13.29-34.7,8.12-14.24,12.18-14.13,7.75-1.37,7-9.12,4.06-14.4.37-22.15-9.83-18-9.83-18"/><path class="cls-8" d="M1582.47,166.34s-4.28-6.22-13.14-16.95-32.48-29.74-32.48-29.74"/><path class="cls-8" d="M1383.29,180.48s1.85-14.87,19.56-18.2,25.84,0.75,33.59-5.9,8.12-4.44,16.24-9.6,11.07-4.06,11.81-9.23-7.38-7.91,3-11.71,25.84,1.7,21.41-11"/><path class="cls-8" d="M1257,359.4s10.34-5.91,13.66-16.24,5.54-14.4,10.7-20.67S1294,301.07,1292.85,290s-9.23-11.72-5.54-23.21,9.45-23.67,5.65-30.68-40.35-101.51-40.35-101.51"/><path class="cls-8" d="M1161.08,293s17.35-15.5,11.07-26.58-83.79-166.5-83.79-166.5"/><path class="cls-8" d="M1328.71,486.51s-2.94,20.38-9.66,29.08-6.09,24.54-6.09,24.54L1306.55,571V852.82l-10.73,47.91-18.09,8.41"/><path class="cls-2" d="M1123.18,1042.58l0.85-12.48s-6.84-7.59-7.14-14.71,3.46-21,3.46-21l8-20.24,8.18-33.39s-1.62-10.55,2.19-19.48,14.14-38.25,14.14-38.25l14.69-32.89s1.91-9.51,1.61-15.81-0.14-75.82-.14-75.82V564.61"/><polyline class="cls-2" points="995.05 904.61 995.05 644.47 922.64 763.85"/><path class="cls-2" d="M337.25,259.12s-2,34.6,7.46,46.81,10.18,40,10.18,40-1.36,14.25,10.18,7.46,14.92-10.85,19.67-4.75,5.43,8.41,17,6.58S422,338.49,431.52,348s21.73,8.82,21.05,16.28S450,369.52,456,377.83c9.09,12.72,35.28,3.39,36.63-3.39s-1.36-20.35,5.43-20.35,6.11-2.71,10.85.68,12.21,14.25,19,6.11,17-11.53,22.39-13.57,6.78-2.71,11.53.68,14.92,8.82,15.6,2,2-22.39,14.25-18.32,2,12.21,17.64,8.82,9.5-3.39,20.35.68,16.93,9.57,28.49,8.14,21.71-7.46,29.17-6.78,15.6,4.75,23.06,2.71,2-8.14,18.32-7.46,19-9.5,26.46-2,3.39,17,13.57,14.92,4.75-8.82,10.18-2,5.43,12.21,12.89,10.18,14.92,2.71,17,5.43,0,9.5,10.18,9.5,6.78-1.36,13.57,4.07,10.85,6.78,13.57-2.71,14.25-19.67,18.32-19.67,19-2,24.42,2.71c0,0,.85,13.67,13.12,12.9s13.43,18.8,13.43,18.8,11.12,6.9,11.89,15.73,4.22,16.49-5.75,22.25-22.25,15-16.11,23.4,10,15.34,5.75,29.54-13.81,15-13.43,34.91,6.52,18.8,1.92,36.06-11.89,19.95-6.9,33.76,1.92,41.55-8.06,44.75-28,1.28-29.92,17.39,9.21,28,5.37,43.73-0.29,19.51-.29,19.51"/><path class="cls-2" d="M439.07,257.94s30.53,14.92,26.46,25.78-16.28,8.14-16.28,15.6,1.36,8.82-6.78,9.5-12.21-6.11-21.71,0-11.53,14.92-17,14.92-16.28.18-8.14,7.21,14.92,1.11,22.39,0,20.35-4.33,19.67,3.39,0.14,2.29,6.24,5,2.13,16.33-6.69,25.15-9,15.55-.23,19.62,16.39,4.42,18.32,14.92"/><path class="cls-2" d="M910.71,780s1.39-24.55-16.37-36.44-51.52-24.77-66.1-26.58-19.56-19.89-19.56-19.89S792.57,673,785.28,667.2,764.95,657,760,644.47s13.81-13.34-1.92-30.21-11.51-13-11.51-19.56,4.22-18.8-10-19.56-12.66,5.37-21.48-13-5-40.66-3.07-41.81,17.12-20.05,13.35-37.07S727,442,715.46,430.9s-20.33-27.24-14.58-38.74,25.32-18.8,17.65-26.47-8.18-20.42-8.18-20.42"/><path class="cls-2" d="M1116.83,1323.18s20.18-3.74,32,0,29.29,16.2,41.37,9.35"/><path class="cls-8" d="M1254.64,1532.54s-16.27-36.2-26.24-39.81-73-9.83-73-9.83l-41.24-5.38-28.3,1s-21.59,3.36-27.34,5.76-43.49.87-57.69-10"/><path class="cls-8" d="M2009.47,1958.89l-16.57,2.1-58.16,17-55.56,1.5s-9.75-1.62-9.75-23.07,2.27-303.49,2.27-303.49"/><line class="cls-8" x1="1862.55" y1="1605.61" x2="1862.55" y2="1652.61"/><polyline class="cls-8" points="1807.55 1652.61 1968.87 1652.61 2263.14 1689.08"/><polyline class="cls-8" points="2181.69 1590.83 2170.97 1668.22 2173.71 1683.17 2158.62 1810.62"/><line class="cls-8" x1="1913.87" y1="1763.1" x2="2027.67" y2="1824.19"/><path class="cls-8" d="M2017.6,1816.89l53.29,5.67s11.37-1.92,17.22-5.67,31.52,2.84,31.52,2.84l27-12.76,116.33,11.37"/><line class="cls-8" x1="1979.21" y1="1763.1" x2="2258.21" y2="1793.64"/><polyline class="cls-8" points="2101.55 1815.61 2101.55 1762.54 2133.01 1516.49"/><line class="cls-8" x1="1969.56" y1="1700.73" x2="2262.93" y2="1739.97"/><polyline class="cls-8" points="1725.55 1550.61 1970.16 1550.61 1999.26 1555.79"/><line class="cls-8" x1="1859.55" y1="1605.61" x2="1859.55" y2="1282.61"/><line class="cls-8" x1="1888.13" y1="1283.09" x2="1890.33" y2="1158.4"/><polyline class="cls-8" points="2001.46 1631.56 1995.5 1605.96 1978.68 1594.61 1969.56 1585.74 1968.88 1170.51 1971.21 1106.37 1968.88 1055.03"/><path class="cls-2" d="M2197.45,2105.32l-7.13-102.21,69.42-204,3.19-53.56,7.27-30.17-16-56.64-5.54-34.48-23.93-95.74,17.47-150.22,22.78-34.48,44.94-24L2401.5,1240s-4.47-21.18-2.31-30.42,35.71-136.37,35.71-136.37,24-24.32,28.32-27.09,31.09-23.09,31.09-23.09,9.85-6.77,14.16-24.93,10.77-43.1,18.47-55.72,30.17-55.41,30.17-65.26-4.31-12.62-4.31-20.93-1.54-96-1.54-96l-0.62-104.36-1.21-154.53-4.33-2.89-22.47-63.6-12-23.09-1.54-173.62"/><path class="cls-2" d="M2311.21,1132.4l-1.5-66.43,4.34-9.35V975.75a21.15,21.15,0,0,0-8-11.48c-6.46-4.62-9.93-18.16-7.47-22.47s13.16-11.39,15.18-14.78,6.93-19.09,7.24-32-0.63-20.63-3.4-24.32,0-10.47-16.94-11.08-22.78-4.62-21.55-13.54,4.87-18.39,8.62-23.09,16.93-24.32,16.93-24.32L2331.15,771s9.85-10.54,18.78-9.12a103,103,0,0,1,16.62,4.19s6.46,1.85,10.47-.31,25.86-18.16,40.33-19.7,596.9-33.55,596.9-33.55l61.57,30.48s24.63,7.7,40.94,5.23,52.64,18.16,52.64,18.16,6.77,12,10.47,16.62,65.88,59.72,65.88,59.72l57.87,36,35.09,27.09,55.72,40.94,201.94,168.39s11.08,9.54,17.55,28,22.78,32.94,30.48,40,14.78,17.74,31.09,16.41,29.55-7.18,45.87,8.83,70.21,41.56,89,37.25"/><path class="cls-2" d="M1640.28,885.24L1716.51,928l5.79,8.74,20,8.49,6.63,14.14,20.87,10.59,7.17,3.42,40.21,31,44.84,50.17,42.33,41.39,9.65,12.36,24.72,7.08s16.79,6.74,30.09,6.92,36.89-7.91,55.76,3.55,70.1,38.7,70.1,38.7,6.34,6.51,34.17,7.16,147.13,0,147.13,0"/><polyline class="cls-2" points="1888.39 1062.82 1853.05 1027.84 1853.05 1021.05 1828.65 995.68 1819.06 989.79 1766.41 949.35 1759.2 945.11 1742.55 945.11"/><line class="cls-2" x1="1739.47" y1="943.98" x2="1747.26" y2="931.37"/><line class="cls-2" x1="1817.23" y1="1004.38" x2="1911.73" y2="882.1"/><polyline class="cls-2" points="1801.31 941.9 1917.44 1030.09 1982.99 1027.05 2029.08 1043.29 2199.11 1134.11 2319.56 1134.11 2418.45 1161.3"/><path class="cls-2" d="M2340.52,1201l18.39-74,10.75-39.87s15.09-20.9,15.33-26.89,0-50.86,0-50.86l0.1-45.34s10.44-23.27,19.56-27.58,31.66-8.7,46.53-18.26,34.06-31.87,34.06-31.87,14.51-35.28,41-35.26,215.1-1.38,215.1-1.38l280.17-2.58H3248.7s50.78,2.58,57.5-14.68"/><path class="cls-2" d="M1095.74,825.48s4.1-2.13,30,2.43,70.36,6.62,84,5.77,128.4-1.84,128.4-1.84l7.7,7.57s27.06,3.7,49,3.7h245.33l151.73,79.43,31.17,19.36,51.62,39,11.39,4.55,23.56,18.68"/><polyline class="cls-2" points="1796.67 891.88 1810.69 896.94 1874.69 947.32 1879.78 953.99 1919.96 973.97 1939.58 990.6"/><line class="cls-2" x1="1830.41" y1="905.07" x2="1857.37" y2="925.13"/><polyline class="cls-2" points="1791.07 855.67 1807.01 878.43 1828.13 895.79"/><path class="cls-2" d="M1622.49,762l17.89,16,172.37,88.38,96.92,79,51.62,10.52,35.21,3.7,42.49,3.78,34.44,19.77h11.9l113.62,63H2260s5.24,3,9.51,1.89,27.89-10.49,27.89-10.49L2333,1037"/><line class="cls-2" x1="2123.56" y1="1034.69" x2="2173.71" y2="945.2"/><path class="cls-2" d="M2128.9,920.16l56.4,31.35a14.68,14.68,0,0,0,14.27,0c7.4-4.23,13.74,1.88,13.74,1.88s11.85,5.52,9.1-5.58a88,88,0,0,1-2.1-13.22c-0.75-8.85-.25-17.58,2.52-20a95,95,0,0,0,9.51-10.63"/><path class="cls-2" d="M963.3,740.65l69.31,0.88s9,0.34,23.41,5.4,72.77,4.39,72.77,4.39l214-1.35s29.71,4.11,41.52,1.38,95.87-2.06,95.87-2.06l162.37-2.82L1703,780l45.91,17.53,62.39,19.56,14.92,2.36"/><path class="cls-2" d="M1791,855.78l-10.77-52.08L1776,769.35V751.88l5.59-11.23A42.41,42.41,0,0,0,1786,717c-1.66-13-1.74-13-1.74-13"/><polyline class="cls-2" points="1690.36 773.02 1713.07 729.39 1722.48 719.98"/><line class="cls-2" x1="1725.92" y1="725.03" x2="1707.56" y2="758.77"/><polyline class="cls-2" points="1659.65 628.2 1636.13 603.57 1632.98 595.55 1586.88 560.98"/><polyline class="cls-2" points="1377.05 804.61 1377.05 706.59 1381.05 700.01 1381.05 640.59 1381.05 533.61"/><polyline class="cls-2" points="1367.05 696.61 1367.05 640.59 1367.05 617.3 1363.05 602.4 1363.05 547.42 1356.05 533.19 1356.05 518.61"/><line class="cls-2" x1="1448.18" y1="696.7" x2="1446.07" y2="588.18"/><line class="cls-2" x1="1079.05" y1="649.61" x2="1079.05" y2="613.61"/><polyline class="cls-2" points="1404.55 615.11 1114.79 615.11 1079.48 627.95"/><path class="cls-2" d="M1021,644.61v27l7.86,15.28s1.58,23.89,12.73,34.8,5,8.56,14.4,25.19,22.18,41.47,22.18,41.47l22.62,47.49,83.21,68,127.46,53.28a21.29,21.29,0,0,1,6.89,8"/><line class="cls-2" x1="1319.6" y1="951.33" x2="1350.43" y2="853.78"/><polyline class="cls-2" points="937.88 870.25 962.05 904.58 962.05 945.61"/><path class="cls-2" d="M941.39,946s23.06-1,31.69,0,19.5,3.58,22,19.14S979.51,999,1008.61,1008s84.12,27.06,84.12,27.06"/><path class="cls-2" d="M882.94,354.34s6.54-16.28-5.35-19.26-24.65,9.51-24.81,0,20.92-19.62,11.86-29.14-31.65-10.7-25.71-29.73,48.38-23.19,22.41-38.65-48.57-31.52-32.52-44,28.54-44.09,13.08-55.9-44.28-26.76-37-47.57"/><path class="cls-2" d="M915.32,389.85s20.55,2.32,23.52,17.18,5.95,30.33,19.62,20.81,25.57-40.44,43.41-25.57,28.54,23.19,42.22,17.84,10.7-19,21.41-14.87,30.33-2.38,30.92-10.7-22.6-32.11-3.57-27.35,20.81,4.62,20.81-7.8,15.46-21.48,21.41-5.06,15.46,27.13,22.6,18.21,11.46-19.62,15.84-4.16-3.95,22.6,5,24.38,11.3,5.35,10.7,11.3,9.51,15.46,14.27,16.06,7.73-2.38,14.27,4.76,22,2.38,24.36,1.19,2.59-7.23,10.52,4.71,9.72,25,16.26,17.29,11.62-7.73,8.78-13.68-9.24-13.08.8-10.11,10.21,6.61,10.63-2.38c0.32-6.9-3.93-9.36,7.07-15"/><path class="cls-2" d="M1799,376.61V142.38s20.56-22.8-4.14-54.47"/><path class="cls-2" d="M1771.55,327.11H1897.7s14.35,0.08,14.35-18.77v-87s-1.73-19.93,18.88-23.63,47.07-15.4,56.16-23.2,25.25-10.4,31.09-14.3,30.49-12.35,25.29-24.69,4.86-21.1,20.45-22.81"/><line class="cls-2" x1="1710.55" y1="219.11" x2="1967.55" y2="219.11"/><polyline class="cls-2" points="1728.55 259.11 1986.99 259.11 2005.05 258.83"/><path class="cls-2" d="M1897.7,326.78s2,3-.53,8.2,20.06,49.38,20.06,49.38,3.4,13.65,26.14,10.4,35.74-4.2,46.13.5,24-5.7,24-5.7L2028,398,2159,427.61s20.36,6.16,36.94,9.47,28.18-2.13,42.14,12.55S2275,473.07,2275,473.07l26.1,12"/><path class="cls-2" d="M1961.07,434s65.32-31.74,70.62-42.33,15.89-20.43,19.17-39.6,16.81-65.44,16.81-65.44"/><path class="cls-8" d="M1918.31,539.58s6.19-54.37,12.5-69.5,9.83-26.11,9.83-26.11a63.06,63.06,0,0,0-23.22-10c-13.29-2.57-36.17,24-36.17,24s-42.08,40.6-58.32,57.58a144.93,144.93,0,0,1-32.75,25.74"/><path class="cls-2" d="M1925.26,557.84s13.73-16,31.21-16.56,37.73-5.68,44.87-12.83,29-21,24.22-30.18-17.08-33-17.08-33-7.15-6.35,1.19-11.12-4.82-15.49-4.82-15.49-3.23-4.37,0-10.32,0-17.45,0-17.45"/><path class="cls-2" d="M2111.92,417L2105,438.71l6.93,6.35L2105,478.42s-13.5-10.32-16.28-13.9-4-5.56-7.55-4.77-12.71-2-17.08-6.35-10.72-6-24.22-9.13-7.94-7.94-17.94-19.86-15.74-5.94-15.74-5.94"/><path class="cls-2" d="M2136.94,539.39s-29.57-47.58-30.76-54.28l-1.19-6.7"/><path class="cls-2" d="M2037.25,673.95l-19.1-13.22s-5.41-8.94-5.41-12.71-13.88-28-19.06-29.42-29.89-19.77-36.95-28.71-25.54-37.71-25.54-37.71L1918.85,535"/><polyline class="cls-2" points="2023.41 687.04 2008.27 669.2 2010.22 641.49"/><line class="cls-2" x1="2128.96" y1="632.6" x2="2101.07" y2="614.92"/><line class="cls-2" x1="2156.39" y1="528.31" x2="2173.42" y2="557.84"/><line class="cls-2" x1="2201.05" y1="553.61" x2="2201.05" y2="502.61"/><path class="cls-2" d="M2219.49,490.62a58,58,0,0,0,6.88,11.51c4.81,6.43,22.46,32.87,22.46,32.87"/><path class="cls-2" d="M2232.44,684.37s-5.27-4.53-4.46-14.56,2.75-13.24-2.64-14,0-11.23,0-11.23,5-1-4.58-11.94-9.63-31.78-9.63-31.78,0.05-2.41,10.66-20.46S2252,528,2252,528s8.42-16.36,22.46-19.11,40.11-10.51,40.11-10.51,14-3.4,22.46-10.86l2.92-3.18"/><path class="cls-2" d="M2330.32,485.11s10,11.82,24.81,7.8,26.47-4,39.71-6,60.17-1.79,60.17-1.79"/><path class="cls-2" d="M2250.81,682.54s-5.64-5.9,0-19.94,40.94-115.93,40.94-115.93L2248.83,535"/><path class="cls-2" d="M2214.78,621.92s7.12,0.56,10.56,4.58,14.67,4.49,15.88-4.58,2.2-30.32,12.53-33.13,30.9-11.63,21.82-26.07S2260,544.31,2252,543.07s-34.5,3.6-34.5,3.6"/><path class="cls-2" d="M2258.55,641.49s-14.51-10.24-19.13-15.23"/><path class="cls-2" d="M2286,675.61v60.74s-14,10.88-14,19.71-0.1,58.62,4.06,66.44"/><path class="cls-2" d="M2281.45,819.54a83,83,0,0,1,7.1-9.73c5.21-6.42,6.82-9.23,6.82-14s50.54-57,59.77-59.77,26.47-12.59,30.89-9.1,2.41,5.89,14,5.49,59.37-5.49,59.37-5.49L2505.56,708l75-36.14,72.61-37.94,66.59-33.06s16-.83,14-16.46,12.44-21.65,12.44-21.65,5.21,0.8,6.42-3.61l1.2-4.41"/><line class="cls-2" x1="2289.05" y1="2110.61" x2="2289.05" y2="2018.61"/><path class="cls-2" d="M2342,2105.61V1876.42s-3-22.46-1.83-31.28,16.09-47.24,16.09-47.24,3.23-12.94-4.39-34.79-10-25.07,1.21-36.7,7.63-18.51,7.63-18.51,1.61-12.38,4-22.41,14.29-42.92,9-52.95-11.76-38.11-8.95-59,6.42-54.15,6.42-54.15l8.83-76.62,10.43-81.43s9.23-19.25,9.23-27.28-4-15.64,0-44.12,8.18-44.5,1.75-49.86"/><path class="cls-2" d="M2396,2110.61V1959.24s6.81-21.84,24.86-49.92,55.56-89.45,55.56-89.45l34.4-55,106.65-174.08s44.1-30.5,52.52-42.53a61.36,61.36,0,0,0,11.22-36.5c-0.4-10.83,10-28.48,10-28.48l42.12-85s6-6.82,22.46-11.23,17.25-15.64,17.25-15.64l32.89-37.71,30.49-57s10-11.48,11.23-30.61,0.39-26,.39-26"/><path class="cls-2" d="M2779,1541.1s13-8.85,13.8-20.08,12-34.5,18.85-44.53,27.68-40.11,34.5-53.75l52.22-104.43"/><path class="cls-2" d="M2795.71,1345.49s14.31,7.85,22.73,18.28,43.8,26.72,43.8,26.72"/><line class="cls-2" x1="2555.05" y1="2113.61" x2="2555.05" y2="1886.61"/><line class="cls-2" x1="2606.47" y1="2105.47" x2="2606.44" y2="1800.13"/><polyline class="cls-2" points="2649.49 2104.04 2661.05 2081.58 2661.05 1810.61"/><polyline class="cls-2" points="2447.84 2115.63 2450.17 2000 2441.33 1949.93 2576.23 1725.72 2579.02 1707.89 2605.91 1668.76"/><polyline class="cls-2" points="2463.66 1946.21 2499.94 1892.2 2527.39 1852.71 2606.47 1728.05 2610.19 1707.89 2628.9 1678.22"/><line class="cls-2" x1="2562.55" y1="1872.6" x2="2476.28" y2="1819.87"/><polyline class="cls-2" points="2359.05 1718.04 2385.35 1721.09 2525.19 1810.44 2548.18 1819.71 2582.64 1839.11 2659.9 1839.11 2688.74 1826.99"/><path class="cls-2" d="M2342.21,1876.55l163.23,92.25s12.74,15,21.83,12.36,27.17-7.05,27.17-7.05h106.11"/><line class="cls-2" x1="2417.61" y1="1853.12" x2="2554.43" y2="1636.88"/><polyline class="cls-2" points="2386.23 1833.53 2399.91 1800.13 2516.26 1613.25"/><path class="cls-2" d="M2374.44,1647.53l62.5-59,39.33-84.66,47.62-92.06s20-13.94,22.38-21.27,3.27-56.06,13.57-76.86,14.2-26.64,12.9-50,9.1-67.58,9.1-71.48-1.3-10.31-14.3-20.42-21.55-26.36-10.45-34.16,31.25-18.19,31.25-33.14-13-52.76-13-52.76a147.6,147.6,0,0,0,7.15-27.81c2.6-16.25-2.6-49.39,5.85-78.63s30.43-53.28,33.41-71.48,0-89.52,0-89.52l-0.19-133.81-50.12-87.28L2549.7,535l-32-56.59s-7.91-5-8.57-8.88,1.48-26-6.41-29.89-32.08-10.6-32.08-10.6"/><line class="cls-2" x1="2458.05" y1="543.61" x2="2458.05" y2="80.61"/><path class="cls-9" d="M2250.68,1636.88l-64.7-56.8s-34.53-30.66-41.24-46.76-11.36-27.52-10.07-37.62,3.57-30.89,1.95-46.8-2.17-57.29-2.17-57.29"/><path class="cls-9" d="M2125.45,1390.5l-2.79-144.38s0.65-9.58-3.57-14.45-13.64-28.25-15.59-32.8-4.87-11.36-9.09-14.61-6.17-22.88-6.17-22.88"/><line class="cls-9" x1="1969.55" y1="1244.11" x2="2123.55" y2="1244.11"/><line class="cls-9" x1="1969.01" y1="1251.48" x2="1983.69" y2="1244.27"/><polyline class="cls-9" points="1998.55 1309.11 2124.16 1309.11 2201.24 1317.14 2255.83 1357.7"/><path class="cls-9" d="M2122.66,1246.12s30.52,18.06,52.28,25.35,199.5,80.67,199.5,80.67a199.24,199.24,0,0,0,15,16.63c8.53,8.37,34.83,6.1,34.83,6.1s19.16,6.17,54.23,20.13,58.45,20.46,65.27,20.13"/><line class="cls-9" x1="2086.91" y1="1577.29" x2="2242.22" y2="1598.56"/><polyline class="cls-9" points="2106.91 1777.08 2149.86 1836.53 2168.76 1842.63 2218.13 1886.52 2285.06 1907.95"/><line class="cls-9" x1="2123.43" y1="1941.96" x2="2201.39" y2="1970.58"/><path class="cls-2" d="M2094.39,1184.58s7.71-10,15.48-10,23.27-39.08,23.27-39.08L2190.32,1022s1.28-8.87,15-8.87H2436s20.68,1.15,30.39,10.87,11.3,11.71,11.3,11.71"/><line class="cls-2" x1="2313.55" y1="985.11" x2="2336.55" y2="985.11"/><path class="cls-2" d="M2220.55,935.11h11s4.78-10.5,8.61-4.11-2.81,12.24,5.11,15.82-3.32,8.42-2,15.07,1.8,50.75,1.8,50.75v56"/><path class="cls-2" d="M1870.39,851.39l20.36,17.54s15.51,13,25,13.25,27.7,6.39,27.7,6.39,39.51,14.12,56.75,24.58,23.82,9.67,23.82,9.67l104.88,56.36,68,35,2.13,146.72v11.74"/><line class="cls-2" x1="2194.77" y1="1131.96" x2="2172.18" y2="1171.71"/><line class="cls-2" x1="2218.05" y1="1171.61" x2="2218.05" y2="1134.61"/><polyline class="cls-2" points="2125.37 1153.04 2083.34 1129.97 2032.21 1101.89"/><line class="cls-2" x1="2108.02" y1="1085.58" x2="2083.34" y2="1129.97"/><line class="cls-2" x1="2120.86" y1="1126.56" x2="2109.54" y2="1144.35"/><polyline class="cls-2" points="2762.05 2099.61 2762.05 2009.61 2768.05 1992.37 2768.05 1797.61 2782.45 1772.64"/><polyline class="cls-2" points="2819.05 1785.61 2819.05 1700.61 2845.15 1645.25 2866.42 1584.34 2865.72 1535.92"/><polyline class="cls-2" points="2614.93 1493.76 2628.82 1505.07 2699.07 1596.9 2787.12 1668.8 2928.79 1739.11 3072.55 1739.11 3297.66 1919.71"/><line class="cls-2" x1="3036.05" y1="2110.61" x2="3036.05" y2="2028.61"/><polyline class="cls-2" points="3086.05 2106.61 3086.05 1919.61 3086.05 1680.61 3171.05 1580.57 3171.05 1396.61"/><line class="cls-2" x1="3008.56" y1="1435.92" x2="3171.05" y2="1437.85"/><polyline class="cls-2" points="2937.49 1543 2952.15 1520.91 2959.24 1495.7 3023 1419.48"/><path class="cls-2" d="M3012.38,1246.12s11.65-8.51,23.74,0c0,0-2.42,4.15-7.25,28.33s7.25,43.87,7.25,43.87l-2.42,4-123.76,149.87-9.27-3.59"/><path class="cls-2" d="M3481.37,1471.21l-18.85-12.28s5.8-16.73-6.77-30.75-20.3-30-13.54-34.81,25.14-18.37,26.59-36.74,1.45-45,12.57-56.08,18.37-23.69,14-33.84,9.18-37.68,9.18-37.68l27.57-53.69,39.64-45.44,17-21.14"/><path class="cls-2" d="M3221.7,1858.77l112.89-177.19,26.89-48.42s12-15,4.57-31.91-9.41-35.78,8.48-42.06,39.16-17.4,48.83-30,23.69-16.92,36.26-29,27.9-36.26,27.9-36.26,5-8.22,30.59-12.57,35.29-7.74,55.11-3.38,28,0.48,38.19-7.74,69.13-40.13,69.13-40.13,27.56-27.07,52.7-26.59,85.57,8.22,85.57,8.22"/><path class="cls-2" d="M3586.77,1753s-3.88-67.1,12.56-70,24.17-36.74,24.17-36.74,6.28-21,3.38-30.06-4.35-20.89-1.93-28,4.35-14.41-2.42-22.63-36.16-42.54-36.16-42.54-11.9-23.69-18.33-28.52-39.3-45.44-33.5-58.5,26.59-55.6,26.59-74.93l-23.69-7.05s-17.89-.68-29.49-12.25-23.21-4.38-23.21-4.38l-18.85,4.38s-25.14-2.45-28.52,6.25-13.05,3.87-13.05,3.87-17.89-7.25-27.56,2.13-22.24-3.58-22.24-3.58-11.6-7.25-18.37,3.58-8.7,15.27-18.37,0-15-4.55-20.3,3.33-9.67-1.59-26.11-3.33-11.12-1.65-12.09,20.59-8.22,1-27.07,2.9-14,14-19.34,23.21-25.33-3.52-25.33-3.52H3077.69l-43.92-74.43-51.17-43.29s-17.88-15.41-48-25.71-113.25-41.75-113.25-41.75-16.91-7.37-30.15-10.94S2654,1166.11,2654,1166.11l-31.81-8.39s-11.58-5.88-18.2-6.25-11.4,5.15-19.12,5.15-21.33-3.31-30.15-10.66-13.6-8.82-30.15-12.5-50.37-31.73-50.37-31.73l-39.33-28.47-11.41-8.21"/><path class="cls-2" d="M3618.92,1435.16s-40.86-40.81-34.58-64.5,31.91-76.87,31.91-76.87l9.44-20.15,13.71-27.52,19.91-50"/><path class="cls-2" d="M3704.73,1382.2l-19-28.27a47.39,47.39,0,0,0-24-10.62c-14.91-2.13-74-4.26-83.06-9.58l-10.34-4.36"/><path class="cls-2" d="M3561.13,1361l8.45-37.22,18.09-63.94,9.13-29.22s16.83-41.86,23-54.86,16.28-27.22,12.86-38.71-7.24-22.85.69-29.55,42.68-44.6,42.68-44.6"/><path class="cls-2" d="M3171,1503.82l30.84,2,108.41,74s11.45,4.91,14.32,2,13.09-3.68,18.82,3.27,19.11,6.46,19.11,6.46"/><path class="cls-2" d="M3066.72,1919.71s-15.65-1.51,57.48-22.55,318-88.83,318-88.83,8.18-3.51,23.38,0,204.54,1.75,204.54,1.75"/><path class="cls-2" d="M2866,2130.61v-149s6-8.82,7.14-19-1.47-42.71-1.47-42.71"/><path class="cls-2" d="M2768,1972.15s63.86-6.59,88,0,65.2,31.5,65.2,31.5,5.1-.82,5.85,25.23,0,98.72,0,98.72"/><path class="cls-2" d="M2866,2028.61l32.92-34s7-7,8-11.81,8.19-14.48,8.19-14.48,13.72-15.43,14.29-29.15,0-270.75,0-270.75l13.15-88.22-3.43-33.15-10.29-21.53-9.53-15.81-4.57-17-4.76-8.57-0.09-12"/><path class="cls-2" d="M3004.15,1575.93l2.43-42.83s7.35-13.72,3.72-22.6-33.56-35.73-33.56-35.73l-39.25-36"/><path class="cls-2" d="M2873.55,1787.11h163l49.5-8.54s11.53,0.79,29.08-5.3,89-42.33,89-42.33l46.32-24.21s22.35-16.07,31.81-16.07,33.18-17.81,33.18-17.81"/><path class="cls-2" d="M3036,1919.61v-184s2.06-2.11-4-13.21-10.45-23.14,4.17-33.45S3144,1562.76,3144,1562.76V1437.61"/><line class="cls-2" x1="3196.05" y1="2103.61" x2="3196.05" y2="1837.61"/><path class="cls-2" d="M3164.33,1920s-16.82-26.29-27.37-30.45-20.4-9.68-41.82-28.22-42.46-38.22-42.46-38.22h-17.14"/><path class="cls-2" d="M3141,1920.61v107l91.95,58.51s7.56,7.17,10.35,16.32"/><path class="cls-2" d="M3253.14,2040.15s15.72-16.23,4.1-54.71-10.38-33.29-4.1-49.31"/><path class="cls-2" d="M3346,2105.07s-27.69-10.18-36.4-35.54-12-50-11.72-66.71,0.15-137.19.15-137.19v-68s3.55-28.51-3-53.94"/><polyline class="cls-2" points="2472.38 1175.04 2485.02 1127.14 2493.05 1116.31 2493.05 1066.61"/><path class="cls-2" d="M2608.57,1209.74l21.18-77.75s4.78-6.51-4.41-11.16-11.4-4.87-12.87-19.1-3.9-36.68-3.9-36.68"/><path class="cls-2" d="M2927.21,1082.71l29.05,17.47,7.72,3.49s36-6.62,58.83-14,51.84-22.06,51.84-22.06,18.89-18.38,37.57-20.59,11.86,3.8,23.83-3.68"/><line class="cls-2" x1="3180.08" y1="1707.81" x2="3274.27" y2="1650.78"/><path class="cls-2" d="M3156.16,1688.06c4.09-2.17,87.19-58.22,87.19-58.22"/><path class="cls-2" d="M3078.31,1551.59l12.72,26.24,159.3,128.89,49.34,29.57,131.65,75,30.1,18.28s5.22,0.93,15,17.23,48.9,16.27,48.9,16.27h281.22"/><path class="cls-2" d="M3620,1758.61v212s46.67,54.27,15.41,73.17-65.15,23.31-46.9,62.83"/><path class="cls-2" d="M3801.86,1968.63s-22.82-18.07-22.82-41.54V1729.61s0.13-26.78,22.82-35.9"/><path class="cls-2" d="M3627.65,1634.38s23.49,7.82,28.06-11.08,11.08-35.2,33.25-21.51,29.34,5.87,33.9-2,16.95-14.34,24.12.65,22.82,10.43,24.12.65-5-13,8-16.95,31.5,17.6,31.5,17.6"/><line class="cls-2" x1="3461.05" y1="1738.61" x2="3461.05" y2="1920.61"/><path class="cls-2" d="M3298.16,1980.14s14.06,2.73,27.1-3.13,50.78-5.9,50.78-5.9h144.51"/><path class="cls-2" d="M3361,2129.18s6.52-12.3,0-29.62-30.64-29.48-26.08-41.65,18.25-14.78,17.6-24.56-2.24-13.66-3.4-21.82c0,0-.39-6.3-3.15-9.19s-1.25-29.53-1.25-29.53"/><path class="cls-2" d="M3775.46,327.12l-1.71,344.1s-4.79,62.63-5.13,79.06-5.13,14.37-7.53,24.3S3749.45,805,3749.45,805l-127,143.06s-84.88,98.23-89.33,102.33-14.37,9.93-14.37,9.93l-59.21,72.56-16.79,33.56,95.41,43.43,155,55.41,40.24,26.38s38.26,23.75,67.28,17.81"/><path class="cls-2" d="M2934.57,1253.69s7.17,0.73,17.44-23.91,30.8-20.88,30.8-20.88,25.33,7.46,34.23-.21,16.91-9.13,16.91-9.13"/><path class="cls-2" d="M3052.12,1078.22L3037.57,1046s-9.24-11,3.76-18.82,39.36-31.49,39.36-31.49l60.92-59.89s13.35-9.93,13.35-22.59-2.4-132.79-2.4-132.79l18.14-51.34,14.72-45.18"/><path class="cls-2" d="M3073.16,1016.71l-7.36-8.17s-6.33-3.62-6.67-23.47,0-138,0-138"/><path class="cls-2" d="M3114,962.61v-115s-2.58-15.88,0-26.83,0-36.28,0-36.28-2-11.64,1.15-15.06,3.83-7.53,4.51-11.64,11-29.43,23.62-37,31.49-28.41,31.49-28.41,16.77-13,22.25-16.77,13.35-40.39,13.35-40.39,3.42-12.66-4.11-20.54S3196,578.81,3196,578.81l-8.21-46.89-2.4-11L3184,451.15l-1.71-74.61-4.11-274.14"/><line class="cls-2" x1="3046.47" y1="200.97" x2="3050.92" y2="104.79"/><line class="cls-2" x1="2959.9" y1="347.35" x2="2956.8" y2="102.4"/><line class="cls-2" x1="3066.55" y1="1463.11" x2="3170.55" y2="1463.11"/><polyline class="cls-2" points="1955.05 1120.61 1955.05 1054.61 1955.05 1028.61"/><line class="cls-2" x1="2048.07" y1="1072.22" x2="2027.43" y2="1060.43"/><line class="cls-2" x1="1954.55" y1="1094.11" x2="1970.55" y2="1094.11"/><line class="cls-2" x1="1954.55" y1="1115.11" x2="1970.55" y2="1115.11"/><path class="cls-2" d="M2244.85,899.19l39.3,1.84a218.49,218.49,0,0,1,0,24.1c-0.77,11.83-2.56,14.75-4.09,15s-6.14,11.5-6.14,11.5l1.28,61"/><polyline class="cls-2" points="2320.55 885.11 2316.55 885.11 2291.81 901.57 2284.15 901.03"/><path class="cls-2" d="M2469.17,1041.91s-1.34-10.45-12.27-9.08-7.38-.55-11.48,2.73-27,4.65-27,4.65"/><path class="cls-2" d="M2421.18,827.59s8.66,5.19,14.4,18.3S2458,856.55,2458,856.55s11.48-.27,19.68,7.38S2496,868.5,2496,868.5"/><path class="cls-2" d="M2489.77,877.53s-6.36-17.15-11.28-25.35-12-27.06-15.85-36.9l-3.83-9.84"/><line class="cls-2" x1="2448.55" y1="812.11" x2="2461.55" y2="812.11"/><path class="cls-2" d="M2449.57,808.93s-2.87-10-3.14-17.65S2446.3,721,2446.3,721L2446,637.37V582.61s1-27.78-3.63-42.54-4.37-54.91-4.37-54.91V433.31s0-6.66-1.91-8.57-1.91-27.06-1.91-27.06"/><line class="cls-2" x1="2409.55" y1="398.11" x2="2457.55" y2="398.11"/><path class="cls-2" d="M2392.6,433.07s-1.29-11.88,5.54-18.16,13.94-8.75,9.57-32-3.55-35-3.55-35l-1.29-36.11,494.24-.94,18,9.22h30.77s27.11,0.38,28,15.46,4.31,57.62,4.31,57.62L3000.7,529,3021.94,653l8.31,16.94-16,42.48L3013.93,777"/><polyline class="cls-2" points="2429.95 398.02 2428.09 345.17 2424.05 339.75 2424.05 311.61"/><path class="cls-2" d="M2426.91,273.4s6.1,15.57,6.5,38.24,0.63,21.54.63,21.54v6.42l-6,5.56"/><polyline class="cls-2" points="2402.87 311.83 2399.81 256.53 2391.63 231.61 2386.07 216.44 2397.63 188.87 2428.74 163.76 2449.84 149.21 2711.59 147.94 2717.46 144.85 2841.09 143.03 2858.19 147.94 2878.75 148.49"/><line class="cls-2" x1="2770.05" y1="117.61" x2="2770.05" y2="208.61"/><path class="cls-2" d="M3244,1071.39l123.35-48.15s6.6-2,17.15-15.83,11.87-23.09,35-19.13l5.9,2.21,7.55-11.68"/><path class="cls-2" d="M3143.86,1152.1s7.68-1.67,9.27-6.44,6.74-8.63,14.7-13.09,15-16.73,15.62-19,6.71-14.5,24.53-14.5h34.56s5.86-2.41,18,2.61,29.6,6.74,33.74-3.19"/><path class="cls-2" d="M3281.5,1095.6s8.27-14.32,21.64-14,17.5,1,19.1,4.46"/><polyline class="cls-2" points="3141.88 1125.32 3147.83 1122.98 3162.79 1101.72"/><polyline class="cls-2" points="3089.22 1210.44 3089.22 1210.44 3053 1177.09"/><path class="cls-2" d="M3384.49,1007.41L3554.25,1150l24.29,15.29s6.88,19.94,20.65,16.38,17.73,0.43,17.73.43"/><path class="cls-2" d="M3632.65,1137a15.43,15.43,0,0,1,9.73,5.94c3.81,5.22,13.3,10.21,13.3,10.21"/><path class="cls-2" d="M3733.15,1217.57s-10.31,3.76-23.83-5.64-33.3-27-33.3-27l-22.24-21.36-2.37-2.61,7.89-18L3430,942.66"/><line class="cls-2" x1="3413.68" y1="962.79" x2="3476.26" y2="884.99"/><polyline class="cls-2" points="3440.28 984.97 3459.37 968.33 3677.04 710.32 3680.12 653.35"/><polyline class="cls-2" points="3659.3 1142.97 3671.34 1115.67 3682.73 973.04 3805.91 838.24"/><line class="cls-2" x1="3680.12" y1="939.34" x2="3811.25" y2="791.48"/><path class="cls-2" d="M3792.62,863.39L3772,842.27a72.51,72.51,0,0,0-13.29-5.7c-8.07-2.61-24.92-20.41-24.92-20.41S3733,811.66,3725,806s-20.17-16.85-20.17-16.85-8.78-10.44-8.07-19.46l0.71-9"/><line class="cls-2" x1="3763.55" y1="885.11" x2="3803.55" y2="885.11"/><path class="cls-2" d="M3796.55,914.11h-35s-7,.61-14.33-11.64a56.49,56.49,0,0,0-18-18.47L3544.61,721.71l-5.7-24.68s-91.88,24.08-101.58,27.29"/><path class="cls-2" d="M3698.81,955.44L3437.34,724.32s-72.48,24.71-96.88,24.93"/><path class="cls-2" d="M3113.57,780.57l39-.17s12.69-.48,22.47-4.55,165.42-26.6,165.42-26.6l-27.72,67.42-11.64,31.49-11,27-69.48,67.42-52.71,53s-22.59,21.56-29.09,31.49,2.4,37.65,5.67,53,0,30.42,0,30.42-4,6.89-2.25,19.89,2.05,23.27,1.71,29.23-19.51,26.9-29.43,31.69-22.93,15.4-31.49,25.67-19.85,20.19-31.49,20.88-15.49,8.13-15.49,8.13"/><path class="cls-2" d="M3814.69,672.11l-165.89-3.8s-6.17-1.9-22.55,1.9S3538.91,697,3538.91,697s-6.13-17.49-5.61-63.31"/><polyline class="cls-2" points="3397.59 736.84 3386.78 787.21 3426.89 821.15 3501.18 734.29 3544.61 721.71"/><path class="cls-2" d="M3357.27,919.43l33.07-39.9s5.93-10.68,19.22,0,262.6,225.73,262.6,225.73,101-2.88,118.54-1"/><path class="cls-2" d="M3445,860.31l62.72,50.75a47,47,0,0,0,14.61,4.78c7.59,0.95,23.5,15,23.5,15L3654,1028.57s7.12,6.65,29,8.78,124.83,8.54,124.83,8.54"/><line class="cls-2" x1="3682.73" y1="973.04" x2="3802.58" y2="984.97"/><line class="cls-2" x1="3622.47" y1="948.1" x2="3680.38" y2="1002.45"/><polyline class="cls-2" points="3598.97 1090.27 3654.02 1028.57 3678.53 1000.71"/><line class="cls-2" x1="3550.86" y1="1000.71" x2="3581.56" y2="963.11"/><line class="cls-2" x1="3713.55" y1="939.11" x2="3796.55" y2="939.11"/><polyline class="cls-2" points="3584.32 526.47 3586.93 694.11 3420.18 888.47"/><path class="cls-2" d="M3800.71,649.86l-88.31-3.12s-38,7.29-47.37,10.41-14.75,1.5-16.22,11.16"/><polyline class="cls-2" points="3727.53 647.27 3717.39 779.18 3511.89 1014.21"/><polyline class="cls-2" points="3612.01 526.51 3614.74 686.05 3749.45 805.11 3812.55 805.11"/><line class="cls-2" x1="3769.55" y1="727.11" x2="3811.55" y2="727.11"/><path class="cls-2" d="M3677,710.32s7.2-11.87,38.13-10.4,81.38-.13,81.38-0.13"/><line class="cls-2" x1="3720.05" y1="646.61" x2="3720.05" y2="522.61"/><line class="cls-2" x1="3798.55" y1="603.11" x2="3719.55" y2="603.11"/><path class="cls-2" d="M2925.63,668l230.89-40.26L3283.67,641s44.18,30.93,62.84,27,34.85-15,38.29-20.74,5.89-13.48,65.78-13.55,269-4,269-4"/><path class="cls-2" d="M3719.79,576.4L3520,579.25s-14-1.08-14,12.67v41.69"/><path class="cls-2" d="M3465.7,576.4s19.37-7.47,59.13-49.89c0,0,4.13-13,19.78-13a30.13,30.13,0,0,0,25.16-8.64l5.21-5"/><line class="cls-2" x1="3774.55" y1="469.11" x2="3798.55" y2="469.11"/><path class="cls-2" d="M2638.87,1062.88l102.66-60.43a64,64,0,0,0,23.54-27.17c8.29-18.39,6.37-44.62,34.42-46.16s73.3,0,73.3,0"/><path class="cls-2" d="M2607.22,905.12l157.84-3s-3.82,0-1.91,27,19.12,34,19.12,34,38,19.9,63.1,32.54,38.71,26.08,38.71,26.08l16.58,30.46,26.55,30.52s-10.66,11.4-11.77,20.59-6.25,9.19-6.25,9.19l-26.47,8.33-18,2.7s-11,9.56-16.32,10.3-13.09,6.62-16.4,16-11.4,16.3-11.4,16.3l-54,1.54-33.61-7.9L2629.76,1132"/><polyline class="cls-2" points="2819.7 914.18 2765.05 902.07 2765.05 407.61 2758.97 400.49"/><polyline class="cls-2" points="2711.05 902.61 2711.05 695.61 2714.72 687.12 2712.88 604.24"/><path class="cls-2" d="M2723.47,415.49s-9.25-27.44,9.87-42.56A55.56,55.56,0,0,0,2754,336.74V227.61s-8.09-24.79,42.57-39.09l1.72,20.32-3.42,12.77s-0.68,52.94,0,74.84,12.66,58.18,18.48,71.53,6.86,36.62,6.86,36.62l-5.83,8.56S2820.58,971,2820.24,983s-6.5,16.09-12,26.7-6.16,26-4.11,35.94,14.44,14.11,14.44,14.11"/><path class="cls-2" d="M2286,708s20.83,5.45,34.5-5.39,18.13-28.68,27.05-8.29,7.54,41.71,7.54,41.71"/><polyline class="cls-2" points="2386.22 727.4 2434.22 676.11 2446.55 676.11"/><path class="cls-2" d="M2371.85,640.5s9,24.37,30,16.71,14.61-13.35,35-16.53,20.58-3.15,20.58-3.15L2478,632.6v-90"/><path class="cls-2" d="M2402.42,615s42.73-13.12,56,0,14.23,23.27,40.25,22.63,51.76,0,51.76,0l127.9-70.88s4.84-5.67,40.16-8.82,77.76-8.8,77.76-8.8h127.25l29.54-16.61,98.79-14.12L3162,515.83l11.58,4.46,334.76-55.81"/><line class="cls-2" x1="3058.98" y1="543.95" x2="3173.61" y2="520.3"/><path class="cls-2" d="M3045,777.61V749.25L3063,699.78l-3.89-13.15,14.28-44.38-39-237.32,5.39-99.43s5.9-15.93,14.1-24.86,12-28.68,12.67-36.33-0.65-42.64-.65-42.64"/><polyline class="cls-2" points="3190.45 973.04 3148.55 929.11 2979.55 929.11"/><path class="cls-2" d="M3185,967.61v-120s-0.59-30.12,15.66-45.19,29.63-28.17,39.19-53.17,82.94-202.19,82.94-202.19L3364,454.65v-98l3-16v-144"/><line class="cls-2" x1="3218.05" y1="349.61" x2="3218.05" y2="196.61"/><polyline class="cls-2" points="2814.6 429.8 2866.91 421.51 2951.81 397.92 3287.55 337.11 3574.55 337.11 3577.8 240.63"/><path class="cls-2" d="M2873,233.61v70s22.68,22.29,18.86,38.86-5.63,35.45-5,73.49"/><polyline class="cls-2" points="2764.85 476.13 2949.8 473.04 2963.46 479.91 3045.05 464.11 3093.55 464.11 3124.54 464.48 3137.28 472.01 3337.41 468.03 3380.74 485.76"/><polyline class="cls-2" points="3364.04 454.54 3373.73 447.58 3403.05 362.04 3403.05 311.61"/><polyline class="cls-2" points="3457.05 337.61 3457.05 196.61 2839.64 204.61"/><line class="cls-2" x1="2869.56" y1="224.37" x2="2882.69" y2="70.96"/><path class="cls-2" d="M2925,204.61s-1.28-10.71-14.66-16.09-27.69-32.13-27.69-32.13l-3.94-7.9"/><polyline class="cls-2" points="3184.05 347.35 3112.9 349.61 3092.13 342.59 3143.88 279.11"/><polyline class="cls-2" points="3135.58 364.64 3138.09 527.63 3156.52 627.75"/><polyline class="cls-2" points="2728.46 597.87 2925.97 692.41 2964.56 705.13 2976.67 712.47"/><polyline class="cls-2" points="2873.05 1012.61 2873.05 662.61 2863.05 643.94 2863.05 549.61"/><polyline class="cls-2" points="3423.35 478.66 3524.83 526.51 3806.75 522.61"/><line class="cls-2" x1="3518.19" y1="451.98" x2="3600.82" y2="525.46"/><path class="cls-2" d="M3477.07,469.7l-8.3-29.8s39.22-13.93,39.6-29.68,3.41-188.62,3.41-188.62"/><polyline class="cls-2" points="2400.71 273.12 2557.09 277.47 2572.02 273.11 2610.55 273.11 2632.41 265.11 2924.55 265.11"/><line class="cls-2" x1="2682.05" y1="310.61" x2="2682.05" y2="96.61"/><line class="cls-2" x1="2632.05" y1="312.61" x2="2632.05" y2="67.61"/><line class="cls-2" x1="2565.05" y1="312.61" x2="2565.05" y2="92.61"/><path class="cls-2" d="M2423.55,209.11h272s11.1-10.08,25.69,0l116.44-.5"/><path class="cls-2" d="M2797,188.61v-46s-3.18-15.31,17.56-28.65"/><path class="cls-2" d="M1874.72,838.37s3.62,4.63,13.41,5.61,20.15,5.85,33.38,10.24,30.33,10.31,33.54,25.11,3.94,28,.71,38.16"/><polyline class="cls-2" points="1945.3 848.76 1934.72 843.02 1895.48 827.4 1883.05 822.77 1877.44 834.72"/><path class="cls-2" d="M1850.14,814.24s7.8-.68,10,5.27,5.33,8.14,1.93,9.85-10.14,1.85-10.14,1.85"/><path class="cls-2" d="M1909.65,820.58s-25-16.82-34.93-32.67-23.6-38-20.19-52.17,9-22.17,9-22.17,14.36-26.1,28.75-39.63,18.53-34.25,18.53-34.25"/><path class="cls-2" d="M1789.47,796s-9.05-26.08,13.62-50.46c0,0,13.16-39.18,30.47-41.53s20.43,5.45,20.43,5.45,0.71,2.86,7.57,7.52"/><path class="cls-2" d="M1817.23,818.08s18.63,23.57,27.62,37.7,91.64,95,91.64,95"/><polyline class="cls-2" points="2135.45 907.74 2078.72 880.64 2063.98 863.79 2059.3 855.76"/><line class="cls-2" x1="2082.59" y1="903.93" x2="2090.94" y2="886.48"/><line class="cls-2" x1="2139.05" y1="811.61" x2="2139.05" y2="767.61"/></svg>