<?xml version="1.0" encoding="utf-8"?>
<!-- Generator: Adobe Illustrator 16.0.0, SVG Export Plug-In . SVG Version: 6.00 Build 0)  -->
<!DOCTYPE svg PUBLIC "-//W3C//DTD SVG 1.1//EN" "http://www.w3.org/Graphics/SVG/1.1/DTD/svg11.dtd">
<svg version="1.1" id="Layer_1" xmlns="http://www.w3.org/2000/svg" xmlns:xlink="http://www.w3.org/1999/xlink" x="0px" y="0px"
	 width="142.219px" height="149.605px" viewBox="0 0 142.219 149.605" enable-background="new 0 0 142.219 149.605"
	 xml:space="preserve">
<path fill="#FFFFFF" d="M78.181,124.311c-0.922-1.872-0.923-4.003-0.025-6.339c-3.044-0.342-6.066-2.787-7.231-5.959
	c-1.212-3.3-0.19-6.722,2.792-9.463c-2.372-1.483-4.4-3.577-5.017-6.01c-0.655-2.582,0.062-6.444,6.898-10.384
	c-1.436-1.164-2.28-2.766-2.386-4.697c-0.162-2.96,1.541-5.717,3.953-6.624c-0.052-0.024-0.115-0.043-0.164-0.068
	c-2.676-1.402,3.399-10.374,4.75-13.75c3.384-8.461,7.25-32.5-11-34.75s-9.25,19-11.75,30.75s-18.75,24.5-18.75,24.5
	c-24.5-7.25-24.75,9.75-25.25,15c0,0-1.574,16.854,0.5,22.75c5.838,16.588,27.434,9.012,31.74,7.312
	c-1.963-0.632-7.595-3.252-8.861-12.745l0.992-0.133c1.434,10.759,8.637,12.062,8.71,12.073l-0.081,0.493
	c23.164,9.093,34.698,4.689,37.376,3.346C83.942,129.181,79.844,127.69,78.181,124.311z"/>
<path fill="#FFFFFF" d="M80.213,118.017c-0.915,2.191-0.968,4.161-0.136,5.853c1.784,3.623,6.987,4.898,7.04,4.911l-0.116,0.486
	c15.25,1,22.5-1.75,23.75-5.5s-2-6.25-2-6.25v0.5H80.213z"/>
<path fill="#FFFFFF" d="M78.907,75.095l0.111,0.5c-2.247,0.505-3.955,3.111-3.808,5.81c0.172,3.141,2.685,5.286,6.721,5.74
	c12.825,1.442,29.816,1.13,29.988,1.128l0.01,0.5c1.47-0.895,6.075-4.247,3.321-9.756C110.45,69.417,86.087,77.02,78.907,75.095z"/>
<path fill="#FFFFFF" d="M111.937,89.133l0.003,0.14c-0.052,0.001-1.663,0.03-4.242,0.03c-5.91,0-16.904-0.155-25.877-1.164
	c-1.692-0.19-3.147-0.655-4.32-1.351c-5.298,2.946-7.664,6.228-6.832,9.506c1.1,4.335,7.481,7.598,11.083,7.598
	c8.148,0,29.944-0.647,30.164-0.654l0.015,0.5c1.179-0.605,3.544-2.397,4.183-7.221C116.825,91.138,113.208,89.529,111.937,89.133z"
	/>
<path fill="#FFFFFF" d="M111.666,104.245c-2.569,0.075-22.253,0.646-29.915,0.646c-1.74,0-4.013-0.664-6.128-1.812
	c-3.888,3.396-3.406,6.831-2.76,8.589c1.102,2.999,4.182,5.349,7.013,5.349h28.875v0.5c0,0,3.5,0,4.5-6.25
	C114.015,106.498,112.451,104.789,111.666,104.245z"/>
</svg>
