<?xml version="1.0" encoding="utf-8"?>
<!-- Generator: Adobe Illustrator 16.0.0, SVG Export Plug-In . SVG Version: 6.00 Build 0)  -->
<!DOCTYPE svg PUBLIC "-//W3C//DTD SVG 1.1//EN" "http://www.w3.org/Graphics/SVG/1.1/DTD/svg11.dtd">
<svg version="1.1" id="Layer_1" xmlns="http://www.w3.org/2000/svg" xmlns:xlink="http://www.w3.org/1999/xlink" x="0px" y="0px"
	 width="216.996px" height="196.527px" viewBox="0 0 216.996 196.527" enable-background="new 0 0 216.996 196.527"
	 xml:space="preserve">
<path fill="#FFFFFF" d="M100.747,132.234c0.773-1.139,1.393-2.318,1.859-3.539c0.468-1.221,0.803-2.398,1.007-3.537
	c0.203-1.137,0.336-2.203,0.396-3.199c0.06-0.998,0.091-1.861,0.091-2.592h0.489v18.963H86.234H72.94h-6.097v-0.486h6.097V96.134
	h-6.097v-0.49h6.097h19.452v0.49h-6.158v41.709h1.707c1.138,0,2.297-0.072,3.476-0.215s2.327-0.416,3.447-0.824
	c1.116-0.404,2.173-0.973,3.169-1.705C99.028,134.365,99.934,133.412,100.747,132.234z"/>
<path fill="#FFFFFF" d="M145.81,138.33c-2.237,0-4.137-0.336-5.702-1.006s-2.928-1.615-4.086-2.836s-2.164-2.691-3.019-4.42
	c-0.854-1.729-1.707-3.648-2.562-5.764h-13.475l-3.172,11.16c-0.04,0.121-0.061,0.254-0.061,0.395c0,0.145,0,0.273,0,0.398
	c0,0.447,0.124,0.822,0.367,1.127s0.647,0.459,1.22,0.459h3.231v0.486h-12.744v-0.486h3.475c0.771,0,1.535-0.254,2.286-0.764
	c0.753-0.508,1.251-1.189,1.493-2.043l9.332-30.795c-0.447-0.77-0.969-1.635-1.556-2.59c-0.59-0.955-1.229-1.84-1.921-2.652
	c-0.693-0.812-1.403-1.494-2.134-2.043c-0.732-0.549-1.445-0.822-2.135-0.822v-0.49h11.036c1.505,0,2.837,0.275,3.995,0.824
	c1.159,0.549,2.174,1.242,3.048,2.072c0.874,0.836,1.617,1.76,2.227,2.775c0.609,1.018,1.098,1.973,1.464,2.865
	c0.609,1.465,1.27,3.07,1.981,4.818c0.71,1.748,1.463,3.566,2.255,5.457c0.795,1.891,1.597,3.793,2.409,5.703
	c0.813,1.91,1.587,3.74,2.317,5.486c1.747,4.146,3.536,8.375,5.366,12.684H145.81z M117.148,123.816h13.05l-7.439-18.537
	L117.148,123.816z"/>
<g>
	<path fill="#FFFFFF" d="M77.25,74.868v-6.121h1.681v15.084H77.25v-7.402h-7.722v7.402h-1.68V68.747h1.68v6.121H77.25z"/>
	<path fill="#FFFFFF" d="M87.248,68.747h7.821v1.561h-6.142v4.48h5.962v1.561h-5.962v5.922h6.142v1.561h-7.821V68.747z"/>
	<path fill="#FFFFFF" d="M104.809,82.27h4.16v1.561h-5.841V68.747h1.681V82.27z"/>
	<path fill="#FFFFFF" d="M117.508,82.27h4.161v1.561h-5.841V68.747h1.68V82.27z"/>
	<path fill="#FFFFFF" d="M143.491,76.309c0,4.34-3.561,7.781-7.861,7.781s-7.862-3.441-7.862-7.781c0-4.322,3.562-7.822,7.862-7.822
		S143.491,71.987,143.491,76.309z M129.448,76.288c0,3.402,2.761,6.242,6.182,6.242s6.181-2.84,6.181-6.242
		c0-3.42-2.72-6.24-6.181-6.24S129.448,72.868,129.448,76.288z"/>
</g>
<rect x="44.248" y="38.531" fill="none" stroke="#FFFFFF" stroke-miterlimit="10" width="128.5" height="128.5"/>
</svg>
