<?xml version="1.0" encoding="utf-8"?>
<!-- Generator: Adobe Illustrator 19.2.1, SVG Export Plug-In . SVG Version: 6.00 Build 0)  -->
<svg version="1.1" id="Layer_1" xmlns="http://www.w3.org/2000/svg" xmlns:xlink="http://www.w3.org/1999/xlink" x="0px" y="0px"
	 viewBox="0 0 663.2 663.2" style="enable-background:new 0 0 663.2 663.2;" xml:space="preserve">
<style type="text/css">
	.st0{fill:#FFFFFF;}
	.st1{fill:#FFFFFF;stroke:#000000;stroke-width:2;stroke-miterlimit:10;}
	.st2{fill:none;stroke:#000000;stroke-width:2;stroke-miterlimit:10;}
	.st3{fill:none;stroke:#000000;stroke-width:2;stroke-linecap:round;stroke-miterlimit:10;}
	.st4{fill:none;stroke:#000000;stroke-width:2;stroke-linecap:square;stroke-miterlimit:10;}
	.st5{stroke:#FFFFFF;stroke-linecap:round;stroke-miterlimit:10;}
	.st6{fill:none;stroke:#FFFFFF;stroke-width:2;stroke-linejoin:round;stroke-miterlimit:10;}
	.st7{fill:none;stroke:#000000;stroke-width:2;stroke-linejoin:round;stroke-miterlimit:10;}
	.st8{fill:#FFFFFF;stroke:#000000;stroke-width:2;stroke-linejoin:round;stroke-miterlimit:10;}
	.st9{fill:none;stroke:#000000;stroke-width:2;stroke-linecap:round;stroke-miterlimit:5;}
	.st10{fill:#191919;}
	.st11{fill:none;stroke:#FFFFFF;stroke-width:2;stroke-miterlimit:10;}
	.st12{fill:none;}
</style>
<path class="st0" d="M550.7,431.5c7.3,0,13.6,0,20.1,0c1.6,18.4-0.9,35.4-12.8,49.9c-17.4,21.1-42.9,28.3-68.7,19.5
	c-1.2-0.4-3-0.7-3.9-0.1c-13,8.1-26,16.4-39.4,24.9c3,7.1,6.3,14.9,9.6,22.7c11.6,26.9,23.2,53.9,34.6,80.9c1.4,3.4,3.2,4.5,6.8,4.5
	c30.9-0.2,61.9-0.1,92.8-0.1c5.8,0,10,2.8,11.7,7.8c1.8,5,0.8,9.6-3.2,13.1c-1.9,1.7-4.7,2.4-7.2,3.3c-1.2,0.4-2.6,0.1-3.9,0.1
	c-170.5,0-341,0-511.4,0c-2.4,0-5-0.1-7.3-0.8c-5.5-1.8-8.7-7.4-7.8-13.2c0.8-5.8,5.5-10,11.5-10.1c30.2-0.1,60.3-0.2,90.5,0
	c3.5,0,5.2-1,6.6-4.3c15.1-34.7,30.3-69.3,45.5-103.9c0.2-0.5,0.4-1,0.6-1.6c-0.9-0.5-1.8-1.1-2.6-1.6
	c-10.8-6.6-21.6-13.3-32.5-19.7c-1.5-0.9-3.9-1.5-5.5-1c-36.9,11.1-72.7-10.7-79.4-48.7c-0.6-3.3-0.7-6.7-0.8-10
	c-0.1-3.6,0-7.2,0-11.3c5.9,0,11.5,0,17.8,0c-1-1.7-1.5-2.7-2.1-3.6c-18-28.9-29.9-60.1-35.5-93.7c-0.3-2.1-1.1-3-3.3-3.5
	C41,324,22,300.2,22,269c0-3.2,0-6.5,0-10.2c17,0,33.8,0,50.9,0c5.6-44,21-83.7,46.5-119.9c-9.3-7.3-16.3-16.2-20.6-27.2
	c-4.3-10.9-4.4-22.2-4-34c1.6,0,3,0,4.4,0c26.1,0,52.3,0,78.4-0.1c1.8,0,3.9-0.5,5.4-1.5c26.9-18.6,56.2-31.8,88-39.4
	c0.7-0.2,1.4-0.4,1.5-0.4c-0.8-10.4-1.6-20.5-2.4-30.9c41.4,0,81.8,0,123.3,0c-0.8,10.4-1.5,20.4-2.3,30.8c7,2,14.7,4.1,22.3,6.6
	c23.7,7.6,45.6,18.8,66.2,32.7c2,1.3,4.7,2.1,7.1,2.2c26.7,0.2,53.3,0.1,80,0.1c1.4,0,2.8,0,4.4,0c2.6,25.7-4.7,46.9-26.1,62.4
	c23.8,34.3,38.9,71.9,44.9,113.3c17.2,0,34.1,0,50.9,0c5.1,38.3-18.6,66.4-50.7,72.4C584.6,363.4,571.8,398.4,550.7,431.5z
	 M194.3,633.3c90.6,0,180.7,0,271.2,0c-14.2-33.2-28.3-66-42.2-98.3c-12.4,3.4-24.4,6.6-36.3,10c-1.8,0.5-3.7,1.7-4.7,3.2
	c-24.8,36.1-76.8,36-101.6-0.2c-1-1.4-2.8-2.5-4.5-3c-11.1-3.4-22.3-6.5-33.5-9.7c-1.6-0.4-3.1-1-4.7-1.5
	C223.4,567,209,599.9,194.3,633.3z M440.4,381.3c0.5,0.6,0.8,1,1.1,1.4c15.6,15.7,31.3,31.3,47,46.9c1.1,1.1,3.1,1.8,4.7,1.8
	c8,0.2,16.1,0,24.1,0.1c2.8,0.1,4.5-0.9,6.1-3.1c16.3-22.7,28.3-47.5,35.7-74.4c2.6-9.5,4.4-19.3,6.7-29.1
	c-13.3-3.5-23.9-9.9-32.2-19.9c-1.7-2.1-3.5-2.6-6-2.6c-16.8,0.1-33.7,0-50.5,0c-1.3,0-2.5,0-4.2,0
	C470,332.1,459.2,358.2,440.4,381.3z M98.9,329.9c0,0.9-0.1,1.4,0,1.9c6.4,35.7,20.3,68.2,41.7,97.5c0.9,1.2,3,2,4.5,2
	c8,0.2,16,0,24.1,0.2c2.9,0.1,4.8-0.9,6.8-2.9c14.7-14.8,29.4-29.5,44.2-44.2c0.9-0.9,1.7-1.8,2.7-2.9c-18.8-23-29.7-49.2-32.6-78.4
	c-0.6-0.3-0.8-0.4-1.1-0.4c-17.3,0-34.7-0.1-52,0c-1,0-2.3,0.7-2.8,1.5C125.8,316.9,114,325.5,98.9,329.9z M143.9,277.9
	c15.7,0,30.9,0,46.4,0c2.7-29.8,13.8-56,32.3-78.8c-0.1-0.4-0.1-0.6-0.2-0.7c-16.2-16.2-32.3-32.5-48.5-48.6
	c-0.8-0.7-2.6-0.9-3.7-0.7c-8.3,1.8-16.7,2.4-25,0.7c-2.4-0.5-3.7,0.1-5.1,2.1c-10,13.9-18.4,28.7-25.2,44.4
	c-8.6,19.9-14.4,40.5-17.3,62.5c15.6,0,30.9,0,46.4,0C143.9,265.3,143.9,271.4,143.9,277.9z M422.8,180.8c15.4-15.5,30.7-30.7,46-46
	c0.1,0.1,0-0.1-0.2-0.3C455.3,121.6,449,106,449,87.5c0-1.2-1.3-3-2.5-3.7c-21.1-11.9-43.5-20.3-67.2-24.9c-1.2-0.2-3.1,0.3-4,1.1
	c-8.1,8-17.5,13.7-28.6,16.4c-2.3,0.6-3.1,1.5-3.1,3.9c0.1,21.7,0.1,43.5,0,65.2c0,2.5,0.9,3.3,3.3,3.6c21.6,2.1,41.5,9.1,59.8,20.6
	C412.4,173.3,417.6,177.2,422.8,180.8z M564.7,253.3c0.1-0.8,0.1-1.1,0.1-1.4c-6.1-36.7-19.9-70.2-41.9-100.3
	c-0.7-1-2.9-1.7-4.2-1.5c-8.2,1.2-16.3,0.7-24.2-1.6c-2.5-0.7-4-0.1-5.7,1.6c-15.3,15.4-30.7,30.8-46.1,46.2
	c-0.8,0.8-1.5,1.7-2.3,2.6c18.9,23.2,29.7,49.5,32.5,79c15.9,0,31.3,0,46.4,0c0-8.2,0-16.2,0-24.6
	C534.6,253.3,549.6,253.3,564.7,253.3z M240.5,181.2c11.2-9.2,23.5-16.7,36.9-22.4c13.4-5.6,27.5-8.7,41.9-10.3
	c0-24.1,0-47.7,0-71.3c-14.9-4.2-20.3-7.3-31.6-17.4c-0.8-0.8-2.5-1.1-3.7-0.9c-22.5,4.3-43.7,12.3-63.9,22.9
	c-2.5,1.3-3.4,2.9-3.4,5.7c0.3,14.1-3.4,27.1-12.1,38.5c-2.8,3.7-6.1,7-9.1,10.3C210.3,151.1,225.2,166,240.5,181.2z M270.6,518.8
	c0-6,0-11.1,0-16.7c16.4,0,32.4,0,48.6,0c0-23.8,0-47.1,0-69.9c-11.3-2.4-22.2-4.7-33.5-7.1c-12.5,28.5-25.1,57.2-37.9,86.4
	C255.4,513.9,262.6,516.2,270.6,518.8z M413.6,512.2c-12.6-29.4-25-58.3-37.2-86.6c-9.9,1.9-19.2,4-28.6,5.4
	c-3.1,0.5-4.1,1.3-4.1,4.4c0.1,21,0.1,41.9,0.1,62.9c0,1.1,0.1,2.3,0.2,4c16.3,0,32.3,0,48.7,0c0,5.7,0,10.8,0,16.5
	C399.7,516.5,406.3,514.4,413.6,512.2z M398.7,415.7c12.3,28.8,24.7,57.6,37.3,87c10.2-6,19.7-11.6,29.7-17.4
	c-14.3-15.5-18.1-33.7-16.3-53.6c1.8-0.2,3.5-0.4,4.6-0.5c-10.5-10.6-21.1-21.1-31.5-31.6C414.9,404.7,407,410.1,398.7,415.7z
	 M225.3,501.7c12.9-29.4,25.5-58.2,38-86.6c-7.9-5.4-15.5-10.6-22.8-15.6c-10.5,10.5-21.1,21.1-31.9,32c1.8,0,3.5,0,5.3,0
	c1.9-0.1,3,0.5,2.8,2.6c-0.6,8-0.6,16-2,23.9c-1.9,10.8-7.7,19.9-15.6,28.4C207.9,491.4,216.3,496.4,225.3,501.7z M405.8,198.8
	c-18.4-14.6-38.7-23.1-62.1-25.6c0,1.9,0,3.2,0,4.6c0,23.5,0,47.1,0,70.6c0,2.7,0.4,4.4,3.3,5.6c2.9,1.2,4-0.3,5.5-1.8
	c2.2-2.2,4.4-4.4,6.6-6.6C374.5,230.1,389.9,214.7,405.8,198.8z M240.3,364c1.1-1,1.9-1.7,2.8-2.5c16.9-16.9,33.8-33.9,50.8-50.7
	c1.7-1.7,2.3-3,1.3-5.3c-1-2.4-2.5-3.1-5-3.1c-23.8,0.1-47.6,0.1-71.4,0.1c-1.3,0-2.5,0-4.2,0C217.6,325.6,225.7,346,240.3,364z
	 M423.4,216.5c-18.9,18.9-37.4,37.5-56.1,56.1c2,5.5,2,5.5,8.1,5.5c22.9,0,45.8,0,68.7,0c1.4,0,2.7,0,4.4,0
	C445.9,254.8,437.7,234.4,423.4,216.5z M257.5,198.7c1.1,1.2,1.8,2.1,2.6,2.9c17,17,34,34,51,51.1c1.6,1.7,2.9,2.3,5.3,1.3
	c2.4-1,3.1-2.4,3.1-4.9c-0.1-24.1-0.1-48.1-0.1-72.2c0-1.1-0.1-2.3-0.2-3.7C296.2,175.7,275.8,184.1,257.5,198.7z M448.4,302.6
	c-1.2-0.1-1.8-0.2-2.5-0.2c-24.6,0-49.1,0-73.7-0.1c-2.5,0-3.2,1.1-4.1,3.1c-0.9,2.1-0.8,3.3,0.9,5c13.5,13.4,26.9,26.8,40.4,40.3
	c4.4,4.4,9,8.8,13.6,13.2C437.5,345.8,445.8,325.6,448.4,302.6z M240.3,216.3c-15.3,17.5-25.1,45.8-25.1,61.5
	c0.2,0.1,0.5,0.2,0.7,0.2c25.2,0,50.4,0,75.6,0.1c2.8,0,2.9-1.9,3.8-3.5c1.1-1.9,0.5-3.2-1-4.7c-17.4-17.3-34.8-34.7-52.1-52.1
	C241.6,217.5,241,217,240.3,216.3z M49,283.2c2.9,13.5,18.9,24.6,34.7,24.4c15-0.2,30.9-11.7,33.3-24.4
	C94.4,283.2,71.9,283.2,49,283.2z M189.5,102.2c-22.8,0-45.3,0-67.9,0c3,13.3,19,24.4,34.4,24.1
	C171.3,126.1,187.3,114.8,189.5,102.2z M544.5,102.3c-22.9,0-45.6,0-68.3,0c3.4,13,18.3,23.8,32.7,24.1
	C525,126.7,539.9,116.7,544.5,102.3z M297.4,29.8c3.4,13.8,20.2,25.2,35.5,24.3c15.5-0.9,31.1-12.6,32.6-24.3
	C342.8,29.8,320.2,29.8,297.4,29.8z M476.1,456.1c4.1,14.5,19.2,24.3,36.4,23.9c13.7-0.3,28.8-11.6,31.8-23.9
	C521.6,456.1,499,456.1,476.1,456.1z M365.6,526.9c-22.7,0-45.3,0-68.1,0c4.2,14.5,19.4,24.3,36.4,23.8
	C347.8,550.3,362.9,539,365.6,526.9z M121.6,456.1c3.8,14.8,20.9,25.4,38.1,23.9c13.5-1.2,28.8-13.5,29.7-23.9
	C166.9,456.1,144.4,456.1,121.6,456.1z M546.1,278.1c2.6,13.2,19,24.4,34.8,24.1c15-0.3,31.1-11.9,33-24.1
	C591.3,278.1,568.8,278.1,546.1,278.1z M346.8,290.4c0-8.5-6.7-15.3-15.2-15.3c-8.4,0-15.3,7-15.3,15.3c0,8.3,6.7,15,15.1,15.1
	C340,305.5,346.8,298.9,346.8,290.4z M319.2,350c-0.2-0.1-0.4-0.2-0.5-0.2c-7.6,17.3-15.1,34.5-23.1,52.6c8.1,1.7,15.7,3.4,23.6,5.1
	C319.2,387.8,319.2,368.9,319.2,350z M343.9,407.4c7.8-1.6,15-3.2,22.6-4.8c-7.6-17.6-14.8-34.4-22-51.2c-0.2,0.1-0.4,0.2-0.7,0.2
	C343.9,369.9,343.9,388.2,343.9,407.4z M404.7,382.4c-12.3-12.3-24.1-24.1-35.6-35.7c6.4,14.8,13,30.3,19.8,46.3
	C394.7,389.1,400,385.6,404.7,382.4z M257.9,381.9c5.1,3.5,10.1,6.9,15.4,10.5c6.8-15.5,13.3-30.4,20.2-46.2
	C281.3,358.4,269.9,369.9,257.9,381.9z"/>
<rect y="0.1" class="st12" width="663.2" height="663.2"/>
</svg>
