<?xml version="1.0" encoding="utf-8"?>
<!-- Generator: Adobe Illustrator 19.2.1, SVG Export Plug-In . SVG Version: 6.00 Build 0)  -->
<svg version="1.1" id="Layer_1" xmlns="http://www.w3.org/2000/svg" xmlns:xlink="http://www.w3.org/1999/xlink" x="0px" y="0px"
	 viewBox="0 0 663.2 663.2" style="enable-background:new 0 0 663.2 663.2;" xml:space="preserve">
<style type="text/css">
	.st0{fill:#FFFFFF;}
	.st1{fill:#FFFFFF;stroke:#000000;stroke-width:2;stroke-miterlimit:10;}
	.st2{fill:none;stroke:#000000;stroke-width:2;stroke-miterlimit:10;}
	.st3{fill:none;stroke:#000000;stroke-width:2;stroke-linecap:round;stroke-miterlimit:10;}
	.st4{fill:none;stroke:#000000;stroke-width:2;stroke-linecap:square;stroke-miterlimit:10;}
	.st5{stroke:#FFFFFF;stroke-linecap:round;stroke-miterlimit:10;}
	.st6{fill:none;stroke:#FFFFFF;stroke-width:2;stroke-linejoin:round;stroke-miterlimit:10;}
	.st7{fill:none;stroke:#000000;stroke-width:2;stroke-linejoin:round;stroke-miterlimit:10;}
	.st8{fill:#FFFFFF;stroke:#000000;stroke-width:2;stroke-linejoin:round;stroke-miterlimit:10;}
	.st9{fill:none;stroke:#000000;stroke-width:2;stroke-linecap:round;stroke-miterlimit:5;}
	.st10{fill:#191919;}
	.st11{fill:none;stroke:#FFFFFF;stroke-width:2;stroke-miterlimit:10;}
	.st12{fill:none;}
</style>
<rect x="0" class="st12" width="663.2" height="663.2"/>
<path class="st0" d="M522.3,539.4c1.1,0,2,0,3,0c21.4,0,42.8,0,64.2,0c10.1,0,18.3,6.1,20.7,15.6c0.5,2,0.7,4.1,0.7,6.2
	c0.1,10.5,0,20.9,0,31.4c0,13.4-8.8,22.3-22.2,22.3c-65.7,0-131.4,0-197.1,0c-96.5,0-193,0-289.6,0c-10.5,0-20.9,0-31.4,0
	c-10-0.1-18-6.1-20.6-15.5c-0.5-1.7-0.7-3.5-0.7-5.2c0-12.1,0-24.1,0.2-36.2c0.2-8.6,7.9-16.9,16.9-18.2c1.7-0.3,3.5-0.4,5.3-0.4
	c21.9,0,43.8,0,65.7,0c0.9,0,1.9,0,3.1,0c0-1.2,0-2.1,0-3.1c0-67.8,0-135.6,0.1-203.3c0-2.3-0.5-3.1-2.9-3.6
	c-11.9-2.2-23.7-4.7-34.8-9.6c-4-1.8-7.8-4.2-11.2-6.9c-4.2-3.4-6-8.2-6-13.8c0.1-17.2,0-34.5,0.1-51.7c0-2-0.6-3-2.3-3.9
	c-3.6-1.8-7-3.9-10.9-6.1c-0.1,1-0.1,1.8-0.1,2.5c0,41.4,0,82.8,0,124.1c0,1.7,0.5,2.4,2.2,3c14.9,4.8,24.9,14.5,28.9,29.7
	c4.4,16.9-3.5,34.4-19.4,43.8c-21.7,12.9-50,4.8-61.6-17.6c-7.4-14.4-4.1-33.2,7.8-45c5.3-5.3,11.5-8.9,18.7-11
	c0.6-0.2,1.2-0.4,1.9-0.6c0-0.9,0-1.8,0-2.7c0-45.2,0-90.5,0.1-135.7c0-2.1-0.7-3.1-2.4-4.1c-14-7.8-28-15.7-42-23.7
	c-0.8-0.5-1.6-1-2.6-1.6c8.3-3.8,16.3-7.5,24.3-11.2c37.6-17.3,75.2-34.5,112.7-51.8c29.3-13.5,58.6-27,88-40.5
	c33.6-15.5,67.3-30.9,100.9-46.3c0.8-0.4,2.1-0.4,2.9,0c24.3,11.1,48.6,22.3,72.9,33.5c39.2,18,78.4,36,117.5,54
	c27,12.4,54,24.8,81,37.3c17.4,8,34.9,16,52.3,24c0.7,0.3,1.3,0.6,2.3,1.2c-4,2.3-7.7,4.4-11.4,6.5c-22.7,12.9-45.4,25.7-68.2,38.5
	c-1.9,1.1-2.7,2.2-2.7,4.5c0.1,16.7-0.2,33.5,0.2,50.2c0.2,8.4-3.6,14.1-10.3,18.3c-8,5.1-17,7.5-26.1,9.8c-6,1.5-12.1,2.7-18.3,4.1
	C522.3,399.8,522.3,469.4,522.3,539.4z M612,200.4c-1-0.5-1.6-0.8-2.2-1.1c-35.2-16.2-70.3-32.3-105.5-48.5
	c-33.3-15.3-66.6-30.6-99.8-45.9C381.3,94.4,358.1,83.8,335,73c-2.9-1.4-5-0.9-7.6,0.3c-52.1,24-104.2,47.9-156.3,71.9
	C132.4,163,93.7,180.8,55,198.6c-1.2,0.5-2.3,1.1-3.8,1.8c8.1,4.6,15.9,9,23.7,13.4c5.7,3.2,11.5,6.5,17.2,9.8
	c1.2,0.7,2,0.6,3.2-0.1c3.3-1.9,6.7-3.9,10.3-5.3c14.2-5.6,29.2-8.6,44.2-10.7c18.4-2.6,36.8-4.7,55.3-6.4c31.9-3.1,63.9-4.3,96-4.7
	c58.9-0.8,117.8,0.3,176.5,6.7c20,2.2,39.9,4.7,59.6,9.3c10.9,2.5,21.7,5.4,31.2,11.6c0.5,0.3,1.7,0.1,2.4-0.3
	c3.4-1.8,6.7-3.8,10.1-5.7C591.1,212.2,601.4,206.4,612,200.4z M555.4,282.6c0-0.9,0-1.7,0-2.5c0-12.2-0.1-24.3,0.1-36.5
	c0-2.2-0.7-3.3-2.6-3.9c-7.1-2.2-14.1-5-21.4-6.7c-31.1-7-62.7-10-94.4-12.1c-22.2-1.4-44.5-2.3-66.8-2.9
	c-51.3-1.5-102.5-0.3-153.7,3.5c-25.1,1.9-50.2,4.4-74.9,9.1c-10.9,2.1-21.7,4.4-31.9,9.1c-1.6,0.7-2.2,1.6-2.2,3.4
	c0.1,12.3,0,24.6,0,36.9c0,0.8,0,1.6,0,2.4c0.5-0.1,0.8,0,1-0.1c15.5-5.1,31.3-8.3,47.5-10.4c18-2.2,35.9-4.6,53.9-6
	c22.4-1.7,44.8-2.7,67.2-3.6c34.1-1.4,68.2-1.3,102.4-0.2c19.7,0.6,39.4,1.6,59.1,2.9c15.2,1,30.4,2.7,45.6,4.2
	c17.9,1.8,35.7,4.5,53.3,8.6C543.4,279.2,549.2,281,555.4,282.6z M70.9,593.2c172.9,0,345.6,0,518.3,0c0-10.8,0-21.4,0-32.2
	c-172.8,0-345.5,0-518.3,0C70.9,571.8,70.9,582.4,70.9,593.2z M361.3,539.3c0-85.5,0-170.7,0-256.1c-19.6,0-39,0-58.4,0
	c0,85.6,0,170.8,0,256.1C322.4,539.3,341.8,539.3,361.3,539.3z M220.5,539.3c0-84.4,0-168.4,0-252.9c-19.5,2-38.8,4-58.1,5.9
	c0,82.7,0,164.8,0,246.9C181.8,539.3,201.1,539.3,220.5,539.3z M442.6,286.6c0,84.5,0,168.5,0,252.6c19.3,0,38.5,0,57.9,0
	c0.1-0.8,0.1-1.5,0.1-2.2c0-80.6,0-161.3,0-241.9c0-1.9-0.6-2.5-2.4-2.7c-7.3-0.8-14.7-1.9-22-2.6
	C465,288.7,453.9,287.7,442.6,286.6z M242.3,340.9c0,66.2,0,132.2,0,198.3c13.1,0,26,0,38.9,0c0-65.6,0-131,0-196.6
	C268.2,342,255.3,341.5,242.3,340.9z M420.7,539.3c0-66.3,0-132.3,0-198.4c-12.7,0.5-25.1,1.1-37.5,1.6c0,65.7,0,131.2,0,196.8
	C395.7,539.3,408.1,539.3,420.7,539.3z M281.2,320.9c0-12.5,0-24.7,0-37.4c-13.1,0.6-26,1.1-38.7,1.7c-0.2,0.5-0.3,0.6-0.3,0.8
	c0,10.6,0,21.2-0.1,31.8c0,1.6,0.9,1.6,2,1.6 M420.9,285.2c-12.7-0.5-25.2-1.1-37.9-1.6c0,12.4,0,24.3,0,36.2c0,0.3,0.1,0.6,0.2,1.2
	c12.2-0.5,24.3-1,36.4-1.6c0.5,0,1.2-1,1.3-1.5C420.9,307.2,420.9,296.5,420.9,285.2z M61.7,425.3c2.7-0.5,5.5-0.7,8-1.6
	c7.8-2.8,12.8-8.1,13.7-16.7c0.8-7.1-3.5-14.4-10.7-17.9c-8.9-4.3-17.5-3.7-25.4,2.5c-8.9,7-9.5,19.1-1.4,27.1
	C50.3,422.9,55.6,424.9,61.7,425.3z M522.3,296.2c0,4.4,0,8.2,0,12.3c7.9-1.9,15.6-3.8,23.2-5.7c0-0.3,0-0.6,0-0.9
	C537.8,300.1,530.2,298.2,522.3,296.2z M140.6,308.3c0-4.4,0-8.1,0-12.3c-7.8,1.9-15.4,3.8-23,5.7c0,0.3,0,0.6,0,0.9
	C125.1,304.6,132.7,306.4,140.6,308.3z"/>
</svg>
