<?xml version="1.0" encoding="utf-8"?>
<!-- Generator: Adobe Illustrator 19.2.1, SVG Export Plug-In . SVG Version: 6.00 Build 0)  -->
<svg version="1.1" id="Layer_1" xmlns="http://www.w3.org/2000/svg" xmlns:xlink="http://www.w3.org/1999/xlink" x="0px" y="0px"
	 viewBox="0 0 663.2 663.2" style="enable-background:new 0 0 663.2 663.2;" xml:space="preserve">
<style type="text/css">
	.st0{fill:#FFFFFF;}
	.st1{fill:#FFFFFF;stroke:#000000;stroke-width:2;stroke-miterlimit:10;}
	.st2{fill:none;stroke:#000000;stroke-width:2;stroke-miterlimit:10;}
	.st3{fill:none;stroke:#000000;stroke-width:2;stroke-linecap:round;stroke-miterlimit:10;}
	.st4{fill:none;stroke:#000000;stroke-width:2;stroke-linecap:square;stroke-miterlimit:10;}
	.st5{stroke:#FFFFFF;stroke-linecap:round;stroke-miterlimit:10;}
	.st6{fill:none;stroke:#FFFFFF;stroke-width:2;stroke-linejoin:round;stroke-miterlimit:10;}
	.st7{fill:none;stroke:#000000;stroke-width:2;stroke-linejoin:round;stroke-miterlimit:10;}
	.st8{fill:#FFFFFF;stroke:#000000;stroke-width:2;stroke-linejoin:round;stroke-miterlimit:10;}
	.st9{fill:none;stroke:#000000;stroke-width:2;stroke-linecap:round;stroke-miterlimit:5;}
	.st10{fill:#191919;}
	.st11{fill:none;stroke:#FFFFFF;stroke-width:2;stroke-miterlimit:10;}
	.st12{fill:none;}
</style>
<rect x="0" y="2.2" class="st12" width="663.2" height="661.2"/>
<g>
	<path class="st0" d="M451.3,372.5c6,9.9,12.2,19.3,17.7,29.1c7.5,13.5,13.4,27.6,15.5,43c1.7,12.9,0.8,25.5-7.5,36.2
		c-2.6,3.3-6.3,6.4-10.1,8.1c-65.2,28.7-130.5,57.2-195.8,85.7c-54.5,23.8-109.1,47.7-163.6,71.5c-10.5,4.6-21,9.4-31.7,13.8
		c-13.7,5.6-26.5,3.7-37.3-6.3c-10.8-10-14.2-22.6-9.3-36.6c10.4-29.6,21.2-59.1,31.9-88.7c34.3-94.9,68.6-189.7,102.8-284.6
		c5.6-15.4,11.2-30.7,16.5-46.2c1.9-5.4,5.4-8.8,10.2-11.3c9.6-5,19.9-5.4,30.3-3.9c19.1,2.6,36,10.9,52.4,20.4
		c2.9,1.7,5.8,3.4,9.4,5.6c-0.6-5.5-0.9-10.4-1.6-15.2c-2-15.5-5.5-30.6-12.5-44.7c-9.3-18.4-23.8-30.3-44.1-34.9
		c-5-1.1-8.9-3.6-10.3-8.8c-1.2-4.6-0.4-8.8,3.2-12.2c3.4-3.2,7.4-4.1,12-3c31.3,7.2,52.2,26.3,64.5,55.4
		c8.5,20,11.9,40.9,12.9,62.4c0.3,5.2,0.2,10.5,0.6,15.7c0.1,1.5,1,3.4,2.1,4.3c45.5,36.1,86.5,76.8,123.4,121.6
		c1.5,1.9,2.7,2.5,5.2,1.7c34.1-10.2,69-16,104.4-18c17.8-1,35.6-0.9,53.5-1.3c2.8-0.1,5.6,0.1,8.4,0.3c7.1,0.6,11.8,5.8,11.6,12.4
		c-0.2,6.7-5.6,11.7-12.6,11.7c-16.9,0.1-33.8-0.1-50.7,0.6c-33.9,1.4-67.2,6.3-99.9,15.3C452.3,372,451.9,372.2,451.3,372.5z
		 M414.3,485.4c-7-3.2-13.5-5.9-19.8-9c-58.2-28-109.8-64.7-151.3-114.6c-20.5-24.6-36.5-52.1-49.5-81.3c-3.1-6.9-5.9-13.9-9.2-21.5
		c-0.6,1.4-1,2.1-1.2,2.8c-21.3,59-42.6,118-63.9,176.9c-15.3,42.2-30.5,84.4-45.8,126.6c-7.1,19.6-14.2,39.2-21.3,58.9
		c-1.5,4.3-1.1,8.3,2.3,11.6c3.4,3.2,7.4,3.6,11.7,1.8c2-0.8,4-1.8,6.1-2.7c60.3-26.3,120.6-52.7,180.8-79
		c46.5-20.3,93.1-40.7,139.6-61.1C399.8,491.7,406.8,488.6,414.3,485.4z M305.9,255.6c-0.9,8.8-1.6,16.7-2.6,24.7
		c-3.9,29.8-10.7,58.9-18.4,87.8c-0.3,1.2,0.2,3.2,1.1,4.2c3.3,3.4,6.8,6.7,10.4,9.8c9.8,8.4,19.6,16.7,29.6,25.2
		c25.5-21,54-35.5,84.4-47.3C378.7,321.9,343.9,287.7,305.9,255.6z M264.3,349.2c0.4-1.1,0.6-1.6,0.7-2.1
		c6-22.6,10.8-45.4,13.8-68.5c1.6-12.4,2.5-24.9,3.6-37.4c0.1-1.3-0.3-3.2-1.2-3.9c-16.1-11.4-32.7-21.9-51.7-27.9
		c-7.5-2.4-15-4-23-2.9c-2.3,0.3-3.8,1.1-4.5,3.6c-0.9,3.2-2.4,6.3-3.3,9.5c-0.4,1.4-0.5,3.2-0.1,4.6
		c12.9,41.3,31.2,79.9,57.4,114.6C258.6,342.2,261.3,345.5,264.3,349.2z M347,421.6c1.4,1,2.4,1.7,3.5,2.4
		c27.5,17.9,56.5,32.7,87.1,44.5c5.8,2.2,10.7,3,16.4-0.2c3-1.7,4.9-3.5,5.8-6.8c1.9-7.5,0.7-14.8-1.3-22
		c-5.3-18.7-15.3-35-26.2-50.9c-1.9-2.8-4-5.6-6-8.4C397.7,390.2,371.2,403.4,347,421.6z"/>
	<path class="st0" d="M55.1,14c0.8,8,1.6,15.6,2.3,23.2c-4.5,1.4-8.9,2.5-13.1,4.2c-7.9,3.2-15.1,7.7-16.7,16.8
		C25.6,69,28,79.2,34.5,88.2c3.6,5,9.3,6.6,15.1,6.6c6.6,0,13.3-1,19.9-0.8c6.4,0.1,12.9,0.3,19,2c20.6,5.7,25.4,24.1,17.9,41.6
		c-4,9.3-11.1,16-20.1,20c-10.2,4.5-20.9,7.6-31.4,11.5c-5.6,2.1-11,4.6-16.9,7.1c4.4,4.8,9.3,5.3,14.2,6c9.9,1.4,19.7-0.3,29.5-1.7
		c18.7-2.7,37.4-3.4,56.1-0.4c12.2,2,19.4,9.7,20.7,21.2c0.7,6.2-0.8,12.4-3.8,17.8c-3.7,6.8-7.5,13.7-12.2,19.8
		c-10.6,13.7-21.8,26.9-32.8,40.3c-0.8,1-1.5,2-2.4,3.3c-6.4-5.9-12.1-11.3-18-16.7c16.7-19.4,33.9-38.1,45.7-61.5
		c-1.8-0.4-2.7-0.6-3.6-0.7c-17.6-2.1-35.1-1.1-52.6,1.8c-14,2.3-28.1,2.6-41.8-1.8c-10.1-3.3-17.9-9.3-22-19.4
		c-3.3-8.2-1.9-15.7,3.9-22.4c7-8,16.5-11.9,26.2-15.3c8.7-3,17.5-5.4,26.1-8.6c3.4-1.3,6.4-3.7,9.4-5.9c1.3-1,2.4-2.5,3.2-4
		c3-5.5,1.5-8.8-4.7-9.2c-6.2-0.4-12.5,0.2-18.8,0.1c-7-0.1-14,0.1-20.8-1c-13.7-2.3-23.4-10.6-29.6-22.7C4.3,83.8,1.5,71.7,2.7,59
		c1.4-15.2,9.2-26.8,22-35c8.2-5.3,17.4-8.2,27-10C52.6,13.9,53.7,14,55.1,14z"/>
	<path class="st0" d="M606.2,62.3c5.8-5.6,11.3-11.1,17.1-16.8c0.4,0.4,1.2,1,1.9,1.7c7.9,7.8,15.7,15.5,23.6,23.3
		c18.1,18,16.8,46.8-3.1,62.8c-11.8,9.5-25,16.1-40.6,16.9c-10,0.5-19-2.3-27.2-8.1c-4-2.8-8.9-4.3-13.4-6.3c-1-0.4-2.2-0.2-4.4-0.3
		c1.8,3.8,2.8,7,4.7,9.6c8.1,11,16.3,22,24.9,32.7c7.2,8.9,10.1,18.4,7,29.5c-3.4,12.3-15,21.3-27.8,21.7
		c-14.1,0.4-25.8-5.5-36.6-13.6c-8.6-6.5-16.5-14.1-25.1-20.6c-4.9-3.7-10.4-6.6-16-9c-4.9-2.1-7.2-0.8-8.5,4.4
		c-1.2,4.6-1.9,9.3-2.1,14.1c-0.6,16.6,1.8,32.9,4.8,49.6c-7.8,1.6-15.6,3.3-23.7,5c-1.2-6.7-2.8-13.2-3.4-19.7
		c-1.1-11.7-1.9-23.4-2.1-35.1c-0.1-6.2,0.9-12.6,2.3-18.6c5.2-21,23.3-29.9,43.5-21.9c12.5,4.9,22.5,13.4,32.4,22.1
		c7.4,6.6,14.8,13.1,24.2,16.9c2.6,1,5.3,1.6,8.1,2c2.8,0.4,5-0.7,6.3-3.4c1.2-2.5,0.4-4.7-1.3-6.7c-7.8-9.7-15.9-19.1-23.1-29.3
		c-4.5-6.5-8.4-13.8-11-21.2c-6.1-17.8,6.4-33.3,25.5-32.7c10,0.3,19.2,3.4,26.9,9.6c7.7,6.2,15.7,6.3,23.9,2.9
		c5.7-2.4,11.3-5.6,16.2-9.4c9-6.9,9.2-18.9,1.2-26.8c-8.2-8.1-16.3-16.3-24.5-24.4C606.6,63,606.4,62.7,606.2,62.3z"/>
	<path class="st0" d="M189.3,101.5c-0.8,1.5-1.4,3.1-2.4,4.2c-5.8,5.9-11.6,11.7-17.5,17.5c-2.9,2.8-6,2.8-8.9,0
		c-5.8-5.7-11.6-11.4-17.3-17.2c-3-3-3.1-6.2-0.2-9.2c5.7-5.8,11.5-11.6,17.3-17.2c3-2.9,6-3.1,8.9-0.2c6.1,5.9,12.1,11.9,18,18
		C188.2,98.4,188.6,100,189.3,101.5z"/>
	<path class="st0" d="M55.4,348.8c0.8,0.3,2.2,0.6,3.4,1.1c6.9,2.9,13.9,6,20.8,8.9c4,1.7,5.9,5.4,3.9,9.5
		c-3.4,7.1-6.3,14.4-9.5,21.6c-1.7,3.8-4.6,5.1-8.5,3.5c-7.6-3.2-15.2-6.4-22.7-9.8c-3.6-1.6-4.8-4.7-3.2-8.4
		c3.2-7.5,6.5-14.9,9.7-22.3C50.4,350.5,52.1,349,55.4,348.8z"/>
	<path class="st0" d="M490.5,535.4c-1,1.6-1.7,3.4-3,4.5c-6.2,5.4-12.5,10.7-18.9,16c-2.9,2.4-6.1,2.2-8.6-0.7
		c-5.4-6.2-10.8-12.5-16-18.8c-2.8-3.4-2.4-6.4,1.1-9.3c5.7-4.9,11.5-9.8,17.3-14.7c4.3-3.6,7.3-3.4,11,0.8c5,5.8,10,11.6,14.8,17.5
		C489.1,532,489.6,533.6,490.5,535.4z"/>
	<path class="st0" d="M561.9,479.3c0,0,0.7,0,1.3,0.2c7.5,2,15,4,22.5,6.1c5.1,1.4,6.4,3.9,5.1,9.2c-1.9,7.4-3.9,14.8-5.9,22.1
		c-1.1,4.1-3.9,5.9-8.2,4.9c-8-2-15.9-4.2-23.9-6.4c-3.5-1-5.1-3.7-4.2-7.3c2.1-8.2,4.3-16.3,6.6-24.5
		C556,480.6,558,479.1,561.9,479.3z"/>
	<path class="st0" d="M596.6,590.2c-4.1,0.2-6.1-1.3-7.4-3.9c-3.4-6.9-6.7-13.8-9.9-20.7c-1.8-3.9-0.5-7.5,3.3-9.4
		c6.9-3.4,13.8-6.7,20.8-9.9c3.9-1.8,7.5-0.6,9.4,3.2c3.5,6.9,6.9,13.9,10.2,21c1.7,3.6,0.5,7.2-2.9,9c-7.2,3.6-14.4,7-21.7,10.4
		C597.5,590.2,596.5,590.2,596.6,590.2z"/>
	<path class="st0" d="M557.2,439.3c-1.2,1.6-2.4,4.1-4.3,5.3c-6.3,4-12.8,7.6-19.3,11.2c-4.2,2.3-8,1.3-10.4-2.9
		c-3.7-6.2-7.3-12.4-10.8-18.7c-2.4-4.3-1.7-7.8,2.5-10.4c6.5-4,13.2-7.9,19.9-11.6c3.4-1.9,7.3-0.9,9.2,2.3
		c4.1,6.7,8,13.6,11.9,20.5C556.4,436.1,556.6,437.3,557.2,439.3z"/>
	<path class="st0" d="M356.2,66c-1.1,2-1.8,4.2-3.2,5.7c-4.9,5.1-9.9,10.1-15.1,15c-3.6,3.5-7.8,3.3-11.4-0.2
		c-4.9-4.8-9.8-9.6-14.6-14.5c-3.8-3.9-3.8-8,0-11.9c4.8-4.9,9.7-9.7,14.6-14.5c3.6-3.5,7.8-3.7,11.5-0.2
		c5.2,4.9,10.3,10.1,15.3,15.3C354.5,61.9,355.1,63.9,356.2,66z"/>
	<path class="st0" d="M659.1,402.1c-1.3,2-2.1,4.4-3.8,5.9c-5,4.6-10.3,9-15.6,13.3c-4.2,3.4-8.4,3-12-1.1
		c-4.5-5.1-9-10.4-13.3-15.6c-3.1-3.8-2.8-8.1,0.9-11.4c5.2-4.6,10.5-9.1,15.9-13.5c4-3.2,8.4-2.9,11.8,1c4.6,5.2,9.1,10.6,13.5,16
		C657.6,398,658.1,399.8,659.1,402.1z"/>
	<path class="st0" d="M479.6,22.1c0-4.3,1.5-6.7,4.2-8.5c5.4-3.5,10.7-7,16.1-10.3c4.8-2.9,9.3-1.9,12.5,2.7
		c3.7,5.5,7.3,11,10.7,16.7c2.5,4.2,1.5,8.8-2.6,11.6c-5.5,3.7-11,7.3-16.7,10.7c-4.6,2.8-9.2,1.9-12.2-2.6
		c-3.7-5.5-7.3-11.1-10.7-16.7C480.1,24.5,479.8,22.8,479.6,22.1z"/>
	<path class="st0" d="M390.4,165.8c-1.4,2.5-2.3,4.9-3.9,6.7c-4,4.4-8.3,8.5-12.5,12.6c-4.3,4.2-9.4,4.3-13.7,0.2
		c-4.5-4.2-8.9-8.6-13.1-13.1c-3.6-3.8-3.7-9-0.1-12.9c4.3-4.7,8.8-9.3,13.5-13.6c4.1-3.8,9.2-3.5,13.2,0.3c4.4,4.3,8.9,8.6,13,13.1
		C388.4,160.9,389.1,163.4,390.4,165.8z"/>
	<path class="st0" d="M189,442.7c-0.9,1.4-1.6,3.3-2.9,4.4c-6.4,5.4-12.9,10.7-19.5,15.9c-3.1,2.4-6,2.1-8.6-1
		c-5.3-6.3-10.5-12.7-15.7-19.2c-2.6-3.3-2.3-6.2,0.9-8.8c6.3-5.3,12.8-10.5,19.2-15.6c3.1-2.4,6.1-2.2,8.6,0.8
		c5.4,6.4,10.6,12.9,15.9,19.4C187.8,439.6,188.2,441,189,442.7z"/>
</g>
</svg>
