<?xml version="1.0" encoding="utf-8"?>
<!-- Generator: Adobe Illustrator 19.2.1, SVG Export Plug-In . SVG Version: 6.00 Build 0)  -->
<svg version="1.1" id="Layer_1" xmlns="http://www.w3.org/2000/svg" xmlns:xlink="http://www.w3.org/1999/xlink" x="0px" y="0px"
	 viewBox="0 0 663.2 663.2" style="enable-background:new 0 0 663.2 663.2;" xml:space="preserve">
<style type="text/css">
	.st0{fill:#FFFFFF;}
	.st1{fill:#FFFFFF;stroke:#000000;stroke-width:2;stroke-miterlimit:10;}
	.st2{fill:none;stroke:#000000;stroke-width:2;stroke-miterlimit:10;}
	.st3{fill:none;stroke:#000000;stroke-width:2;stroke-linecap:round;stroke-miterlimit:10;}
	.st4{fill:none;stroke:#000000;stroke-width:2;stroke-linecap:square;stroke-miterlimit:10;}
	.st5{stroke:#FFFFFF;stroke-linecap:round;stroke-miterlimit:10;}
	.st6{fill:none;stroke:#FFFFFF;stroke-width:2;stroke-linejoin:round;stroke-miterlimit:10;}
	.st7{fill:none;stroke:#000000;stroke-width:2;stroke-linejoin:round;stroke-miterlimit:10;}
	.st8{fill:#FFFFFF;stroke:#000000;stroke-width:2;stroke-linejoin:round;stroke-miterlimit:10;}
	.st9{fill:none;stroke:#000000;stroke-width:2;stroke-linecap:round;stroke-miterlimit:5;}
	.st10{fill:#191919;}
	.st11{fill:none;stroke:#FFFFFF;stroke-width:2;stroke-miterlimit:10;}
	.st12{fill:none;}
</style>
<rect x="0.1" y="1" class="st12" width="663.2" height="661.2"/>
<g>
	<path class="st0" d="M374.8,71.2c-8.5,10.6-15.5,22.3-20.6,35c-0.9,2.2-2.1,4.5-2.4,6.8c-0.7,5.6-4.2,7.6-9,9.6
		c-29.8,12.1-51.9,32.8-67.2,61c-1.6,3-3.2,6-4.8,8.9c-27.7-17.6-55.6-19.3-82.5,0.4c-23.2,17-31.9,41.1-26.2,69.2
		c5,25.1,21,41.6,45.1,51.1c-0.3-5.4-0.6-10.3-0.9-15.2c-1-16.8-2.1-33.6-3-50.4c-0.5-10.4,3.9-18.5,12.9-23.5
		c8.9-5,17.9-4.4,26.6,1.1c6.7,4.2,13.4,8.3,20.2,12.6c6.7-4,13.4-7.9,20-12c0.9-0.5,1.5-2.1,1.6-3.2c1.8-16.4,6.6-31.9,15.7-45.7
		c21.8-32.9,52.5-49.7,92-48.7c48.6,1.3,88.6,35.2,98.9,82.7c0.9,4.3,1.1,8.7,1.9,13c0.2,1.3,1.1,2.9,2.1,3.6c5,3.2,10.2,6,15.2,9.2
		c1.6,1,2.6,0.8,4.1-0.1c6.1-3.9,12.2-7.8,18.4-11.5c8.7-5.3,17.8-5.7,26.5-0.7c8.5,4.8,12.9,12.5,12.6,22.4
		c-0.6,18.5-1.4,36.9-2.2,55.4c-1.1,25.4-2.2,50.7-3.2,76.1c-1.3,31.1-2.7,62.2-4,93.2c-1.1,25.6-2.2,51.2-3.3,77.2
		c1.4,0.1,2.5,0.2,3.7,0.2c15.7,0,31.5,0,47.2,0c9.2,0,13.8-4.8,14.1-14c0.6-16.7,1.4-33.4,2.1-50.1c1.1-25.7,2.2-51.4,3.3-77.1
		c1.3-31.1,2.6-62.2,4-93.2c1.3-31,2.6-61.9,4-92.9c0.7-15.4,1.3-30.7,1.9-46.1c0-1-0.3-2.5-0.9-2.8c-0.7-0.3-2.1,0.2-2.9,0.7
		c-8.5,5.2-17,10.4-25.5,15.7c-4.5,2.9-8.9,2.6-13.3,0c-10-5.9-20-11.8-30-17.9c-2-1.2-3.6-1.4-5.7-0.3
		c-11.4,5.9-22.9,11.6-34.4,17.3c-1.1,0.5-2.2,1-3.5,1.6c-3.5-7-6.9-13.8-10.4-20.9c6.6-3.3,12.9-6.5,19.3-9.6
		c5.7-2.9,11.4-5.8,17.1-8.5c1.8-0.9,2.2-1.9,2.1-3.8c-3-36.1-32.2-67.1-68-72.1c-29.1-4.1-53.8,4.8-73.6,26.6
		c-2.9,3.2-5.1,7.1-7.8,10.5c-0.6,0.8-1.8,1.8-2.7,1.8c-8.2,0.1-16.4,0.1-24.8,0.1c4.4-10.5,10.3-20.3,18.2-28.6
		c28.7-30.4,63.8-41.9,104.3-31.4c40.2,10.4,65.3,37.2,75.7,77.4c1.3,5,1.5,10.2,2.4,15.3c0.2,1.1,1,2.5,1.9,3
		c8.2,5,16.5,10,24.9,14.8c1,0.6,3,0.4,4-0.2c6.8-4,13.4-8.3,20.1-12.3c15.6-9.3,37.3,2.5,37.3,20.8c0,14.1-0.9,28.1-1.5,42.2
		c-1,24.3-2,48.5-3,72.8c-0.7,17-1.5,34-2.2,51.1c-1,24.4-2,48.8-3.1,73.1c-0.7,17.2-1.5,34.5-2.3,51.7c-1,24.1-2.2,48.1-2.9,72.2
		c-0.6,21-16.3,36.7-37.3,36.7c-16.2,0-32.3,0-48.5,0c-1.2,0-2.4,0-3.9,0c-0.5,11.2-0.7,22.1-1.4,33.1c-0.4,5.9-0.6,12-2.4,17.5
		c-4.3,13.5-16.7,22-30.9,22c-85.7,0-171.3,0.1-257,0c-23,0-41.5-18.6-42.3-41.6c-0.6-16.9-1.9-33.8-3-50.7c-1-16.6-2-33.1-2.9-49.7
		c-0.5-8-1-16-1.3-24c-0.1-2.6-1.5-2.7-3.4-2.8c-15.6-0.9-31.1-3.3-46.1-7.7c-69-20.4-118.6-63.4-148.3-128.9
		c-16.3-36-21.8-74-18.1-113.3C10.1,132.3,75,52.9,165.8,27.7C241.2,6.8,310.5,21.1,372.5,69c0.6,0.5,1.2,1,1.8,1.5
		C374.5,70.6,374.6,70.9,374.8,71.2z M540.9,429.6C540.9,429.6,540.9,429.6,540.9,429.6c1-23.7,2-47.4,3-71.2
		c1.6-36.7,3.2-73.3,4.7-110c0.1-1.2-0.5-2.4-0.7-3.7c-1.2,0.3-2.5,0.4-3.5,1c-8,4.9-15.9,9.7-23.7,14.8c-5.2,3.4-10.1,3.5-15.4,0.3
		c-9.8-5.9-19.7-11.6-29.4-17.5c-2.1-1.3-3.6-1.2-5.7-0.1c-11.8,6-23.7,11.8-35.5,18c-5.4,2.8-10.3,2.7-15.5-0.5
		c-9.4-5.6-19-10.9-28.5-16.5c-2-1.2-3.6-1.3-5.7-0.1c-9.4,5.6-19,10.9-28.5,16.5c-5.2,3.1-10,3.3-15.5,0.5
		c-11.9-6.2-24-12-35.9-18.1c-1.9-0.9-3.2-1-5.1,0.1c-9.8,6-19.8,11.7-29.7,17.7c-5.2,3.1-10,3.2-15.1-0.1c-7.9-5.1-16-10.1-24-15
		c-1-0.6-2.3-0.7-3.5-1c-0.2,1.1-0.7,2.3-0.7,3.4c1.4,24.2,2.8,48.5,4.2,72.7c1.7,29.4,3.5,58.8,5.3,88.2c2,33.2,4,66.5,6,99.7
		c1.9,31.5,3.9,63,5.8,94.4c0.7,10.8,8.3,18,19.2,18.1c43.8,0.2,87.7,0.4,131.5,0.5c27,0.1,54.1,0,81.1,0c13.6,0,27.3,0.2,40.9-0.1
		c8.3-0.1,12.4-3.8,12.4-12c0-7.2,0.4-14.5,0.7-21.7c1-24,2.1-48.1,3.2-72.1C538.4,487.1,539.6,458.3,540.9,429.6z M389,151
		c-5.7,0.8-11.5,1.3-17.2,2.3c-30,5.5-56.9,32.7-62.3,62.8c-0.4,2.2,0.2,3,2.1,4c11.2,5.5,22.4,11.1,33.6,16.8
		c2.1,1.1,3.7,1,5.7-0.2c9.9-5.8,20-11.5,29.9-17.3c4.7-2.7,9.3-2.7,14,0c9.9,5.8,20,11.5,29.9,17.2c1.7,1,3.1,1.5,5.1,0.5
		c12.1-6.2,24.3-12.3,36.5-18.3c1.8-0.9,2.2-1.8,1.8-3.8C459.9,177.9,427.1,151.5,389,151z M166.4,73.3c-6.7,2.5-12.9,4.5-18.7,7.2
		c-23,10.7-42,26.7-58.9,45.3c-11.8,12.9-22.2,26.8-29.4,42.7c-2.8,6.1-4.6,12.6-7,19.3c5.2,1,9.6,1.5,13.8,2.7
		c2.8,0.7,3.7,0,4.8-2.5c12.9-30.6,32.8-55.7,59.5-75.4c11.5-8.4,23.8-15.3,36.9-20.8c1-0.4,2.4-1.8,2.2-2.5
		C168.8,84.2,167.6,79.2,166.4,73.3z M176.6,128.6c-25.1,5.6-63.1,43.8-65.7,66c3.7,0.8,7.6,1.3,11.2,2.4c3.3,1,5,0.1,7-2.7
		c9.5-13.8,19.4-27.2,33.3-37.1c5.2-3.7,10.3-7.6,15.5-11.2c1.4-1,2.2-1.9,1.8-3.7C178.5,137.8,177.6,133.3,176.6,128.6z"/>
	<path class="st0" d="M381.4,324.9c7.1,0,13.8,0,20.8,0c0,6.2,0.1,12.2,0,18.2c0,2.1,0.6,3,2.7,3.6c5.1,1.3,10.3,2.5,15.1,4.6
		c10.2,4.4,18.6,11.1,20.4,22.7c1,6.4,0.2,13.1,0.2,19.9c-9.1,0-18.3,0-27.7,0c0-2.3,0-4.4,0-6.6c0.1-4.6-1.8-8.1-5.9-10.2
		c-11.3-5.9-22.4-5.3-33.1,1.6c-7.3,4.7-8.6,15.3-1.9,21c5.2,4.5,11.1,8.2,17.2,11.4c8.3,4.4,17.2,7.8,25.7,12
		c14.6,7.1,25.8,17.5,30,33.9c6.3,24.6-7.8,48.4-33.1,56.5c-3.1,1-6.3,1.8-9.7,2.7c0,7,0,13.8,0,20.9c-7.1,0-14,0-20.8,0
		c0-4.8-0.4-9.5,0.1-14.1c0.6-5.6-0.5-7.2-6.1-8.2c-11.1-2.2-20.8-7.6-29.3-15c-5.3-4.6-9.9-9.9-13.6-16.3
		c7-5.9,13.9-11.6,20.9-17.4c3.6,3.9,7,8,10.8,11.6c10.4,9.9,22.8,13.2,36.8,10.2c9.8-2.1,16.3-12,14-21.7c-0.7-3-2.7-6.2-5-8.2
		c-4.5-3.7-9.4-6.8-14.6-9.5c-8.9-4.7-18.1-8.9-27.1-13.4c-11.1-5.6-20.4-13.4-26.2-24.7c-11.2-21.9-1.5-48.6,21.1-58.3
		c5.1-2.2,10.5-3.9,15.8-5.5c1.9-0.6,2.6-1.4,2.5-3.4C381.3,337,381.4,331.1,381.4,324.9z"/>
</g>
</svg>
