<?xml version="1.0" encoding="utf-8"?>
<!-- Generator: Adobe Illustrator 16.0.0, SVG Export Plug-In . SVG Version: 6.00 Build 0)  -->
<!DOCTYPE svg PUBLIC "-//W3C//DTD SVG 1.1//EN" "http://www.w3.org/Graphics/SVG/1.1/DTD/svg11.dtd">
<svg version="1.1" id="Layer_1" xmlns="http://www.w3.org/2000/svg" xmlns:xlink="http://www.w3.org/1999/xlink" x="0px" y="0px"
	 width="262.35px" height="262.35px" viewBox="0 0 262.35 262.35" enable-background="new 0 0 262.35 262.35" xml:space="preserve">
<g>
	<path d="M116.086,184.689c1.514-2.229,2.726-4.538,3.638-6.927c0.916-2.389,1.571-4.693,1.971-6.922
		c0.397-2.224,0.657-4.312,0.776-6.26c0.117-1.953,0.178-3.643,0.178-5.072h0.956v37.108H87.687H61.671h-11.93v-0.951h11.93v-81.62
		h-11.93v-0.96h11.93h38.066v0.96H87.687v81.62h3.34c2.227,0,4.495-0.142,6.802-0.42c2.307-0.28,4.554-0.814,6.745-1.614
		c2.185-0.791,4.253-1.902,6.202-3.337C112.724,188.857,114.494,186.993,116.086,184.689z"/>
	<path d="M204.269,198.617c-4.378,0-8.095-0.657-11.158-1.969c-3.063-1.311-5.729-3.16-7.996-5.549
		c-2.267-2.39-4.235-5.267-5.908-8.649c-1.669-3.383-3.339-7.14-5.012-11.279h-26.368l-6.206,21.839
		c-0.08,0.238-0.12,0.498-0.12,0.772c0,0.283,0,0.535,0,0.78c0,0.875,0.243,1.608,0.719,2.205c0.476,0.595,1.267,0.898,2.388,0.898
		h6.323v0.951h-24.938v-0.951h6.799c1.51,0,3.005-0.497,4.475-1.495c1.473-0.993,2.447-2.328,2.922-3.997l18.261-60.263
		c-0.874-1.506-1.895-3.199-3.044-5.068c-1.154-1.869-2.404-3.6-3.759-5.189c-1.356-1.591-2.746-2.925-4.176-3.999
		c-1.433-1.073-2.829-1.608-4.178-1.608v-0.96h21.597c2.945,0,5.552,0.539,7.818,1.613c2.27,1.074,4.254,2.43,5.964,4.055
		c1.712,1.637,3.165,3.444,4.357,5.432c1.192,1.991,2.147,3.86,2.865,5.606c1.192,2.867,2.483,6.009,3.877,9.43
		c1.39,3.42,2.862,6.979,4.413,10.679c1.555,3.7,3.124,7.423,4.714,11.16c1.592,3.738,3.106,7.32,4.534,10.736
		c3.42,8.114,6.92,16.39,10.502,24.82H204.269z M148.183,170.215h25.537l-14.559-36.274L148.183,170.215z"/>
	<g>
		<path d="M71.956,74.436V62.459h3.288V91.97h-3.288V77.488H56.849V91.97h-3.288V62.459h3.288v11.977H71.956z"/>
		<path d="M91.524,62.459h15.303v3.053H94.812v8.768h11.664v3.053H94.812v11.585h12.016v3.053H91.524V62.459z"/>
		<path d="M125.888,88.917h8.141v3.053H122.6V62.459h3.288V88.917z"/>
		<path d="M150.739,88.917h8.142v3.053h-11.429V62.459h3.287V88.917z"/>
		<path d="M201.58,77.254c0,8.493-6.967,15.225-15.381,15.225c-8.415,0-15.382-6.731-15.382-15.225
			c0-8.454,6.967-15.304,15.382-15.304C194.613,61.95,201.58,68.8,201.58,77.254z M174.105,77.215c0,6.653,5.4,12.211,12.094,12.211
			c6.692,0,12.094-5.558,12.094-12.211c0-6.693-5.323-12.212-12.094-12.212C179.428,65.003,174.105,70.521,174.105,77.215z"/>
	</g>
	
		<rect x="20.389" y="17.603" fill="none" stroke="#000000" stroke-width="2" stroke-miterlimit="10" width="222.896" height="222.896"/>
</g>
</svg>
