<?xml version="1.0" encoding="utf-8"?>
<!-- Generator: Adobe Illustrator 16.0.0, SVG Export Plug-In . SVG Version: 6.00 Build 0)  -->
<!DOCTYPE svg PUBLIC "-//W3C//DTD SVG 1.1//EN" "http://www.w3.org/Graphics/SVG/1.1/DTD/svg11.dtd">
<svg version="1.1" id="Layer_1" xmlns="http://www.w3.org/2000/svg" xmlns:xlink="http://www.w3.org/1999/xlink" x="0px" y="0px"
	 width="185.366px" height="158.5px" viewBox="0 0 185.366 158.5" enable-background="new 0 0 185.366 158.5" xml:space="preserve">
<g>
	<path d="M81.425,135.208c1.514-2.229,2.726-4.537,3.638-6.926c0.916-2.389,1.571-4.693,1.971-6.922
		c0.397-2.225,0.657-4.312,0.776-6.26c0.117-1.953,0.178-3.643,0.178-5.072h0.956v37.107H53.025H27.01H15.08v-0.951h11.93V64.565
		H15.08v-0.961h11.93h38.066v0.961H53.025v81.619h3.34c2.227,0,4.495-0.141,6.802-0.42s4.554-0.814,6.745-1.613
		c2.185-0.791,4.253-1.902,6.202-3.338C78.062,139.376,79.833,137.513,81.425,135.208z"/>
	<path d="M169.607,149.136c-4.378,0-8.095-0.656-11.158-1.969c-3.063-1.311-5.729-3.16-7.996-5.549s-4.235-5.266-5.908-8.648
		c-1.669-3.383-3.339-7.141-5.012-11.279h-26.368l-6.206,21.838c-0.08,0.238-0.12,0.498-0.12,0.773c0,0.283,0,0.535,0,0.779
		c0,0.875,0.243,1.609,0.719,2.205s1.267,0.898,2.388,0.898h6.323v0.951H91.33v-0.951h6.799c1.51,0,3.005-0.496,4.475-1.494
		c1.473-0.994,2.447-2.328,2.922-3.998l18.261-60.262c-0.874-1.506-1.895-3.199-3.044-5.068c-1.154-1.869-2.404-3.6-3.759-5.189
		c-1.356-1.592-2.746-2.926-4.176-4c-1.433-1.072-2.829-1.607-4.178-1.607v-0.961h21.597c2.945,0,5.552,0.539,7.818,1.613
		c2.27,1.074,4.254,2.43,5.964,4.055c1.712,1.637,3.165,3.445,4.357,5.432c1.192,1.992,2.147,3.861,2.865,5.607
		c1.192,2.867,2.483,6.008,3.877,9.43c1.39,3.42,2.862,6.979,4.413,10.678c1.555,3.701,3.124,7.424,4.714,11.16
		c1.592,3.738,3.106,7.32,4.534,10.736c3.42,8.115,6.92,16.391,10.502,24.82H169.607z M113.521,120.733h25.537L124.5,84.46
		L113.521,120.733z"/>
	<path d="M37.295,24.954V12.978h3.288v29.512h-3.288V28.007H22.188v14.482h-3.288V12.978h3.288v11.977H37.295z"/>
	<path d="M56.863,12.978h15.303v3.053H60.15v8.768h11.664v3.053H60.15v11.586h12.016v3.053H56.863V12.978z"/>
	<path d="M91.227,39.437h8.141v3.053H87.938V12.978h3.288V39.437z"/>
	<path d="M116.078,39.437h8.142v3.053h-11.429V12.978h3.287V39.437z"/>
	<path d="M166.919,27.772c0,8.494-6.967,15.225-15.381,15.225c-8.415,0-15.382-6.73-15.382-15.225
		c0-8.453,6.967-15.303,15.382-15.303C159.952,12.47,166.919,19.319,166.919,27.772z M139.444,27.733
		c0,6.654,5.4,12.211,12.094,12.211c6.692,0,12.094-5.557,12.094-12.211c0-6.693-5.323-12.211-12.094-12.211
		C144.767,15.522,139.444,21.04,139.444,27.733z"/>
</g>
</svg>
