<?xml version="1.0" encoding="utf-8"?>
<!-- Generator: Adobe Illustrator 19.2.1, SVG Export Plug-In . SVG Version: 6.00 Build 0)  -->
<svg version="1.1" id="Layer_1" xmlns="http://www.w3.org/2000/svg" xmlns:xlink="http://www.w3.org/1999/xlink" x="0px" y="0px"
	 viewBox="0 0 3917.2 2203.4" style="enable-background:new 0 0 3917.2 2203.4;" xml:space="preserve">
<style type="text/css">
	.st0{fill:#FFFFFF;}
	.st1{fill:#FFFFFF;stroke:#000000;stroke-width:2;stroke-miterlimit:10;}
	.st2{fill:none;stroke:#000000;stroke-width:2;stroke-miterlimit:10;}
	.st3{fill:none;stroke:#000000;stroke-width:2;stroke-linecap:round;stroke-miterlimit:10;}
	.st4{fill:none;stroke:#000000;stroke-width:2;stroke-linecap:square;stroke-miterlimit:10;}
	.st5{stroke:#FFFFFF;stroke-linecap:round;stroke-miterlimit:10;}
	.st6{fill:none;stroke:#FFFFFF;stroke-width:2;stroke-linejoin:round;stroke-miterlimit:10;}
	.st7{fill:none;stroke:#000000;stroke-width:2;stroke-linejoin:round;stroke-miterlimit:10;}
	.st8{fill:#FFFFFF;stroke:#000000;stroke-width:2;stroke-linejoin:round;stroke-miterlimit:10;}
	.st9{fill:none;stroke:#000000;stroke-width:2;stroke-linecap:round;stroke-miterlimit:5;}
	.st10{fill:#191919;}
	.st11{fill:none;stroke:#FFFFFF;stroke-width:2;stroke-miterlimit:10;}
	.st12{fill:none;}
	.st13{opacity:0.15;}
	.st14{opacity:0.3;}
	.st15{fill:#912942;}
	.st16{fill:#50263C;}
	.st17{fill:#252535;}
	.st18{fill:none;stroke:#000000;stroke-linecap:round;stroke-miterlimit:10;}
	.st19{fill:none;stroke:#000000;stroke-width:6;stroke-linecap:round;stroke-miterlimit:10;}
	.st20{fill:none;stroke:#000000;stroke-width:6;stroke-linecap:round;stroke-linejoin:round;stroke-miterlimit:10;}
	.st21{fill:none;stroke:#000000;stroke-width:3;stroke-linecap:round;stroke-miterlimit:10;}
	.st22{fill:none;stroke:#000000;stroke-width:5;stroke-linecap:round;stroke-miterlimit:10;}
	.st23{fill:none;stroke:#000000;stroke-width:4;stroke-linecap:round;stroke-miterlimit:10;}
	.st24{fill:none;stroke:#000000;stroke-miterlimit:10;}
</style>
<line class="st18" x1="1593" y1="492.6" x2="1593" y2="2106.6"/>
<path class="st18" d="M1540,2131.6V1015.9c0,0-5-15.6,0.3-26.6c0,0,2.7-4.9,2.7-26.5c0-21.6,0-40.1,0-40.1s-3.4-3.2-5.2-17.9
	c-1.8-14.7-0.1-40-0.1-40s2.1-1.6,2-8.6s-0.5-321.6-0.5-321.6"/>
<polyline class="st18" points="1486,2120.6 1486,517.7 1659,478.1 1679.2,475.3 1709.7,457.7 1716,450 1716,425.8 1731.5,402.4 
	1793,363.1 1830.5,363.1 "/>
<path class="st18" d="M1434,2101.6v-711.8c0,0,13-11.9-3-37.5v-176l3-5.9V964.1c0,0,9-26.1,21-45v-62.4c0,0,2.8-2.6,2.8-12.8
	s-2.3-58.7-2.3-58.7s4.5,1.9,5.5-5.8V534.6"/>
<path class="st18" d="M1313.5,535.1h53.6c0,0,9.4-8.7,27.8,0l226.2-0.7"/>
<polyline class="st18" points="1620,486.6 1620,597.9 1626,607.5 1626,640.6 1623.1,645.1 1622.1,855.8 "/>
<path class="st18" d="M1406,534.6v162.5h-8v107h-21v30.6c0,0-5.8,6.2-4,10.8c1.8,4.6,3.5,7.8,2.1,10.4"/>
<path class="st18" d="M963.4,263l15.1,43.8c0,0-2.3,27.9,30.2,30.2s32.1-3.7,44.4,11.4c12.4,15.1,10.1,20.6,10.1,20.6
	s-10.1,7.8-3.2,15.1c6.9,7.3,21.5,9.6,23.4,15.1c1.8,5.5-0.5,5.5,5,8.7c0,0,3.1,1.3,1.4,6.4c-1.7,5.1,7.1,4.8,8.8,2.5
	c1.7-2.4,8.6,1.8,5.5,5.2c-3.1,3.4-12.7,3.5-14.8,2.1c-2.1-1.4-9.8,4.8-8.6,7.7c0,0-2.1,10.1,2.4,14.4c4.5,4.3,4.2,10.7,4.2,10.7
	s0.3,5.1,4.7,8.1c4.5,3,1.8,14.1,1.8,14.1s-1.4,6.4,1.8,7.5c3.3,1-2.4,7.5,0.7,10.2c3,2.7,5.9-1.4,8.7,2.5c2.7,3.9,2.6,6.2,6.5,5.5
	s4.8,0.1,5.5,3.4c0.7,3.3,9.4,6.2,11,6.2c1.6,0,2.9,4.3,2,9.4s4.5,4.2,4.1,7.6s-2.4,6.7,0,8.2s8.4,2.9,8.5,9.3
	c0.1,6.4,0,25.8,0,25.8s0.9,5.4-0.9,7.2s0.2,3.4-0.2,4.8c-0.4,1.4,0.7,3.3-1.3,6.3v21.5v170.8l8.7,13.3c0,0,0.8,44.8-8.9,50.4
	l-5.8,5.4l0.3,8.5l-11.9,14.9l-18.6,46.2l-22.6,90.9h-7.6"/>
<path class="st19" d="M491.3,251.7c0,0,9.9,15.6,6.3,41.4c-3.6,25.8-10.8,73.7-33.5,99.5s-33.5,53.1-32.5,69.1s-3.6,33,19.6,62.9
	c0,0,19.1,13.4,6.7,47.9c0,0,0.5,11.3,3.1,19.6c2.6,8.2,10.3,16.5,13.4,58.8s5.7,57.2,17,72.2c11.3,15,102.1,144.4,102.1,144.4
	l33.5,47.4c0,0,2.6,7.2,4.6,19.6s55.7,83,55.7,83s15,28.4,17.5,36.6c2.6,8.2,32.5,39.2,32.5,39.2l233,353.2c0,0,12.9,23.2,80.9,57.2
	c68.1,34,60.8,50.5,65.5,75.8c4.6,25.3-3.6,52.1,2.6,82.5c6.2,30.4,8.8,29.4,7.2,72.2c-1.5,42.8,0.4,127.9,0.4,127.9
	s-2.5,28.9-5.6,38.7c-3.1,9.8-11.9,50.5-10.3,72.7s1,72.2,1,72.2s-2.1,19.6,25.8,40.7c27.8,21.1,36.6,41.2,36.6,41.2"/>
<path class="st19" d="M906.5,1814.6h121.5c0,0,15.5-3.2,40.7,4.9c25.2,8.1,96.8,1.9,109.5-11.7c12.6-13.6,63.6-14.2,82.7,4.5
	s22.2,33.8,63.1,45.4s89.8-2,89.8-2s22.2-4,41.4-0.5c19.2,3.5,81.2-9.6,103.9-19.7s157.4,3.5,172.5,7.1c15.1,3.5,105.4-7.1,111-9.6
	c5.5-2.5,42.4-3,58.5,0.5c16.1,3.5,50.9,7.9,87.8-3.4s46.4,0.8,66.6,11.9c20.2,11.1,150.3,80.7,150.3,80.7s99.4,51.4,143.3,42.4
	c43.9-9.1,124.6-18.7,185.1-17.1c60.5,1.5,196.8-3.4,233.6-7.9"/>
<path class="st19" d="M1056,179.6c0,0,76.4,7.5,106.1,0s33.6,5.8,62.2,3.3c28.6-2.4,38.7-19.2,65-9.1c26.3,10.1,71.2,18.6,104.8,3.1
	c33.6-15.5,42.8-6.2,52-6.3c9.1-0.2,32.1,0.4,56.2-9.7c24.1-10.1,61.1,0,61.1,0s23.5,9.5,43.7,6.7c20.2-2.8,34.7,12.9,34.7,12.9
	s6.2,8.4,60.5-7.3s93.6-20.2,153.5-12.9c60,7.3,81.8,35.9,81.8,35.9s47.6,49.3,103.1,44.8c55.5-4.5,77.9,3.4,105.9-20.2
	c28-23.5,67.8,20.5,67.8,20.5s45.4,44.5,102.6,19.3c57.2-25.2,58.3-20.7,88-39.2c29.7-18.5,39.8-36.4,55.5-31.9
	c15.7,4.5,100.9,7.8,136.7,3.9c35.9-3.9,172.6-6.2,213-4.5c0,0,8.4,5.6,21.9,15.1c13.4,9.5,17.4,24.7,59.4,19.6
	c42-5,56-11.8,83.5-8.4c27.5,3.4,159.7-3.5,176.5-2.9c16.8,0.6,51.4,13.5,77.6,33.7c26.1,20.2,73.8,65.6,93.9,65
	c20.2-0.6,279.1,0,279.1,0s29.1,5,89.1,29.1c60,24.1,49.9,27.5,86.3,14c36.4-13.4,61.1-30.8,61.1-30.8"/>
<path class="st19" d="M1039.2,99.9c0,0,23.7,102.6,73.7,127.6c0,0,9.2,11.9,18.4,35.6c9.2,23.7,64.5,60.5,79,65.8
	c14.5,5.3,30.3,9.1,47.4,34.2c17.1,25,49.8,47.4,55.2,63.2s2.7,41.8,15.9,60.4s36.4,44.6,51.3,46.6c15,1.9,36.6-8.3,51.2,16.7
	c14.6,25,25,48.7,35.6,56.6c10.6,7.9,36.9,27.6,46.1,56.6c9.2,28.9,129,75,169.8,88.2c40.8,13.2,51.3,22.4,64.5,28.9
	c13.2,6.6,80.3,26.3,100,55.3c19.7,28.9,18.4,40.8,52.6,60.5c34.2,19.7,67.1,25,94.7,26.3s27.6,54.2,26.3,92.9
	c-1.3,38.7,11.8,74.2,47.4,80.8c35.5,6.6,90.8,1.3,138.2-19.7c0,0,13.2-11.8,32.9-6.6c19.7,5.3,54-6.6,68.4-14.5
	c14.5-7.9,47.4-23.7,89.5-17.1c42.1,6.6,60.5,14.5,107.9,31.6c0,0,44.7,10.5,96.1-3.9c0,0,72.4-7.9,102.6-7.9
	c30.3,0,65.8-13.2,65.8-13.2s15.8-7.9,32.9-3.9s96.1-22.4,105.3-28.9c9.2-6.6,118.4-7.9,185.5,10.5c67.1,18.4,83.4,15.8,135.8,42.1
	c52.4,26.3,35.3,35.6,91.9,34.2c56.6-1.3,93.4,22.3,106.6,44.7c13.2,22.4,51.3,73.7,67.1,81.6s354,129,354,129"/>
<path class="st19" d="M1580.4,118.2c6.6,38,39.2,49.8,61.4,62.2c22.2,12.4,25.4,35.3,25.4,35.3s36.4,166.2,38.9,176.1
	c2.5,9.9,10.8,12.4,20.7,53.8c9.9,41.3,28.1,47.3,28.1,47.3l62,38.2l46.3,46.8l62.1,76.1l56.2,45.5l24,6.6c0,0,5,4.1,20.7,20.7
	s8.3,27.3,8.3,34.7c0,7.4,0.8,14.9,5.8,19.8c5,5,13.2,28.9,13.2,33.1c0,4.1-2.5,25.6,5,50.4s6.6,33.1,8.3,61.2
	c1.7,28.1-9.1,52.1-17.4,65.3c-8.3,13.2-16.5,28.9-16.5,28.9s-2.5,23.2-10.8,41.3c-8.3,18.2-26.5,32.3-26.5,32.3l-31.4,8.3
	l-47.1,24.3c-58.7,16.9-57.9-13.5-95.1-26.8s-74.4-43-74.4-43s-18.2-28.9-50.4-29.8c-32.3-0.8-65.3,10.8-65.3,10.8
	s-184.4-5.8-213.4,4.6c-28.9,10.4-153.8,10.3-176.1,13.6c-22.3,3.3-83.5,5-83.5,5s-24.8-6.6-65.3-14.9c-40.5-8.3-54.1,0-54.1,0
	s-57.5,36.4-67.5,44.7c-9.9,8.3-64.5,11.6-89.3-1.7s-48-14.3-48-14.3s-12.4,1.9-60.4,0.2s-77.7,6.6-77.7,6.6s-37.2,16.5-69.5,25.6
	s-36.4-0.8-88.5,14.1c-52.1,14.9-91,46.3-93.4,54.6c-2.5,8.3-48.8,38-57.1,42.5c-8.3,4.5,0.8-7-24.8,4.6s-30.6-12.4-30.6-12.4
	l-70.3-69.1l-95.7-64.2c0,0-7.5-2.7-15.5-4.9c-8-2.2-39.4-17.7-39.4-17.7l-9.7-11.2l-16.8-9.2l-8.4-8l-26.6-7.5"/>
<path class="st19" d="M1789.9,652.3c0,0-3-8.5,7.3-16.4c10.3-7.9,53.5-62.1,52.9-90.7s-1.8-45.9,20.1-58.6
	c21.9-12.6,91.9-55.8,91.9-55.8s28.6-17.6,18.3-56s-3.4-66.9,2.3-93.7c5.7-26.8,20.9-97.4,20.9-97.4s4.9-17.6-3.7-39.6
	s-6.1-38.9-0.6-38.9"/>
<path class="st19" d="M2473,371.3c0,0,0-7.8,8.8,27.5s-29.4,34.3-29.4,34.3s-37.3,1-59.8,0.1c-22.6-1-44.1,11.8-44.1,11.8
	s-15.7,18.6-28.5,21.6s-25.5,11.8-25.5,11.8s-4.9,18.6-29.4,14.9c-24.5-3.8-19.6,18.5-19.6,18.5l-17.7,22.9
	c-31.4,32.7-40.2,15.3-73.6,26.1c-33.4,10.8-39.2,51-39.2,51s-2.9,59.8-30.4,59.6c-27.5-0.3-61.8,23.9-61.8,23.9
	s-79.5,70.5-80.4,84.3c-1,13.7-21.6,32.4-36.3,41.2c-14.7,8.8-39.2,16.7-39.2,16.7l-53,51c0,0-11.4,37.3-68.3,73.6
	c-56.9,36.3-48.9,94.1-48.9,94.1v54.6l-38.3,87.7l-5.2,101.6l8.7,54l1.1,76.9l-4.3,31.5v181.4l9,47.7v28.5v74c0,0-7.8,16.7-9.6,55.9
	c-1.8,39.2-29.6,76.5-33.5,98.1c-3.9,21.6-5.9,91.2,0,106.9c5.9,15.7,2.9,8.7,3.9,33.3s6.8,75.4,6.8,75.4"/>
<path class="st19" d="M2222.4,2128c0,0,0-103,30.2-126.5c30.2-23.5,34.7-119.4,34.7-119.4s3.4-36.3-5.6-59.8s29.1-47,29.1-47
	s25.8-7.8,24.6-85.1c-1.1-77.3-3.4-100.8,5.6-119.8c9-19,16.8-108.6,7.8-136.6s-39.2-54.9-44.8-67.2c-5.6-12.3-17.9-14.6,0-57.1
	c17.9-42.6,14.6-114.2,14.6-114.2s-11.2-59.3,1.1-95.2s16.8-47,14.6-89.6c-2.2-42.6,18.5-60.5,18.5-60.5s28.5-13.4,15.1-60.5
	c-13.4-47,12.3-78.4,12.3-78.4s15.7-38.1,12.3-49.3"/>
<path class="st19" d="M2735.9,2115.6c0,0-13.9-164.4-3.7-233.6c10.2-69.2,62-165.4,62-165.4s65.7-121.3,66.7-157.4
	c0.9-36.1,47.2-104.6,61.1-119.4c13.9-14.8,34.3-98.1,39.8-127.8c5.6-29.6,43.5-55.5,43.5-55.5s17.6-23.1,22.2-43.5
	c4.6-20.4,46.3-59.3,88-84.2c41.7-25,80.5-50.9,108.3-89.8c0,0,5.6-13.9,42.6-26.8c37-13,41.7-24.1,60.2-63.9
	c18.5-39.8,48.1-90.7,44.4-119.4s2.1-52.8,8.4-71.3s7.3-42.6,6.4-60.2s25-51.8,39.8-63c14.8-11.1,39.8-36.1,44.4-84.2
	c4.6-48.1,48.1-98.1,48.1-98.1s75.9-68.5,91.7-97.2c15.7-28.7,34.3-44.4,32.4-71.3"/>
<path class="st19" d="M2422.1,306.4c0,0,13.2-59.9-7.2-128.2c-20.4-68.3,0-78.3,0-78.3"/>
<path class="st19" d="M2003.7,925.1c0,0,6.2-26.7,52.1-25.2c45.9,1.5,44.4,23.5,82.4,8c37.9-15.5,69.4-8,69.4-8s34.4,8.5,68.4-17.4
	s73.9-31.4,73.9-31.4s23.5,11.5,63.9-18c40.4-29.4,70.9-47.9,126.8-47.9c55.9,0,492.2-7.5,492.2-7.5s14-5.5,51.4,16.5
	c37.4,22,123.8,18,123.8,18s19.5-7.5,37.4,0.5s34.4,28,82.9,23.5s402.8-58.9,402.8-58.9l80.4,2"/>
<path class="st19" d="M1995.5,1094.1c0,0,56.6-3,82.8,8.6c26.2,11.6,97.1,50.6,97.1,50.6s17.9,10.5,47,8.7
	c29.1-1.8,60.4,7.3,110.2,35.7s59.7,30.2,86.9,60.8c27.3,30.6,50.2,59.3,50.2,59.3s9.5,21.2,22.9,36.2
	c13.5,15.1,37.1,44.9,37.1,44.9l25.8,23.6l38.2,44l23.6,35.3l12.7,50.6c0,0,7.6,23.6,26.9,39.3c19.3,15.6,66.9,55.7,66.9,55.7
	s12,8.4,26.2,35.3l135.7,238.3c0,0,12,16.7,30.9,29.5s29.5,20.7,49.5,47.7c20,26.9,133.5,105.8,157.9,117.7"/>
<polyline class="st20" points="310.8,1225.7 505.3,1040.2 605.6,980.8 713.7,945.1 1048.1,671.2 1092.8,643.5 1639.5,639.1 
	1651.4,630.6 1663.5,630.6 1670.3,639.9 1681.7,646.1 1701.2,692.6 1709.9,704.3 1718.9,709.7 1725.9,721.7 1743.7,731.4 
	1752.7,741.8 1781.5,736.1 1834.6,762.9 1843.5,779.6 1843.5,799.8 1851.9,831.2 1868.6,849.3 1874.7,834.5 "/>
<path class="st20" d="M411.9,1203.7l19.8,22.2l67.3,62l124.7,72.9l9.9,7.4l58.1,80.7l35.9,33.5l40.9,72.2l19,10.9l27.8,41.4
	l41.2,46.7h79.6c0,0,17.3-2.3,17.6,11.5c0.4,13.7,1.5,227,1.5,227l2.2,16.6v201.9"/>
<polyline class="st20" points="609.3,1352.4 746.4,1273 1077.8,1043.5 "/>
<path class="st19" d="M997.4,1391.1l-3.9,6.1l-19.2,6.5l-76.7-7.4c0,0-26.6,1.7-42.7,16.1c-16.1,14.4-37,31.4-37,31.4
	s-13.1,14.4-49.3,3.1c-36.2-11.3-96.8-25.7-96.8-25.7"/>
<path class="st21" d="M676.1,1629.8l40.2-22.3l99-0.8l141.6-1.7h130.7c0,0,7.3,3.9,15.3-7.7c0,0-0.9-4.5,15.3-4.8s97.5-1.8,97.5-1.8
	"/>
<polyline class="st21" points="2871.7,1919.9 2873.2,1786.8 2802.8,1785.3 2746.6,1750.4 2633.4,1680.1 2605.9,1668.8 
	2494.3,1599.7 2433.5,1554.7 2347.4,1544.6 2022.2,1502.1 1979.1,1495.7 1316.6,1497.5 1246.3,1537.3 1226.4,1559.6 1211.1,1566.9 
	1150.3,1561.1 1083.4,1592.6 1074,1599.3 1074,1605.6 "/>
<path class="st21" d="M2503,2127.6v-132.1v-15.5c0,0,1.7-13.5,8.3-23.4c6.6-9.8,102.1-167.9,102.1-167.9s3.9-3.4,3.9-7.9
	c0-4.4,1.9-8.4,3.9-11.1c2-2.7,16.2-28.1,16.2-28.1l102.7-241.3l69.2-118.7l33.2-28.8l16.5-31.8V1298l17.1-56.4l13.4-53.9l7.6-15
	l33.7-22.4l39.6-77.8l9.6-24.4l-0.5-177.8l-6.2-23.6l-42.8-46.5l-3.2-10.3l-4.4-320.1l5.4-28.1l-3.2-84v-153"/>
<polyline class="st19" points="2963.5,216.4 2941.4,233.4 2471.4,236.3 2473,371.3 "/>
<path class="st21" d="M3795.5,327.1h-29.2c0,0-22.4,1.2-43.8-20.6c-21.4-21.8-22.8-24.4-45.6-25.3c-22.8-1-93.2,0-93.2,0l-117.5,2.1
	c0,0-15.5,0.9-31.6-7.1H3391l-183.1,3h-64l-35.6-62.3"/>
<polyline class="st21" points="2411.9,1159.7 2758.6,1247.9 2913.7,1326.1 3011.2,1409.3 3059.6,1451.2 3115.1,1543 3289.2,1660.9 
	3487.2,1751.1 3572.2,1751.1 3627.3,1758.1 3810.5,1758.1 "/>
<path class="st22" d="M3407,2120.3c0,0,29.5-22.8,40.8-40.3c11.3-17.5,17.8-57.7,42.2-78.6c24.4-20.9,78-82.1,78-82.1V1760v-5.3"/>
<polyline class="st22" points="2265.9,1816.3 2355.4,1826.6 2386.3,1833.7 2524.4,1920.1 3867.5,1920.1 "/>
<polyline class="st23" points="747.3,1517.1 878.4,1446.6 760.3,1333.4 728.3,1283.5 "/>
<path class="st23" d="M1662.4,1388.8l-449.7,2.3c0,0-22.8,1-46.8,9.2c-24,8.2-91.8-5.8-91.8-5.8s-16.3-4.5-34.9-3.2
	c-18.6,1.3-71.9,0.3-71.9,0.3h-16.8l-72,55.2"/>
<path class="st23" d="M1105.3,1563.8c0,0,9.8-7.4,9.4-37.5c-0.4-30.1-2.3-102.3-2.3-102.3s0-31.2,8.2-43c8.2-11.7,2.3-47.7,0-51.2
	c-2.3-3.5-24.2-46.3-24.2-46.3l1.6-57.8l-5.1-17.4c0,0-4.3-10.9,0-18.7c4.3-7.8,11-20.7,9-36.7c-2-16,6-71.1,6-71.1l14.3-38.3"/>
<polyline class="st23" points="1062.7,1050.5 1092.7,1073.2 1106.8,1088.5 "/>
<path class="st23" d="M1077.2,657.6l2.3,301.3c0,0-3.1,9-5.1,19.6c-2,10.6,2.5,16,2.5,16s-6.1,23.1-6.1,25.4
	c0,2.3,1.6,30.6,1.6,30.6"/>
<path class="st21" d="M2549.8,524.2l63.6-48.8l36.6-29.3l155-64.9l49.4-19.2l70.2-11.8l118.5-9.7c0,0,36.7,6.7,59.1,0
	s47.9-52.6,47.9-52.6s9.7-21.9,21.7-21.9s12.3,0,12.3,0v-44.5"/>
<polyline class="st18" points="1142.8,558.9 1147.4,563.1 1169.1,563.1 1177.7,560.1 1620.1,560.8 "/>
<path class="st18" d="M51.5,958.1l20.7-6.4c0,0,8.8-1.3,14.5,1.3c5.6,2.6,15.6-2.8,15.6-2.8l24.5,1.4l10.8-8c0,0,7.1-4.5,11.3,2.8
	c4.2,7.3,5.4,8.7,9.6,10.4s48.9,46.3,48.9,46.3s6.4,7.1,10.1,1.9s3.1-18.1,3.1-18.1s-0.5-2.4,5.2-6.1c5.6-3.8,12.9-8.9,12.9-8.9
	s4-3.1,4.7-6.4c0.7-3.3,2.6-7.8,4.5-10.6s3.8-4,4.2-9.2s0.7-11.5,4.7-11.5c4,0,7.8-0.2,10.1,6.8c2.4,7.1,0.2,13.6-1.6,16.2
	c-1.9,2.6-5.4,5.6-3.3,8.5c2.1,2.8,3.8,5.2,8.2,3.8c4.5-1.4,15.3-22.1,15.3-22.1s9.2-18.3,17.6-22.1c8.5-3.8,8.5-2.8,17.9-4.5
	s6.4-7.3,6.4-7.3s-0.9-1.2,7.3-7.3c8.2-6.1,11.1-6.1,12.2-12c1.2-5.9,2.6-21.9,2.6-21.9s-0.5-7.1,6.1-6.1c6.6,0.9,8.9,1.4,8.9,6.8
	s0.9,7.1,4.2,9.6c3.3,2.6,3.1,2.4,6.1,8.5c3.1,6.1,16,4,16,4s8.2-1.4,15.3-4.9c7.1-3.5,13.9-2.1,13.9-2.1s10.1-0.5,16.5-2.4
	s20.2-7.3,20.2-7.3l49.2-46.3l-1.4-18.3c0,0,0.7-14.3,6.6-23.5c5.9-9.2,25.6-21.6,25.6-21.6s5.4-6.8,12,0c6.6,6.8,15.3,2.6,15.3,2.6
	l7.1-7.1l15.5-1.4l15.8-17.4c0,0,1.9-1.6,6.1,0c4.2,1.6,17.2,7.5,22.3,16c5.2,8.5,3.8,9.9,13.4,8.7c9.6-1.2,16.5-1.4,16.5-8.7
	c0-7.3-1.9-15.5,7.8-18.8c9.6-3.3,20.7-3.8,20.7-3.8l21.2-19.8c0,0,6.8-0.5,8.7-7.3c1.9-6.8,6.1-14.3,16.3-8.3
	c10.2,6.1,11.2,16.6,11.2,16.6s0.3,8.9,7,7.3s9.3-6.4,10.2-8c1-1.6,2.6-6.4,9.3-4.8s17.9,2.2,20.1,7.3c2.2,5.1,7.3,16.9,7.3,16.9
	s1.9,9.6,9.3,5.4c7.3-4.2,16.9-8,16.9-8l20.1-14.7l13.1-10.9l29.1-31.6c0,0,3.8-7.7,16.6-7s25.2,0.8,45-8.5
	c19.8-9.3,29.4-19.7,29.4-19.7h52.1c0,0,10.2-5.9,17.8-9.4c7.7-3.5,20.2-13.8,21.1-15.1c0.9-1.3,5.4-7.7,11.4-7.7s12.5,0.9,19.5-3.8
	c7-4.8,4.8-6.4,13.1-8.6s11.5-8.7,11.5-8.7s-0.6-2.6,4.8-2.6c5.4,0,488.3,0,488.3,0"/>
<path class="st18" d="M1382,2101.6v-511.2c0,0-27-9.2-27-33.3c0-24.2,0-255.2,0-255.2s-0.5-9.2-9.7-21.1c0,0-16.4-16.7-16.9-31.7
	c-0.6-15,0-177.9,0-177.9l98.3-215.4"/>
<path class="st18" d="M314.5,1188.5l259.4-253c0,0,2.5-6,2.8-9.9c0.3-4,2.8-12.4,12.4-15c9.6-2.5,19.5-7.1,33.6-16.1
	S725.6,858,725.6,858s4.2-0.8,8.2-13.8c4-13,24-26,24-26s6.5-9.3,25.4-7.6s47.7,7.6,47.7,7.6l201.3-0.3l73.4,19.2l90.9,13.7
	l271.9,5.3h169.2l29.3,15.8c0,0,8.5-0.9,21.7,11.3c13.3,12.1,22.6,12.1,22.6,12.1l74.5,42.9l25.1,19.8"/>
<line class="st18" x1="1622.5" y1="1870.5" x2="1620.7" y2="1231.3"/>
<path class="st18" d="M952.9,1390.2l10.1-8.3l-2-61.6c0,0-1.7-9.9,3.1-20.4c4.8-10.4,35-83,35-83s4.5-9,5.1-17.2
	c0.6-8.2,6.8-17.8,9.3-20.9c2.5-3.1,5.6-16.1,30.5-20.3c24.8-4.2,29.9-8.2,29.9-8.2s-2.3-2.5,15.5-1.1c17.8,1.4,33.3,3.2,56.7,3.5
	c23.4,0.3,173.9-0.5,173.9-0.5h8.2l82.2,24.2l240.3-0.5l12.4,4.3"/>
<path class="st18" d="M1228.4,1388.8c0,0,5.1-15.8,21.2-24.8c16.1-9,25.1-14.7,33.3-15.5c8.2-0.8,23.3-3.7,25.2-8.5
	c1.9-4.8,4.2-11.3,8.7-13.3c4.5-2,12.7-3.8,13.8-8.7c1.1-4.9,2.5-25.2,12.1-30.6c9.6-5.4,11,0,12.7-4.8c1.7-4.8,11-16.9,16.7-22.6
	s31.1-28.5,31.1-28.5"/>
<polyline class="st18" points="1808.5,1231.1 1328.3,1231.1 1226,1152.6 "/>
<line class="st18" x1="1332.5" y1="1310.1" x2="1539.5" y2="1310.1"/>
<path class="st18" d="M1355.5,1283.1h622.4c0,0,22.1-2.8,22.1,18.7c0,21.5,0,278.3,0,278.3l39.9,75.7l53.1,213.5l12.3,237.9"/>
<polyline class="st18" points="2115.6,2107.2 2106.9,1991.5 2167.2,1810.6 "/>
<polyline class="st18" points="1137.5,1710.1 1914,1710.1 1914,1994.2 1921.2,2008 1925.7,2115.6 "/>
<polyline class="st18" points="1843.6,2107.4 1825.1,2019.7 1819.8,2004 1823.6,1581.4 1834.7,1569.9 1834.1,1203.9 1866,1161.4 
	1866,1155.6 1881.9,1135.4 "/>
<line class="st18" x1="1755" y1="2097.6" x2="1755" y2="1198.6"/>
<polyline class="st18" points="1701.1,1293.1 1839.7,1041.4 1867.8,1011.7 1877.7,999.4 1890.2,973.2 1899.6,943.5 1921.5,910.7 "/>
<polyline class="st18" points="355.2,1225.7 394.8,1269.4 440.8,1323.7 498.1,1408.3 532.9,1460.9 634.3,1388.8 864.4,1235.4 "/>
<path class="st18" d="M473.3,1371.7l6-3.5c0,0-0.6-4.1,12.3,0s47.7,13.5,47.7,13.5l14,9.5c0,0,6.1,10,17.5,9.2
	c11.4-0.8,54.2-4.9,54.2-4.9"/>
<polyline class="st18" points="507.9,1423.1 546.6,1395.9 557.4,1388.8 565.3,1383.3 579.9,1375.4 609.8,1356.1 "/>
<path class="st18" d="M453.3,1342.2l153.2-97.2c0,0,5-2.9,14-2c9.1,0.9,17.3-0.3,21.4,6.1s52.4,81.3,52.4,81.3l5.4,14.8"/>
<polyline class="st18" points="647.7,1326.5 593.7,1240.1 584.2,1240.1 527.6,1155.6 "/>
<polyline class="st18" points="382.3,1255.8 384.9,1251.9 418.5,1225.8 540.8,1147.6 565,1130.1 589.9,1115.2 623.5,1098.2 
	663,1074.2 686.7,1056.9 708.9,1044.9 719.7,1038.2 782.3,1002.8 894.3,923.9 939.4,907 951.7,904.1 995.7,904.1 1021.6,904.1 
	1162.8,937.4 1196.5,952.3 1243.6,957.2 1271.9,958.1 1319.6,951.5 1422,965.1 1649.2,965.1 1724.4,1004.2 1785.8,1041.5 "/>
<polyline class="st18" points="680.2,1060.7 663.3,1123.6 645.7,1133.6 625.6,1149.7 567.6,1189.6 442.2,1276.9 417.6,1296.4 "/>
<path class="st18" d="M1688,2102.6v-33.4l13-18.2v-860.5l57.3-107.3l32.9-49.4l15.4-21.4l23.8-18.1l9.8-8.2l34.5-43.6l24-30.4
	l22.8-30.4l17.3-22.2l9.9-16.4l42.1-28.4c0,0-0.6-5.8,12.9-1.5c13.5,4.4,26.3,11.4,36.9,11.4c10.5,0,74.3-0.9,74.3-0.9l8.5,5
	c0,0,17.3-1.5,32.2,2.6c14.9,4.1,80.4,23.8,92.4,19.6c12-4.1,18.7-9.7,22.5-18.8c3.8-9.1,3.8-13.3,21.4-14.2"/>
<path class="st18" d="M1981.5,957.8l6-32.8l5.3-14.4l29.3-14.2c0,0,10.8-2.3,18.4-9c7.6-6.7,26.3-24.9,26.3-24.9l19.7-14.6
	c0,0,16.7-16,23.7-19.3c7-3.3,35.7-21.3,35.7-21.3l13.7-17.3l19.3-31.9l9.4-17.3l3.5-20.8l34.2-40.1l8.8-3.8h16.2l21.2,6.1
	l32.8-16.1l23.1-13.7l28.7-2.6c0,0,7.3-2.3,14.9-9.1c7.6-6.7,44.5-36.9,44.5-36.9s7.6-6.7,8.2-23.1c0.6-16.4-2.9-21.6,6.7-29
	s4.7-7.9,25.7-8.5c21.1-0.6,63.5,0,63.5,0s5.4,0.8,20.5-11.7l7.7-6.4"/>
<line class="st18" x1="1275.1" y1="2103.8" x2="1275.6" y2="1520.7"/>
<path class="st18" d="M1221.1,2101.6l1-443.2l3.6-31.1c0,0-7.3-0.9-7.7-32.1c-0.4-31.3,5.2-29.1-2.2-39.3s-23.7-35.1-23.7-35.1v-48
	l-6.1-29.1l5-31.6c0,0-2.6-8-5.1-20.8c-2.6-12.9-4.1-40.9,0-50.1s4.1-18.4,1.5-27c-2.6-8.7-10.1-12.5-4.1-31
	c6.1-18.5,10.2-20.6,9.7-36.9s7.7-19.9,7.7-19.9s3.3-4,2.7-28.3c-0.6-24.3-4.5-46.2,0-61.5c4.5-15.3,14.2-23.5,18.8-37.8
	c4.6-14.3,33.1-87.3,33.1-87.3l18.9-61.2v-22.3l5-15.5c0,0-4.3-15.8-11.4-16.8c-7.1-1,0.4-23.5,0.4-23.5s6.1-12.2,6.1-27.6
	c0-15.3,1.5-247.5,1.5-247.5l-13.3-48.5c0,0,0-3.1,16.3-3.6c16.3-0.5,27.6,0,27.6,0"/>
<path class="st18" d="M1170,2098.2l-0.6-440.8c0,0-3.3-20-3.3-47.1s0-46.7,0-46.7"/>
<polyline class="st18" points="1063.6,2097 1064.1,1690.4 1074,1667.1 1074,1601.6 "/>
<line class="st18" x1="959.1" y1="2084.6" x2="1592.9" y2="2085.2"/>
<path class="st18" d="M824.7,2037.7l14.4-6.6h908.5l19.4-4.5l59.2-1.6l89.8-3.4l650.5-5.3c0,0,15.6,1,31.9,12.6c0,0,2,3,38.5,2
	s578.8-3.3,578.8-3.3s21.2,1.7,37.5,12.6c16.3,11,22.6,17.3,47.5,16.6s66.7-4.6,66.7-4.6s52.4,0,67,11.3
	c14.6,11.3,87.6,14.6,87.6,14.6s38.2,0.7,49.8-2s30.9,2.1,30.9,2.1s13.6,3.9,16.3,3.9s14.9,6,16.6,17.6"/>
<path class="st18" d="M1742,2102.9c0,0,25.2-6.3,33.5-12.2c8.3-5.9,22.1-16.6,37.3-16.2c15.2,0.3,848.1-4.5,848.1-4.5"/>
<line class="st18" x1="1275.5" y1="1978.1" x2="1820.5" y2="1978.1"/>
<polyline class="st18" points="1750.8,2115.5 1726,2010 1726,1397.6 1724,1390.2 1724,1345.9 1730,1339.6 1730,1240.6 "/>
<path class="st18" d="M1708,1231.6v-10l69.1-127.9c0,0,4.9-6.1,19.5-28.1c14.6-21.9,23.1-33.8,23.1-33.8l33.2-32.5
	c0,0,5.8-9.2,7.6-12.6c1.8-3.3,8.5-10.2,8.5-10.2"/>
<polyline class="st18" points="1764.4,1086.7 1807,1023.4 1845.4,992.3 1869.1,964 1879.8,954 1918.1,895.3 1925.3,894.5 "/>
<path class="st18" d="M1673,2101.6v-873.5l54.2-104.2l37.1-64.4l30.2-41.7l9.5-8.7l93.3-120.7l10.7-9.3l19-48.9l8-14.4l33.4-29.5
	c0,0,18.2-7.2,32.2-6.2c14,1,13.6,3.1,13.6,3.1"/>
<path class="st18" d="M2032.9,2110.7l-111.6-722.1l-10.5-140.9l1.3-96.9L1920,974l8.6-107.6l6.2-23.3c0,0-1.6-8.9,11.5-17.7
	c13.1-8.9,31.4-23.6,31.4-23.6s9.4-4,18.8-8.6c9.4-4.6,46.7-24.2,46.7-24.2l130.6-2.4"/>
<path class="st18" d="M1433.5,1445.1h51.3c0,0,8.1-2,13.4-4h90.1l13,2h16.7l7.3-3h123.4l8.4,5h170.2h107.4c0,0,11.4,3.4,37.7,6.7
	c26.3,3.4,475.4,61.5,475.4,61.5s15.1,3.6,24.9-2.8s7.8-7.6,14.8-9c7-1.4,14.4-12.3,12.6-20.2c-1.8-7.9-9.8-22.5-9.8-22.5l17.3-41.9
	c0,0,3.6-2,5.9-6.4c2.2-4.5,59.9-124.8,59.9-124.8s1.4-6.2,10.1-7c8.7-0.8,19.9-2.8,21.3-11.9c1.4-9.1,32.2-122.7,32.2-122.7
	l13.7-17.9c0,0-3.4-29.9,7.3-36.9c10.6-7,19.3-15.4,29.9-16.2s13.2,0.3,22.9-7s12.6-15.1,31.9-10.9c19.3,4.2,24.1,7.6,33.6,2
	s13.4-5.6,6.7-14c-6.7-8.4-12.4-14.4-12.4-14.4"/>
<polyline class="st18" points="1064.5,1870.1 1131.6,1870.1 1142.1,1872.2 1433.9,1870.1 "/>
<polyline class="st18" points="1485.5,1869.9 1558.4,1868.1 1569.1,1872.1 1870.5,1872.1 1885.6,1864.1 1913.5,1864.1 "/>
<path class="st18" d="M954.5,1846.1h53.5v-5h5.8l13.5-8h7.3c0,0,13.8-9.5,29-6.8s62.7-4.4,62.7-4.4l39.6-2.8H1723l7.4-3h65.1
	l11,10.9l111.4,0.4l55.9,3.7"/>
<polyline class="st18" points="836,1816.6 836,1924.3 2009.9,1926.6 2045.9,1921.5 "/>
<path class="st18" d="M2054.4,2107.4c0,0,3.6-19.8,2.3-40.2c-1.3-20.5-4.8-68.6-4.8-68.6s-1.1-5.9,0-11.2s1.8-15.1,0-21.1
	c-1.8-6-9.7-62.7-9.7-62.7s-3.9-21,0-39.4c3.9-18.3,12.8-36.2,13.1-47.9s4.3-59.2,4.3-59.2s5.3-7.3,6.3-14.5
	c1-7.3,28-221.4,28-221.4s5.9-13.2-2.3-19.8c-8.2-6.6-14.8-6.3-15.2-30.3c-0.3-24.1-2-81.5-2-81.5"/>
<path class="st18" d="M1666.5,1390.1h458.9l187.6,23.3c0,0,10.2-8.5,41.6-3.5c31.3,4.9,100,12.3,126.3,20.5
	c26.4,8.2,36.6,13.9,47.8,19.8c11.2,5.9,86.2,47.9,86.2,47.9s-4.1-8.3,12.4-9.3c16.5-1,46.8,12.9,46.8,12.9l135.9,51.1
	c0,0,12.2,4.3,32.7,1.3c20.5-3,28.7-2.3,43.7,2.6c15,4.9,40.8,10.9,53.3,12.2s39.9-7.6,64.3,6.9c24.4,14.5,59.4,35.6,59.4,35.6
	l125,103.3l37.3,38.6l42.9,32.7h97.8"/>
<line class="st18" x1="3366" y1="1829.6" x2="3366" y2="1696.6"/>
<path class="st18" d="M3369.4,2117l34.4-81.7c0,0,3.1-25.7,2.9-56.3c-0.2-30.7,0-141.8,0-141.8l7.4-21.1v-83.3l5-10.4"/>
<path class="st18" d="M849.9,2101.3c0,0-10.8-16.2-13.9-26.6s-12.8-57-25.1-70.6s-14.9-16.7-17.5-26.2s-6.4-11.5-11.4-19.1
	c-5-7.6-16.2-32.3-16.2-32.3l-23.1-54.8c0,0-1.7-3.5-7.6-15.1c-5.9-11.6-21.4-53.6-21.4-53.6l-22.9-54.9l-23.5-51.1l-16-30.7
	c0,0-7.1-16.4-8.6-22.7c-1.5-6.3-11.1-27.5-3.2-34.3c8-6.7,24.4-21.9,24.4-21.9s10.5-14.3,12.4-17.7c1.9-3.4,22.1-34.5,22.1-34.5
	s2.3-4.6,10.5-8.8c8.2-4.2,24-11.8,22.5-16.8c-1.5-5-5.9-17,4.8-30.7c10.7-13.7,30.1-42.9,30.1-42.9l23.1-32.2l22.7-35.3l21.2-31.5
	l26.5-40.7l17.7-26.2l20.2-30.7l16-27.5l9-8.3l20.6-30.8l22.7-36.4l15.6-23.1l1.5-21.9l4-9.5l6.7-12.6c0,0,4.4-5.5,6.7-20.4
	c2.3-14.9,11.1-54.2,11.1-54.2l8-38.7l9.3-19.6c0,0,4.1-25.4,3.9-45.6c-0.2-20.2,0.4-102.6,0.4-102.6v-46.8c0,0-0.3-5.4-5.5-14.6
	c-5.3-9.2-7.5-16.2-6.4-29.8"/>
<path class="st18" d="M997,715.4c0,0,26,4.2,35.6-1.1c9.6-5.3,13.4-5.7,27.7-6.3s20.4-3.8,25.4-6.5s6.3-8,19.6-7.1
	c13.2,0.8,58.2-0.1,58.2-0.1l64.6,0.9l72.8,1.5l115.4,0.2l85.6-0.4l94-1.3l26.9,0.3"/>
<path class="st18" d="M274.8,1150.1l170.8-165.5c0,0-8.4-5.7-6.4-10.7c2-5,15.7-4,15.7-4s5.7,1,15-9.4c9.4-10.4,54.2-54.5,54.2-54.5
	"/>
<path class="st18" d="M213.5,1006.9c0,0-0.9,11.1-0.1,18.5c0.8,7.4-2.5,13-4.1,14.4c-1.6,1.3-4.7,12.7-4.1,16.7c0.7,4,0,8.7,0,14
	s6.7,13,8,18.4c1.3,5.3-8,10.4-8,10.4s8.8-8.9,19.1-10.8s13.2,1.3,19.9-3.6c6.7-5,15.1-15.7,15.9-19.1c0.8-3.4,5.5-11.7,8.6-2.9
	s5,10.7,6.9,12.8c1.9,2.1,36.6,38.2,36.6,38.2"/>
<path class="st18" d="M101.8,1043.5c0,0,9.5,5.6,13.5-8.1c4-13.7,7.4-21.1,9.4-23.4c2-2.3,2.3-7.2,2-12.6c-0.3-5.4,4-15.1,7.7-20.8
	s11.4-15.7,11.4-20.1s-1.1-15.8-1.1-15.8"/>
<path class="st18" d="M237.4,1122.2c0,0,9.8-18,18.9-27.1c9.2-9.2,21.4-18.5,22.8-24.1c1.3-5.5,9.6-30.6,13.2-39.8
	c3.6-9.2,17.8-21.8,17.8-21.8s46.5-51,65-55.6c18.5-4.6,98.8-23.7,98.8-23.7l30.6-8c0,0,22.6-5.4,28.5-7.3
	c5.9-1.9,24.3-3.8,28.7,3.3c4.4,7.1,42.3,61.4,42.3,61.4"/>
<path class="st18" d="M454.7,879.3l15.9,22.8c0,0,6.2,26.7,13.6,31.5c7.4,4.9,13,6.1,12.8,10.9c-0.2,4.8,1.7,8.2,6.5,11.3
	c4.8,3.1,15.5,8.8,15.1,14.7c-0.4,5.9-0.2,16.3,7.1,21.6c7.3,5.4,49.9,48.6,49.9,48.6l45.9,48c0,0,11.1,11.3,19.7,26.4
	c8.6,15.1,14,24.9,16.3,36.3s2.5,30.3,9.4,38.2s52.8,80.7,52.8,80.7l6.7,11.1"/>
<polyline class="st18" points="650.9,1263.1 684.2,1243.9 696.1,1233.5 "/>
<polyline class="st18" points="256.3,1095 295.5,1130 399.5,1240.5 "/>
<polyline class="st18" points="357.1,1222.7 378.2,1203.7 499.7,1084.8 "/>
<polyline class="st18" points="279.7,1068.4 407.6,1197.9 410.8,1201.2 "/>
<line class="st18" x1="468.9" y1="1193.6" x2="301" y2="1018.5"/>
<line class="st18" x1="388.2" y1="1040.3" x2="510.3" y2="1167.1"/>
<line class="st18" x1="463.7" y1="1079.9" x2="533.2" y2="1152.5"/>
<path class="st18" d="M507.1,1103.7c0,0,4-6.1-3.7-14.7c-7.7-8.5-80.8-82.1-80.8-82.1l-65.5-68.1c0,0-3.4-7.7,1.2-17.4
	c4.6-9.7,6.6-14-4.3-13.4s-12.3-1.9-13.8-5.6"/>
<path class="st18" d="M505.8,832.2c0,0,11,1.4,11,16s-3.1,20.8-1.7,27.4s3.1,25.9,14.5,37.4c11.4,11.6,33.2,33.4,33.2,33.4
	s0.2,3.9,2.7,7.6s75.8,103.7,75.8,103.7l55.9,87.2l19.1,29.1c0,0,3.3,4.8,9.9,6.3c6.6,1.4,11.7-3.4,18.3,6
	c6.6,9.4,81.2,124.5,81.2,124.5"/>
<path class="st18" d="M719.5,1332.1h38.1l45.4-3.8c0,0,11-0.8,13.9-7.4c2.8-6.6,11.7-11.7,14-13.9c2.3-2.3,36.5-78.7,36.5-78.7
	s4.3-14.8,13.1-21.4c8.8-6.6,19.7-20.5,19.7-20.5l52.8-39.6c0,0,6.2-4.7,8.9-3.4"/>
<path class="st18" d="M757.9,1269.4l34.2,49.5c0,0,9,11,15.8,16.1s33.2,25.8,45.1,39.6s26.7,34.8,36.1,43
	c9.3,8.2,13.2,10.6,13.2,10.6"/>
<path class="st18" d="M654.1,1596.4l53.5,98.1c0,0,2.5,5,4,19.8c1.5,14.9,16.7,44.6,16.7,44.6s26.9,49.1,26.4,55s-0.5,5.9-0.5,5.9"
	/>
<path class="st3" d="M719.9,1819.9l40.4-0.8c0,0,11.3-2.8,17.1-2.8c5.8,0,115,0,115,0l11.3,0"/>
<path class="st21" d="M884.4,1731.1c0,0-5.7-11.5,7.9-13.9c13.6-2.4,31.7-5.7,45.1-6s68.6,0,68.6,0l138.8-1"/>
<path class="st18" d="M883.2,2103.8c0,0,8.8-17.3,23.2-21.8c14.4-4.5,17.5-2.7,30.2-17.7c12.7-14.9,20.2-20.8,20.2-20.8"/>
<path class="st18" d="M765.4,1926.7c0,0,16.7-7,24.8-13.6c8.2-6.6,69.9-10,84.8-10s119.4,0,119.4,0l15.6-3.1"/>
<line class="st18" x1="1011" y1="1924.6" x2="1011" y2="1815.6"/>
<polyline class="st18" points="988,1924.6 988,1889.4 976,1875.1 976,1846.6 "/>
<line class="st18" x1="1035" y1="1924.6" x2="1035" y2="1814.6"/>
<line class="st18" x1="1381.5" y1="1766.1" x2="1539.5" y2="1766.1"/>
<line class="st18" x1="1381.5" y1="1657.1" x2="1539.5" y2="1657.1"/>
<path class="st18" d="M692.6,1667.1c0,0,10.5-9.2,25.1-5.7s37.2,0.2,43.3-0.8s21.2-1.8,38-3.4c16.8-1.6,124.7-14.4,124.7-14.4
	s3-16.8,22.1-17.7c19.1-0.9,27.5-5,35-12.4c7.5-7.4,38.9-41.6,38.9-41.6l102.6-117.7c0,0,8.4-3.5,11.9-10.2
	c3.5-6.6,10.6-38.9,21.1-41"/>
<path class="st21" d="M954,1659.7c0,0,1.8-2.1,1.6-8.1c-0.2-6,1.4-65,1.4-65v-33.8l11.9-51.7c0,0,2.2-23,1.3-30.2
	c-0.9-7.2-5.2-24.5-13.2-27.2c-8.1-2.7-10.5-6.7-10.5-6.7s-6.4-6.5-17.2-7.2c-10.9-0.7-16.1-6.5-34.8,6.3"/>
<line class="st21" x1="1010.5" y1="1493.1" x2="970.5" y2="1493.1"/>
<path class="st3" d="M978.1,1455.6c0,0,4-28.2,11.8-30.5c7.9-2.4,25.3-2.5,25.3-17.9c0-15.5,0-15.5,0-15.5"/>
<path class="st18" d="M923.9,1642.8l44.7,1.8c0,0,9.5,0.6,19,10.4c0,0,2.4,4.2,19.3,3.6s268.3,0.1,268.3,0.1"/>
<path class="st18" d="M1275.1,1627.3c0,0,6.3-1.4,17.9,2.5c11.6,4,21.4,1.7,21.4,1.7s5.1-3.3,13.7-1.9c8.6,1.4,23.2,9,33.1,6.7
	c9.9-2.3,14.7-7,20.6-6.2"/>
<path class="st18" d="M1218.5,1591.1h20.5c0,0,2.7-2.4,12.2,6c9.6,8.5,18.3,9,30.7,9s120.1,0,120.1,0h99.6l438.3-0.5
	c0,0,7.9-1.6,11.6,5.2c3.7,6.8,14.9,12.5,31.3,17c16.4,4.5,88.2,13.6,88.2,13.6l183,22.6c0,0,38.9,9.3,51.6,11.3s95,11.6,95,11.6
	l48.5,12.7l29.6-1.1l144.3,88.1l65.7,40.7l63.1,46.5l254.7,163.8"/>
<path class="st18" d="M3115.1,1543c-0.7,7.9-4,11.3-4,11.3s-118.2,140.3-123.3,147.8s-5.9,22-5.9,22l1.6,203.2l-6.7,13l3.3,163.5"/>
<path class="st18" d="M970.4,1117.7l7.3,11.6l48.1-35c0,0,4.9-4.5,17-5.8c12.1-1.3,53.9-20.3,58.8-23.6c4.9-3.3,92.5-53.3,92.5-53.3
	s7.2-7.2,24.2-4.4c17,2.7,46.7,11.9,65.3,11.9s355.3,0,355.3,0l84.8,44.8l113.4,61.7l28.8,19.6c0,0,11.1,9.3,24.5,12.9
	c13.4,3.6,47.4,11.9,47.4,11.9h37.6l11,11.3l68.3,1.7l50.6,24.6l68.5,8.8l315.5,128.1c0,0,9.5,2.6,20.6-6.5
	c11.1-9.1,26.1-28.1,41.2-28.7c15-0.7,16.7-1,45.1,13.4c28.4,14.4,91.5,45.1,91.5,45.1l17.6,11.4l23.3,22.5l98.2,64l51.9,35
	l183.6,50.3c0,0,6.9,2.6,28.4-3.3c21.6-5.9,21.6-5.9,21.6-5.9"/>
<line class="st18" x1="1592.5" y1="1766.1" x2="1821.5" y2="1766.1"/>
<polyline class="st18" points="1672.5,1723.1 1754.1,1723.1 1768.3,1727.1 1982.5,1727.1 "/>
<polyline class="st18" points="1592.5,1657.1 1808,1657.1 1808,1200.9 1820,1159.1 1857.8,1110.6 1874.7,1090.8 1889.1,1060.6 
	1908.7,1032 1910.8,970.9 1914.8,945.2 "/>
<path class="st18" d="M748.6,1192.5l94.9-51.1l18.5-12.1l52-35.1l4.9-7.4l10.9-6.7h52.9l7.8,0.3l23.4,22.5c0,0,6.4,6.8,17,7.7
	c10.6,0.9,46.8,3.2,46.8,3.2l67.1,5.1l26,5.1h447.3l189.6,101.7"/>
<path class="st18" d="M1185,1123.9l104.4,12.7l58.8,10.9l85.6,22.9c0,0,7.9,6,28.7,5.9"/>
<path class="st18" d="M1212.4,1390.9l3.9-22.9c0,0-7.6-13.1-13.9-18.3c-6.3-5.2-14.2-14.7-12.3-17.2s6.3-3.8,6.8-12.3
	s2.2-13.4,8.8-18.9s9-7.4,15.3-15.3s13.1-13.7,23.8-11.5c10.7,2.2,32.3,7.4,41.8,3.3c9.6-4.1,22.4-10.5,27.3-18.1
	s9.6-12.7,23.5-12.7s34.8,0,34.8,0l6.4,6.8"/>
<path class="st18" d="M1754.7,1360l-482.1,0.7l-13.3-31.3c0,0-17.5-6.8-17.5-12.6s0.5-24.7,5.4-29.6c4.9-4.9,6.7-8.5,6.6-10.8"/>
<path class="st18" d="M1201.5,1177.1h38.8l11.7,9h6.4l8.1-9h111c0,0,14.9-4.9,14.4-21.1c-0.5-16.2-1.2-63-1.2-63l5.3-11.1v-10.3"/>
<path class="st18" d="M1315.3,1257.8c0,0-9.4-4.8-10.5-13.4s-5.3-16-17.1-21.9c-11.8-5.9-26.7-2.4-30.3-15.6
	c-3.5-13.2-2.6-20.9-2.6-20.9"/>
<path class="st18" d="M1285,1220.9c0,0-0.3-6.6-1.2-10.8c-0.9-4.2,6.8-9.3,6.8-9.3s6.8-4.6,6.8-20.3s-0.9-48.3-0.9-48.3l-0.5-72.2
	l9.4-19.1l15.7-38.5l11.5-35.1l6.8-13.3"/>
<line class="st18" x1="1018" y1="1711.1" x2="1023" y2="1567.5"/>
<line class="st18" x1="688" y1="1551.2" x2="744.1" y2="1518.2"/>
<path class="st18" d="M691.6,1448.8c0,0,7.4-1.4,8-9.9s3.4-23.7,19.1-33c15.7-9.3,72.1-43.2,72.1-43.2"/>
<line class="st18" x1="760.6" y1="1444.5" x2="730" y2="1399.2"/>
<path class="st18" d="M441.4,1164.5l31.1-29.9c0,0,5.4-5.4,7.7-10.8c2.4-5.4,17.9-18.2,33.7-22.6c15.9-4.4,33.4-14.8,33.4-14.8
	l40.3-10.1l41-7.9l52.9-38.6L825.7,928c0,0,18.1-13.7,20.5-24c2.4-10.4,4.7-16.8,12.5-21.8c7.8-5.1,7.4-10.8,17.2-11.8
	s61.7,0,61.7,0s6.1,2.7,14.5,3c8.4,0.3,126.8-0.7,126.8-0.7l100.5,14.2l156.8,3.7l32.7,11.8l34.1,5l38.4,17.8h198.7l21.8,3.1
	l94.1,51.1l12.1,4.3l35.8,25.5"/>
<polyline class="st18" points="1663.2,1232 1669.8,1213.6 1732.2,1099.6 1758.5,1053.8 1880.9,894.5 1895.1,885.1 1900.8,875.3 
	1930.1,804.9 "/>
<polyline class="st18" points="1688.4,1161.6 1758.9,1025 1855.2,900.3 1860.9,891.4 1871.9,879.1 1886.1,864.7 "/>
<polyline class="st18" points="1733,1099.6 1733,1088.3 1764.6,1037.7 1766.6,1028.7 1862.3,906.2 "/>
<polyline class="st18" points="1648.4,2105.3 1645.8,2060.8 1649,2032.2 1649,1180.2 1732.9,1017.2 1836.4,885.5 1841.5,878.8 
	1859.1,869.8 1864.5,866.3 "/>
<polyline class="st18" points="1698,1106.4 1743.8,1015.8 1830.4,905.1 1841.2,903.9 1862.1,876.1 "/>
<line class="st18" x1="1640.7" y1="1136" x2="1640.3" y2="857.5"/>
<polyline class="st18" points="1696.2,776.6 1640.3,885.2 1493.9,887.1 1487.5,883.1 1433.5,883.1 1417.9,874.5 "/>
<polyline class="st18" points="1592.5,870.1 1640.2,870.1 1744.9,930.4 1783.8,945.2 1840.2,986.1 1916.5,1053.3 2029.2,1056.7 "/>
<line class="st18" x1="696.7" y1="1051.5" x2="639.2" y2="970.8"/>
<polyline class="st18" points="561.2,1004.3 713.1,890.9 736.4,886.4 754.4,871.2 744.5,853.9 731.6,850.1 "/>
<polyline class="st18" points="581.6,1077.9 584.6,1090.3 609.8,1103.7 636.2,1141.2 "/>
<polyline class="st18" points="659.3,1164.5 680.2,1155.8 748.6,1113.2 795.7,1091.6 813.9,1077.9 "/>
<polyline class="st18" points="962.5,1345.1 932.3,1345.1 843.5,1277.9 831.5,1253 814.5,1228.8 "/>
<path class="st18" d="M961.7,1341.5l-22.8-21.2l-74.5-50.9c0,0-3.4-1.8-13.4-18.4c-9.9-16.6-98.1-149.1-98.1-149.1s1-8-2.3-12.6
	c-3.3-4.6-24.4-33.8-24.4-33.8s-0.6-8.1-6.5-17.3c-5.9-9.2-76.8-108-76.8-108L625.7,908"/>
<line class="st18" x1="812.2" y1="1225.7" x2="716.3" y2="1077.9"/>
<line class="st18" x1="940.6" y1="1433" x2="924.9" y2="1410.8"/>
<line class="st18" x1="959.8" y1="1426.5" x2="960.7" y2="1383.8"/>
<line class="st18" x1="945.5" y1="1327.1" x2="961.5" y2="1327.1"/>
<polyline class="st18" points="973.1,1279.1 889.9,1173.6 782.3,1002.8 732.5,929.8 "/>
<path class="st18" d="M918.4,1172.8l-49.9-77.1c0,0-5.4-11.8-3.4-21.2s7.7-13.4,11.1-24c3.4-10.6,8.1-16,8.1-16s3-1.7,2.7-9.1
	c-0.3-7.4,11.1-10.3,11.1-10.3s17.1,2.9,15.1-6.2s-15.8-20.1-15.8-20.1l-29.8-46.2"/>
<path class="st18" d="M830.3,969L803,933.5c0,0,2-6-1.4-9.4c-3.4-3.4-7.1-5-7.9-11.4c-0.8-6.4-3.8-18.5-7.2-23.8
	c-3.4-5.4-7.1-9.8-7.1-19s1.7-8.5-6.4-22c-8.1-13.4-33.6-62.1-33.6-62.1l1.7-23.5c0,0-5-19.1-11.8-30.6
	c-6.7-11.4-12.4-16.2-12.4-16.2"/>
<path class="st18" d="M868.5,1095.7l-7.9,3.7c0,0-4.8-13.5-14.1-14.4c-9.3-1-23.4,1.6-26.3,3.5c-2.9,1.9-11.8,2.2-16.8-6.1
	c-5-8.3-56.7-85.1-56.7-85.1L717,954.6L696.7,928l-16.9-24l-16.7-29l-7.1-9.6l1.8-23"/>
<line class="st18" x1="638.5" y1="842.1" x2="681.5" y2="842.1"/>
<path class="st18" d="M655,881.6v-8.1c0,0,22.7-2.5,23.6-8.6c1-6.1,0.9-31.8,6-34c5.1-2.2,5.1-2.2,5.1-2.2s4.2-8.3,4.5-15.7
	s-1.3-19.6,4.2-24.4c5.5-4.8,11.2-9,5.5-20.6s-6.1-13.2-6.1-18.9s-1.2-10.1-4.1-14.3"/>
<polyline class="st18" points="642.7,885.7 599.7,825.2 593.6,755 "/>
<path class="st18" d="M549.5,800.1h26.9c0,0,7.5-6.4,14-6.4c6.5,0.1,13.8-12.1,27.7,0.1s14.3,5.6,20.4,19.8s1.2,13.3,0.6,20.8
	c-0.6,7.5-2.5,20.7,3.5,28.8c6.1,8.1,12.2,10.2,12.2,10.2"/>
<path class="st18" d="M723.3,703.3c0,0,6.7-3.6-4.2-24.2c-10.8-20.6-21.7-37.7-22.2-48.9c-0.5-11.2-1.6-1.5-9.2-15.6
	c-7.6-14.1,4.9-9.7-4.9-21.1c-9.7-11.4-24.9-15.7-25.5-28.2c-0.5-12.5,6.5-14.1,0-23.3s-9.7-11.4-6.5-17.3s8.7-9.2,3.8-17.9
	c-4.9-8.7-11.9-16.2-9.2-27.6c2.7-11.4,8.1-21.7,8.1-36.8s-7-19-2.7-30.9s-6-25.5,4.3-30.3c10.3-4.9,16.8,4.3,17.3-7
	c0.5-11.4,5.4-6,5.4-16.8s-23.3-13.5-23.3-13.5s-12.5-1.6-12.5-10.8c0-9.2-6.5-17.9-12.5-12.5c-6,5.4-9.7,6.9-13-1.7
	c-3.2-8.6,1.6-10.2,5.4-20.5s2.7-15.2-2.2-16.8s-13-15.4-0.5-18.5"/>
<polyline class="st18" points="801,874.5 815.8,894.7 834.3,920.1 "/>
<line class="st18" x1="848.9" y1="867.4" x2="815.8" y2="894.7"/>
<line class="st18" x1="819.6" y1="860.7" x2="880.3" y2="933.8"/>
<polyline class="st18" points="894.3,923.9 877.6,894 860.9,880.3 835.2,848.1 "/>
<path class="st3" d="M933.4,1079.5l10.8-31.4c0,0,1-7.7-3.4-16.8c-4.4-9-4.3-14.1-1.9-18.3c2.4-4.1,6.8-7.8,3.1-18.8
	c-3.7-11-0.5-25.3-0.5-25.3v-55.3l-2.1-6.8"/>
<polyline class="st18" points="938.3,907.9 940,865.2 940,817.9 913.4,785.4 "/>
<path class="st18" d="M926.2,818.1c0,0-8.4-16.8-19.3-26.1c-11-9.3-7.6-14.9-18.3-20.5c-10.7-5.6-28.1-20-33.2-31.5
	c-5.1-11.5-8.7-18.2-8.7-18.2"/>
<polyline class="st18" points="1350.6,1246.9 1352.9,1220.9 1340,1199.6 1340,1155.6 "/>
<path class="st18" d="M1362.3,1151.3c0,0-2.5,6.3-2.1,25.7s1.9,32.6-10.4,39.8"/>
<polyline class="st18" points="1383.1,1249.7 1377.3,1244.2 1377.5,1177 1374.9,1166.1 "/>
<polyline class="st18" points="1181,1123.9 1224.1,994.9 1233.9,985.2 1264.6,892 "/>
<polyline class="st18" points="1232,795.6 1232,801.8 1239.2,810.4 1238.1,819.6 1230,828.2 1230,851.4 1212.2,899.3 1145.4,1118.4 
	"/>
<path class="st18" d="M995.5,769.1h84.3l84.3,13.9l48.6,8.4l51.8,11.4l160.6,2.3h132.2h73.8l38.2,15.5l3.9,5.5l20.6,10.7l7.3,9
	l7,1.5l88.6,44.6l10.9,21.9l67.1,52.1l15.5,7.3l20,15c0,0,0.5,1.6,9,3c8.5,1.4,20.4-0.7,20.4-0.7l22.3,16l27.6-3.8l23.4-8.7h36.3
	l134.4,72.7l299.6-2.2"/>
<path class="st18" d="M2035.3,1503.8l-6.2-344.1l3.1-57.8c0,0,130.1-243.1,134.3-254.6s7.6-18.6,12.4-28.3
	c4.8-9.7,15.2-65.9,9.3-78.2"/>
<path class="st18" d="M2260.7,679c0,0-7.2,3.7-14.4,4.3c-7.1,0.6-13.4-4.6-25.2,12.2c-11.8,16.8-30.5,37.4-31.1,54"/>
<path class="st18" d="M2509.1,458.5l-36.5,3c0,0-8.1,1.7-15.1-2.3h-99.1l-18.4,25.4l-9.7,0.7c0,0-4.2-4.2-11.2,0s-18,0-18,0l-4,7.6
	l-16.3,5.7c0,0-14.2-2.8-17.5-16.1c0,0-1.3-5.9,1.7-12.9c2.9-7,28-56.7,28-56.7l3.2-42.1l-4.4-6.9c0,0-2.3-4.6,0-15.2
	c2.3-10.6,8.7-28.7,5.5-36.6s-5.7-11.8-5.9-16.3c-0.2-4.6-0.4-8.9-9.7-14c-9.3-5.1-10.4-9.9-10.4-11"/>
<path class="st18" d="M2269.5,270.6c0,0-6.2,5.8-15,7.3c-8.7,1.5-23.1,15.9-23.1,15.9s-11,9.1-22.2,3.8s-18-9.5-18-9.5
	s-6.6-7.4-14.6-5.3c-8,2.1-16.3,1.9-21.1-0.8c-4.7-2.7-24.3,3.2-35.7,2.8c-11.4-0.4-52.2,1.7-52.2,1.7l-29-6.1c0,0-5.3-0.8-8.7-4.7
	c-3.4-4-7-5.9-12.5-8.7c-5.5-2.8-17.7-10-22.6-15.2c-4.8-5.2-13.9-16.6-13.9-16.6s0.4-1.2-3.8-1.2s-166.1,0-166.1,0l-8.8-4h-86.6"/>
<path class="st18" d="M1682.3,272.7l30.9-6.6h24.1c0,0,2.1-1.3,4.2-3.2c2.1-1.9,2.1-1.9,2.1-1.9"/>
<path class="st18" d="M1608,87.9c0,0,46.3,34.7,53.7,45.2s33.6,57.5,44.6,78.6s37.2,85.2,37.2,85.2s2.1,3.8,6.6,4
	c4.6,0.2,9.7,1.3,13.3,9.3s17.3,40.4,17.3,40.4l21.4,31.3l23.3,26l29.8,33.8l30.4,38.3l1.5,13.7l31.1,45.9l15,32.1l55.4,76.7
	l7.8,25.6l-5.7,37.8l21.8,48.2l9.3,20.1"/>
<polyline class="st18" points="2059.3,858 2058,797.9 2058,745.4 2022.2,698.4 1996.8,673.9 "/>
<polyline class="st18" points="2016.4,768.1 2057.5,745.4 2069.8,699.2 2075.8,670.5 2084.7,653.4 2083.4,641.5 "/>
<path class="st18" d="M1991.6,713.6l37.4-31.3l14.3-14.6c0,0,27.1-15,34.7-21.6s23-31.1,23-31.1l19-27.7"/>
<path class="st18" d="M2084.6,849.2c0,0-2.3-6-2.7-47s-0.9-97.4-0.9-97.4s0.8-3-1.1-7.5c-1.9-4.6-1.7-9.7,3.6-14
	c5.3-4.4,23.2-14.2,27.3-21.1c4.2-6.8,26.2-42.5,26.2-42.5s6.6-9.9,4.6-15.9s-1.7-12.9,0.4-19c2.1-6.1,5.1-14.9,5.1-18"/>
<path class="st18" d="M2131.6,572.8c0,0,3.6-11.6,2.8-16.7c-0.8-5.1-1.7-15.2,2.5-16.7c4.2-1.5,47.3-27.9,47.3-27.9l35.3-20.9
	c0,0,2.8-2.1,5.9-5.9c3-3.8,24.9-27.3,24.9-27.3s4.2-4.6,3.4-13.1s0-26.9-9.9-42.3c-9.9-15.4-12.3-27.9-12.3-27.9l-9.7-24.9
	c0,0-12.9-17.1-5.5-29.2c7.4-12.1,8.9-10.4,8.9-14.8s4.7-14.6,4.7-14.6l0.8-11.2c0,0,2.1-4.6,4-6.6c1.9-2.1,4.2-13.5,4.2-13.5"/>
<polyline class="st18" points="1111.6,1071.5 1626.8,1069.3 1845.6,1188.5 "/>
<line class="st18" x1="1640.3" y1="1056.7" x2="1670.1" y2="1004.6"/>
<path class="st18" d="M1080.1,1043.6l60.4-41.1c0,0,19.5-13,47.2-17c27.6-4,116.3-20.1,116.3-20.1s17.2-2.1,39.2,6.4
	s20.3,19.2,77.3,19.2s107.1,0,107.1,0l45.6-7h50.2c0,0,3.6-3,28.8,10.4c25.1,13.4,47.7,25.7,47.7,25.7"/>
<line class="st18" x1="1640.5" y1="976.8" x2="1744.9" y2="780"/>
<polyline class="st21" points="1746.6,776.6 1786,700.5 1789.5,655.6 "/>
<path class="st18" d="M1790.4,567c0,0-4.2,4.6-9,5c-4.8,0.4-1,6.3,1.7,11.1c2.7,4.8,0.6,7.3,0,7.7c-0.6,0.4-5.4,7.1-7.1,12.4
	c-1.7,5.2-4.6,11.7-7.9,15.1c-3.3,3.4-3.9,6.9-3.6,10.9c0.2,4-2.5,4.2-8.4,4.4c-5.9,0.2-8.2,3.1-8.2,3.1s-15.9,22.2-18.9,27.9
	s-5.2,9.4-6.3,14.2c-1,4.8-5,9-10.1,16.8c-5,7.7-13.6,17.4-13.6,17.4l-39.4,27.4"/>
<path class="st18" d="M1796.4,632.6c0,0-5.7-7.7-6.1-22.8c-0.4-15.1,0-50.7,0-50.7l-0.2-17.8c0,0,3.1-5.7-14.7-15.5
	c-17.8-9.8-27-8.8-27-8.8s-13.2-0.2-19.5-4.6c-6.3-4.4-11.9-5-11.9-5"/>
<path class="st18" d="M1477.8,611.7l163.8-6.5l33.7,1c0,0,6.9,1.3,9.6-2.1c2.7-3.4,1.3-5.7,5.9-9.8s14.9-9,14.9-18.9
	c0-9.8-6.7-20.9-2.5-29.1c4.2-8.2,11.5-29.7,11.7-33.5c0.2-3.8,2.5-6.5,8.4-13.4s25.8-17.2,28.9-22s7.7-10.9,17.6-22
	c9.8-11.1,39.2-43.4,39.2-43.4s9.8-5.9,9.4-31.8c-0.4-26,0-59.5,0-59.5l-1.3-90.1L1816.7,97"/>
<path class="st18" d="M1756.1,302c0,0,0.9,5.1,2.2-15c1.3-20.1,1-66.2,1-66.2l0-57.6l2.1-5.9c0,0,2.1-9.6,0-22.4
	c-2.1-12.8-7.1-18-2.2-22.4"/>
<path class="st3" d="M1681.4,114.8c0,0,16.5,19.7,60.5,20.1s77.7,2.5,77.7,2.5s9.2,3.4,17.2,8.6c8,5.2,30.2,1.3,33.3-1.3
	s31.8-16.3,31.8-16.3s6.3,20.1,23.3,20.9"/>
<path class="st3" d="M1823,405.1c0,0,8.2-41.9,8.8-50.8c0.6-8.9,8.2-61.9,8.2-61.9l22.8-47.1l12.1-42.5l14.2-28.5l13-23.5
	c0,0,7.1-15.3,14.7-18.7c7.5-3.5,11.7-7.6,11.9-12.5"/>
<path class="st3" d="M1971.6,418.5c0,0-8.9-8.1-12.7-29.9s-10.4-66.6-10.4-66.6v-50.2c0,0-4.3-17.9-6.1-24
	c-1.9-6.1-8.5-36.2-8.5-36.2l-9.7-40.8l4.6-38.6c0,0,16.1-12,6.7-17.3"/>
<path class="st3" d="M1763.5,520.2c0,0,5.6-13.9-6.8-23.8c-12.4-10-38.3-31.7-47.1-51.7c-8.9-19.9-8.1-58.3-8.1-58.3
	s-0.7-31.4-12.9-37.7c-12.2-6.3-32.9-7.8-35.4-25.8c-2.6-18.1,1.1-28.8-7.8-44.3c-8.9-15.5-16.2-24-13.3-34.7
	c3-10.7,8.1-14.2,12.2-14.1c4.1,0.1,7.8-1.4,7-9.1c-0.7-7.8,4.1-14.4,0.4-22.1c-3.7-7.8-9.8-18-9.8-18"/>
<path class="st3" d="M1582.5,166.3c0,0-4.3-6.2-13.1-16.9c-8.9-10.7-32.5-29.7-32.5-29.7"/>
<path class="st3" d="M1383.3,180.5c0,0,1.8-14.9,19.6-18.2c17.7-3.3,25.8,0.8,33.6-5.9s8.1-4.4,16.2-9.6c8.1-5.2,11.1-4.1,11.8-9.2
	s-7.4-7.9,3-11.7s25.8,1.7,21.4-11"/>
<path class="st3" d="M1257,359.4c0,0,10.3-5.9,13.7-16.2c3.3-10.3,5.5-14.4,10.7-20.7s12.6-21.4,11.4-32.5
	c-1.1-11.1-9.2-11.7-5.5-23.2c3.7-11.5,9.5-23.7,5.6-30.7s-40.3-101.5-40.3-101.5"/>
<path class="st3" d="M1161.1,293c0,0,17.3-15.5,11.1-26.6c-6.3-11.1-83.8-166.5-83.8-166.5"/>
<path class="st3" d="M1328.7,486.5c0,0-2.9,20.4-9.7,29.1c-6.7,8.7-6.1,24.5-6.1,24.5l-6.4,30.9v281.8l-10.7,47.9l-18.1,8.4"/>
<path class="st18" d="M1123.2,1042.6l0.8-12.5c0,0-6.8-7.6-7.1-14.7c-0.3-7.1,3.5-21,3.5-21l8-20.2l8.2-33.4c0,0-1.6-10.5,2.2-19.5
	c3.8-8.9,14.1-38.2,14.1-38.2l14.7-32.9c0,0,1.9-9.5,1.6-15.8c-0.3-6.3-0.1-75.8-0.1-75.8V656.1v-91.5"/>
<polyline class="st18" points="995,904.6 995,644.5 922.6,763.8 "/>
<path class="st18" d="M337.2,259.1c0,0-2,34.6,7.5,46.8c9.5,12.2,10.2,40,10.2,40s-1.4,14.2,10.2,7.5c11.5-6.8,14.9-10.9,19.7-4.7
	s5.4,8.4,17,6.6c11.5-1.8,20.3-16.8,29.8-7.3c9.5,9.5,21.7,8.8,21.1,16.3c-0.7,7.5-2.6,5.3,3.4,13.6c9.1,12.7,35.3,3.4,36.6-3.4
	c1.4-6.8-1.4-20.4,5.4-20.4c6.8,0,6.1-2.7,10.9,0.7c4.7,3.4,12.2,14.2,19,6.1c6.8-8.1,17-11.5,22.4-13.6c5.4-2,6.8-2.7,11.5,0.7
	s14.9,8.8,15.6,2c0.7-6.8,2-22.4,14.2-18.3s2,12.2,17.6,8.8c15.6-3.4,9.5-3.4,20.4,0.7s16.9,9.6,28.5,8.1
	c11.6-1.4,21.7-7.5,29.2-6.8s15.6,4.7,23.1,2.7c7.5-2,2-8.1,18.3-7.5c16.3,0.7,19-9.5,26.5-2c7.5,7.5,3.4,17,13.6,14.9
	c10.2-2,4.7-8.8,10.2-2c5.4,6.8,5.4,12.2,12.9,10.2c7.5-2,14.9,2.7,17,5.4c2,2.7,0,9.5,10.2,9.5c10.2,0,6.8-1.4,13.6,4.1
	c6.8,5.4,10.9,6.8,13.6-2.7s14.2-19.7,18.3-19.7c4.1,0,19-2,24.4,2.7c0,0,0.8,13.7,13.1,12.9c12.3-0.8,13.4,18.8,13.4,18.8
	s11.1,6.9,11.9,15.7c0.8,8.8,4.2,16.5-5.8,22.2c-10,5.8-22.2,15-16.1,23.4c6.1,8.4,10,15.3,5.8,29.5c-4.2,14.2-13.8,15-13.4,34.9
	s6.5,18.8,1.9,36.1c-4.6,17.3-11.9,19.9-6.9,33.8c5,13.8,1.9,41.5-8.1,44.7c-10,3.2-28,1.3-29.9,17.4c-1.9,16.1,9.2,28,5.4,43.7
	c-3.8,15.7-0.3,19.5-0.3,19.5"/>
<path class="st18" d="M439.1,257.9c0,0,30.5,14.9,26.5,25.8s-16.3,8.1-16.3,15.6c0,7.5,1.4,8.8-6.8,9.5c-8.1,0.7-12.2-6.1-21.7,0
	c-9.5,6.1-11.5,14.9-17,14.9s-16.3,0.2-8.1,7.2c8.1,7,14.9,1.1,22.4,0c7.5-1.1,20.4-4.3,19.7,3.4c-0.7,7.7,0.1,2.3,6.2,5
	c6.1,2.7,2.1,16.3-6.7,25.2c-8.8,8.8-9,15.5-0.2,19.6c8.8,4.1,16.4,4.4,18.3,14.9"/>
<path class="st18" d="M910.7,780c0,0,1.4-24.6-16.4-36.4c-17.8-11.9-51.5-24.8-66.1-26.6s-19.6-19.9-19.6-19.9s-16.1-24.1-23.4-29.9
	S764.9,657,760,644.5s13.8-13.3-1.9-30.2c-15.7-16.9-11.5-13-11.5-19.6s4.2-18.8-10-19.6s-12.7,5.4-21.5-13
	c-8.8-18.4-5-40.7-3.1-41.8c1.9-1.2,17.1-20.1,13.4-37.1c-3.8-17,1.6-41.2-9.9-52.3c-11.5-11.1-20.3-27.2-14.6-38.7
	c5.8-11.5,25.3-18.8,17.6-26.5c-7.7-7.7-8.2-20.4-8.2-20.4"/>
<path class="st18" d="M1116.8,1323.2c0,0,20.2-3.7,32,0c11.8,3.7,29.3,16.2,41.4,9.3"/>
<path class="st3" d="M1254.6,1532.5c0,0-16.3-36.2-26.2-39.8s-73-9.8-73-9.8l-41.2-5.4l-28.3,1c0,0-21.6,3.4-27.3,5.8
	s-43.5,0.9-57.7-10"/>
<path class="st3" d="M2009.5,1958.9l-16.6,2.1l-58.2,17l-55.6,1.5c0,0-9.7-1.6-9.7-23.1s2.3-303.5,2.3-303.5"/>
<line class="st3" x1="1862.5" y1="1605.6" x2="1862.5" y2="1652.6"/>
<polyline class="st3" points="1807.5,1652.6 1968.9,1652.6 2263.1,1689.1 "/>
<polyline class="st3" points="2181.7,1590.8 2171,1668.2 2173.7,1683.2 2158.6,1810.6 "/>
<line class="st3" x1="1913.9" y1="1763.1" x2="2027.7" y2="1824.2"/>
<path class="st3" d="M2017.6,1816.9l53.3,5.7c0,0,11.4-1.9,17.2-5.7s31.5,2.8,31.5,2.8l27-12.8l116.3,11.4"/>
<line class="st3" x1="1979.2" y1="1763.1" x2="2258.2" y2="1793.6"/>
<polyline class="st3" points="2101.5,1815.6 2101.5,1762.5 2133,1516.5 "/>
<line class="st3" x1="1969.6" y1="1700.7" x2="2262.9" y2="1740"/>
<polyline class="st3" points="1725.5,1550.6 1970.2,1550.6 1999.3,1555.8 "/>
<line class="st3" x1="1859.5" y1="1605.6" x2="1859.5" y2="1282.6"/>
<line class="st3" x1="1888.1" y1="1283.1" x2="1890.3" y2="1158.4"/>
<polyline class="st3" points="2001.5,1631.6 1995.5,1606 1978.7,1594.6 1969.6,1585.7 1968.9,1170.5 1971.2,1106.4 1968.9,1055 "/>
<path class="st18" d="M2197.4,2105.3l-7.1-102.2l69.4-204l3.2-53.6l7.3-30.2l-16-56.6l-5.5-34.5l-23.9-95.7l17.5-150.2l22.8-34.5
	l44.9-24l91.6-79.8c0,0-4.5-21.2-2.3-30.4c2.2-9.2,35.7-136.4,35.7-136.4s24-24.3,28.3-27.1c4.3-2.8,31.1-23.1,31.1-23.1
	s9.9-6.8,14.2-24.9c4.3-18.2,10.8-43.1,18.5-55.7c7.7-12.6,30.2-55.4,30.2-65.3c0-9.9-4.3-12.6-4.3-20.9s-1.5-96-1.5-96l-0.6-104.4
	l-1.2-154.5l-4.3-2.9l-22.5-63.6l-12-23.1l-1.5-173.6"/>
<path class="st18" d="M2402.9,311.8l494.2-0.9l18,9.2h30.8c0,0,27.1,0.4,28,15.5c0.9,15.1,4.3,57.6,4.3,57.6l22.5,135.8l21.2,124.1
	l8.3,16.9l-16,42.5l-0.3,64.5"/>
<path class="st18" d="M2311.2,1132.4l-1.5-66.4l4.3-9.3v-80.9c0,0-1.5-6.9-8-11.5s-9.9-18.2-7.5-22.5c2.5-4.3,13.2-11.4,15.2-14.8
	c2-3.4,6.9-19.1,7.2-32c0.3-12.9-0.6-20.6-3.4-24.3c-2.8-3.7,0-10.5-16.9-11.1c-16.9-0.6-22.8-4.6-21.6-13.5
	c1.2-8.9,4.9-18.4,8.6-23.1s16.9-24.3,16.9-24.3l26.5-27.7c0,0,9.9-10.5,18.8-9.1c8.9,1.4,16.6,4.2,16.6,4.2s6.5,1.8,10.5-0.3
	c4-2.2,25.9-18.2,40.3-19.7s596.9-33.6,596.9-33.6l61.6,30.5c0,0,24.6,7.7,40.9,5.2c16.3-2.5,52.6,18.2,52.6,18.2s6.8,12,10.5,16.6
	c3.7,4.6,65.9,59.7,65.9,59.7l57.9,36l35.1,27.1l55.7,40.9l201.9,168.4c0,0,11.1,9.5,17.5,28s22.8,32.9,30.5,40
	c7.7,7.1,14.8,17.7,31.1,16.4c16.3-1.3,29.6-7.2,45.9,8.8c16.3,16,70.2,41.6,89,37.2"/>
<path class="st18" d="M1640.3,885.2l76.2,42.7l5.8,8.7l20,8.5l6.6,14.1l20.9,10.6l7.2,3.4l40.2,31l44.8,50.2l42.3,41.4l9.7,12.4
	l24.7,7.1c0,0,16.8,6.7,30.1,6.9c13.3,0.2,36.9-7.9,55.8,3.5s70.1,38.7,70.1,38.7s6.3,6.5,34.2,7.2c27.8,0.6,147.1,0,147.1,0"/>
<polyline class="st18" points="1888.4,1062.8 1853,1027.8 1853,1021 1828.6,995.7 1819.1,989.8 1766.4,949.4 1759.2,945.1 
	1742.5,945.1 "/>
<line class="st18" x1="1739.5" y1="944" x2="1747.3" y2="931.4"/>
<line class="st18" x1="1817.2" y1="1004.4" x2="1911.7" y2="882.1"/>
<polyline class="st18" points="1801.3,941.9 1917.4,1030.1 1983,1027 2029.1,1043.3 2199.1,1134.1 2319.6,1134.1 2418.4,1161.3 "/>
<path class="st18" d="M2340.5,1201l18.4-74l10.8-39.9c0,0,15.1-20.9,15.3-26.9c0.2-6,0-50.9,0-50.9l0.1-45.3
	c0,0,10.4-23.3,19.6-27.6s31.7-8.7,46.5-18.3c14.9-9.6,34.1-31.9,34.1-31.9s14.5-35.3,41-35.3s215.1-1.4,215.1-1.4l280.2-2.6h227.2
	c0,0,50.8,2.6,57.5-14.7"/>
<path class="st18" d="M1095.7,825.5c0,0,4.1-2.1,30,2.4c25.9,4.6,70.4,6.6,84,5.8s128.4-1.8,128.4-1.8l7.7,7.6c0,0,27.1,3.7,49,3.7
	c21.9,0,115.9,0,115.9,0h129.4l151.7,79.4l31.2,19.4l51.6,39l11.4,4.6l23.6,18.7"/>
<polyline class="st18" points="1796.7,891.9 1810.7,896.9 1874.7,947.3 1879.8,954 1920,974 1939.6,990.6 "/>
<line class="st18" x1="1830.4" y1="905.1" x2="1857.4" y2="925.1"/>
<polyline class="st18" points="1791.1,855.7 1807,878.4 1828.1,895.8 "/>
<path class="st18" d="M1622.5,762l17.9,16l172.4,88.4l96.9,79l51.6,10.5l35.2,3.7l42.5,3.8l34.4,19.8h11.9l113.6,63h61.1
	c0,0,5.2,3,9.5,1.9c4.3-1.1,27.9-10.5,27.9-10.5l35.6-0.5"/>
<line class="st18" x1="2123.6" y1="1034.7" x2="2173.7" y2="945.2"/>
<path class="st18" d="M2128.9,920.2l56.4,31.4c0,0,6.9,4.2,14.3,0c7.4-4.2,13.7,1.9,13.7,1.9s11.9,5.5,9.1-5.6
	c-1-3.8-1.7-8.5-2.1-13.2c-0.8-8.9-0.3-17.6,2.5-20c4.2-3.7,9.5-10.6,9.5-10.6"/>
<path class="st18" d="M963.3,740.7l69.3,0.9c0,0,9,0.3,23.4,5.4c14.4,5.1,72.8,4.4,72.8,4.4l214-1.4c0,0,29.7,4.1,41.5,1.4
	s95.9-2.1,95.9-2.1l162.4-2.8L1703,780l45.9,17.5l62.4,19.6l14.9,2.4"/>
<path class="st18" d="M1791,855.8l-10.8-52.1l-4.2-34.3v-17.5l5.6-11.2c0,0,6-10.7,4.3-23.7s-1.7-13-1.7-13"/>
<polyline class="st18" points="1690.4,773 1713.1,729.4 1722.5,720 "/>
<line class="st18" x1="1725.9" y1="725" x2="1707.6" y2="758.8"/>
<polyline class="st18" points="1659.7,628.2 1636.1,603.6 1633,595.6 1586.9,561 "/>
<polyline class="st18" points="1377,804.6 1377,706.6 1381,700 1381,640.6 1381,533.6 "/>
<polyline class="st18" points="1367,696.6 1367,640.6 1367,617.3 1363,602.4 1363,547.4 1356,533.2 1356,518.6 "/>
<line class="st18" x1="1448.2" y1="696.7" x2="1446.1" y2="588.2"/>
<line class="st18" x1="1079" y1="649.6" x2="1079" y2="613.6"/>
<polyline class="st18" points="1404.5,615.1 1114.8,615.1 1079.5,627.9 "/>
<path class="st18" d="M1021,644.6v27l7.9,15.3c0,0,1.6,23.9,12.7,34.8c11.2,10.9,5,8.6,14.4,25.2c9.4,16.6,22.2,41.5,22.2,41.5
	l22.6,47.5l83.2,68l127.5,53.3c0,0,4.4,2.8,6.9,8"/>
<line class="st18" x1="1319.6" y1="951.3" x2="1350.4" y2="853.8"/>
<polyline class="st18" points="937.9,870.2 962,904.6 962,945.6 "/>
<path class="st18" d="M941.4,946c0,0,23.1-1,31.7,0c8.6,1,19.5,3.6,22,19.1c2.5,15.6-15.6,33.8,13.5,42.8
	c29.1,9,84.1,27.1,84.1,27.1"/>
<path class="st18" d="M882.9,354.3c0,0,6.5-16.3-5.4-19.3c-11.9-3-24.6,9.5-24.8,0s20.9-19.6,11.9-29.1s-31.7-10.7-25.7-29.7
	c5.9-19,48.4-23.2,22.4-38.7s-48.6-31.5-32.5-44c16.1-12.5,28.5-44.1,13.1-55.9s-44.3-26.8-37-47.6"/>
<path class="st18" d="M915.3,389.9c0,0,20.6,2.3,23.5,17.2c3,14.9,5.9,30.3,19.6,20.8c13.7-9.5,25.6-40.4,43.4-25.6
	c17.8,14.9,28.5,23.2,42.2,17.8c13.7-5.4,10.7-19,21.4-14.9c10.7,4.2,30.3-2.4,30.9-10.7c0.6-8.3-22.6-32.1-3.6-27.4
	s20.8,4.6,20.8-7.8c0-12.4,15.5-21.5,21.4-5.1s15.5,27.1,22.6,18.2c7.1-8.9,11.5-19.6,15.8-4.2c4.4,15.5-3.9,22.6,5,24.4
	c8.9,1.8,11.3,5.4,10.7,11.3c-0.6,5.9,9.5,15.5,14.3,16.1c4.8,0.6,7.7-2.4,14.3,4.8c6.5,7.1,22,2.4,24.4,1.2
	c2.4-1.2,2.6-7.2,10.5,4.7c7.9,11.9,9.7,25,16.3,17.3s11.6-7.7,8.8-13.7c-2.8-5.9-9.2-13.1,0.8-10.1c10,3,10.2,6.6,10.6-2.4
	c0.3-6.9-3.9-9.4,7.1-15"/>
<path class="st18" d="M1799,376.6V142.4c0,0,20.6-22.8-4.1-54.5"/>
<path class="st18" d="M1771.5,327.1h126.2c0,0,14.3,0.1,14.3-18.8s0-87,0-87s-1.7-19.9,18.9-23.6c20.6-3.7,47.1-15.4,56.2-23.2
	s25.2-10.4,31.1-14.3s30.5-12.3,25.3-24.7c-5.2-12.3,4.9-21.1,20.5-22.8"/>
<line class="st18" x1="1710.5" y1="219.1" x2="1967.5" y2="219.1"/>
<polyline class="st18" points="1728.5,259.1 1987,259.1 2005,258.8 "/>
<path class="st18" d="M1897.7,326.8c0,0,2,3-0.5,8.2c-2.5,5.2,20.1,49.4,20.1,49.4s3.4,13.6,26.1,10.4s35.7-4.2,46.1,0.5
	s24-5.7,24-5.7l14.5,8.4l130.9,29.6c0,0,20.4,6.2,36.9,9.5c16.6,3.3,28.2-2.1,42.1,12.5s36.9,23.4,36.9,23.4l26.1,12"/>
<path class="st18" d="M1961.1,434c0,0,65.3-31.7,70.6-42.3c5.3-10.6,15.9-20.4,19.2-39.6c3.3-19.2,16.8-65.4,16.8-65.4"/>
<path class="st3" d="M1918.3,539.6c0,0,6.2-54.4,12.5-69.5c6.3-15.1,9.8-26.1,9.8-26.1s-9.9-7.4-23.2-10s-36.2,24-36.2,24
	s-42.1,40.6-58.3,57.6c-16.2,17-32.7,25.7-32.7,25.7"/>
<path class="st18" d="M1925.3,557.8c0,0,13.7-16,31.2-16.6c17.5-0.5,37.7-5.7,44.9-12.8s29-21,24.2-30.2c-4.8-9.1-17.1-33-17.1-33
	s-7.1-6.4,1.2-11.1c8.3-4.8-4.8-15.5-4.8-15.5s-3.2-4.4,0-10.3c3.2-6,0-17.5,0-17.5"/>
<path class="st18" d="M2111.9,417l-6.9,21.7l6.9,6.4l-6.9,33.4c0,0-13.5-10.3-16.3-13.9c-2.8-3.6-4-5.6-7.5-4.8
	c-3.6,0.8-12.7-2-17.1-6.4c-4.4-4.4-10.7-6-24.2-9.1c-13.5-3.2-7.9-7.9-17.9-19.9c-10-11.9-15.7-5.9-15.7-5.9"/>
<path class="st18" d="M2136.9,539.4c0,0-29.6-47.6-30.8-54.3c-1.2-6.7-1.2-6.7-1.2-6.7"/>
<path class="st18" d="M2037.3,673.9l-19.1-13.2c0,0-5.4-8.9-5.4-12.7c0-3.8-13.9-28-19.1-29.4c-5.2-1.4-29.9-19.8-36.9-28.7
	c-7.1-8.9-25.5-37.7-25.5-37.7l-12.3-17.2"/>
<polyline class="st18" points="2023.4,687 2008.3,669.2 2010.2,641.5 "/>
<line class="st18" x1="2129" y1="632.6" x2="2101.1" y2="614.9"/>
<line class="st18" x1="2156.4" y1="528.3" x2="2173.4" y2="557.8"/>
<line class="st18" x1="2201" y1="553.6" x2="2201" y2="502.6"/>
<path class="st18" d="M2219.5,490.6c0,0,2.1,5.1,6.9,11.5c4.8,6.4,22.5,32.9,22.5,32.9"/>
<path class="st18" d="M2232.4,684.4c0,0-5.3-4.5-4.5-14.6c0.8-10,2.7-13.2-2.6-14c-5.4-0.8,0-11.2,0-11.2s5-1-4.6-11.9
	c-9.6-10.9-9.6-31.8-9.6-31.8s0.1-2.4,10.7-20.5c10.6-18.1,30.3-52.4,30.3-52.4s8.4-16.4,22.5-19.1c14-2.7,40.1-10.5,40.1-10.5
	s14-3.4,22.5-10.9l2.9-3.2"/>
<path class="st18" d="M2330.3,485.1c0,0,10,11.8,24.8,7.8c14.8-4,26.5-4,39.7-6c13.2-2,60.2-1.8,60.2-1.8"/>
<path class="st18" d="M2250.8,682.5c0,0-5.6-5.9,0-19.9c5.6-14,40.9-115.9,40.9-115.9l-42.9-11.7"/>
<path class="st18" d="M2214.8,621.9c0,0,7.1,0.6,10.6,4.6c3.4,4,14.7,4.5,15.9-4.6c1.2-9.1,2.2-30.3,12.5-33.1s30.9-11.6,21.8-26.1
	c-9.1-14.4-15.6-18.4-23.5-19.6c-7.9-1.2-34.5,3.6-34.5,3.6"/>
<path class="st18" d="M2258.5,641.5c0,0-14.5-10.2-19.1-15.2"/>
<path class="st18" d="M2286,675.6v60.7c0,0-14,10.9-14,19.7c0,8.8-0.1,58.6,4.1,66.4"/>
<path class="st18" d="M2281.4,819.5c0,0,1.9-3.3,7.1-9.7c5.2-6.4,6.8-9.2,6.8-14s50.5-57,59.8-59.8s26.5-12.6,30.9-9.1
	c4.4,3.5,2.4,5.9,14,5.5c11.6-0.4,59.4-5.5,59.4-5.5l46.1-18.9l75-36.1l72.6-37.9l66.6-33.1c0,0,16-0.8,14-16.5
	c-2-15.6,12.4-21.6,12.4-21.6s5.2,0.8,6.4-3.6c1.2-4.4,1.2-4.4,1.2-4.4"/>
<line class="st18" x1="2289" y1="2110.6" x2="2289" y2="2018.6"/>
<path class="st18" d="M2342,2105.6v-229.2c0,0-3-22.5-1.8-31.3c1.2-8.8,16.1-47.2,16.1-47.2s3.2-12.9-4.4-34.8
	c-7.6-21.9-10-25.1,1.2-36.7c11.2-11.6,7.6-18.5,7.6-18.5s1.6-12.4,4-22.4s14.3-42.9,9-52.9c-5.3-10-11.8-38.1-8.9-59
	c2.8-20.9,6.4-54.2,6.4-54.2l8.8-76.6l10.4-81.4c0,0,9.2-19.3,9.2-27.3c0-8-4-15.6,0-44.1c4-28.5,8.2-44.5,1.8-49.9"/>
<path class="st18" d="M2396,2110.6v-151.4c0,0,6.8-21.8,24.9-49.9c18.1-28.1,55.6-89.5,55.6-89.5l34.4-55l106.7-174.1
	c0,0,44.1-30.5,52.5-42.5c8.4-12,11.6-25.7,11.2-36.5c-0.4-10.8,10-28.5,10-28.5l42.1-85c0,0,6-6.8,22.5-11.2
	c16.4-4.4,17.2-15.6,17.2-15.6l32.9-37.7l30.5-57c0,0,10-11.5,11.2-30.6c1.2-19.1,0.4-26,0.4-26"/>
<path class="st18" d="M2779,1541.1c0,0,13-8.8,13.8-20.1c0.8-11.2,12-34.5,18.9-44.5c6.8-10,27.7-40.1,34.5-53.8
	s52.2-104.4,52.2-104.4"/>
<path class="st18" d="M2795.7,1345.5c0,0,14.3,7.9,22.7,18.3c8.4,10.4,43.8,26.7,43.8,26.7"/>
<line class="st18" x1="2555" y1="2113.6" x2="2555" y2="1886.6"/>
<line class="st18" x1="2606.5" y1="2105.5" x2="2606.4" y2="1800.1"/>
<polyline class="st18" points="2649.5,2104 2661,2081.6 2661,1810.6 "/>
<polyline class="st18" points="2447.8,2115.6 2450.2,2000 2441.3,1949.9 2576.2,1725.7 2579,1707.9 2605.9,1668.8 "/>
<polyline class="st18" points="2463.7,1946.2 2499.9,1892.2 2527.4,1852.7 2606.5,1728 2610.2,1707.9 2628.9,1678.2 "/>
<line class="st18" x1="2562.6" y1="1872.6" x2="2476.3" y2="1819.9"/>
<polyline class="st18" points="2359.1,1718 2385.3,1721.1 2525.2,1810.4 2548.2,1819.7 2582.6,1839.1 2659.9,1839.1 2688.7,1827 "/>
<path class="st18" d="M2342.2,1876.6l163.2,92.3c0,0,12.7,15,21.8,12.4s27.2-7.1,27.2-7.1h106.1"/>
<line class="st18" x1="2417.6" y1="1853.1" x2="2554.4" y2="1636.9"/>
<polyline class="st18" points="2386.2,1833.5 2399.9,1800.1 2516.3,1613.2 "/>
<path class="st18" d="M2374.4,1647.5l62.5-59l39.3-84.7l47.6-92.1c0,0,20-13.9,22.4-21.3s3.3-56.1,13.6-76.9
	c10.3-20.8,14.2-26.6,12.9-50s9.1-67.6,9.1-71.5s-1.3-10.3-14.3-20.4c-13-10.1-21.6-26.4-10.5-34.2c11.1-7.8,31.2-18.2,31.2-33.1
	c0-14.9-13-52.8-13-52.8s4.5-11.6,7.1-27.8c2.6-16.2-2.6-49.4,5.8-78.6c8.4-29.2,30.4-53.3,33.4-71.5s0-89.5,0-89.5l-0.2-133.8
	l-50.1-87.3l-21.8-28.1l-32-56.6c0,0-7.9-5-8.6-8.9c-0.7-3.9,1.5-26-6.4-29.9c-7.9-3.9-32.1-10.6-32.1-10.6"/>
<line class="st18" x1="2458" y1="543.6" x2="2458" y2="80.6"/>
<path class="st24" d="M2250.7,1636.9l-64.7-56.8c0,0-34.5-30.7-41.2-46.8s-11.4-27.5-10.1-37.6c1.3-10.1,3.6-30.9,1.9-46.8
	s-2.2-57.3-2.2-57.3"/>
<path class="st24" d="M2125.5,1390.5l-2.8-144.4c0,0,0.6-9.6-3.6-14.4c-4.2-4.9-13.6-28.2-15.6-32.8s-4.9-11.4-9.1-14.6
	s-6.2-22.9-6.2-22.9"/>
<line class="st24" x1="1969.5" y1="1244.1" x2="2123.5" y2="1244.1"/>
<line class="st24" x1="1969" y1="1251.5" x2="1983.7" y2="1244.3"/>
<polyline class="st24" points="1998.5,1309.1 2124.2,1309.1 2201.2,1317.1 2255.8,1357.7 "/>
<path class="st24" d="M2122.7,1246.1c0,0,30.5,18.1,52.3,25.3s199.5,80.7,199.5,80.7s6.5,8.3,15,16.6c8.5,8.4,34.8,6.1,34.8,6.1
	s19.2,6.2,54.2,20.1c35.1,14,58.4,20.5,65.3,20.1"/>
<line class="st24" x1="2086.9" y1="1577.3" x2="2242.2" y2="1598.6"/>
<polyline class="st24" points="2106.9,1777.1 2149.9,1836.5 2168.8,1842.6 2218.1,1886.5 2285.1,1908 "/>
<line class="st24" x1="2123.4" y1="1942" x2="2201.4" y2="1970.6"/>
<path class="st18" d="M2094.4,1184.6c0,0,7.7-10,15.5-10s23.3-39.1,23.3-39.1l57.2-113.5c0,0,1.3-8.9,15-8.9c13.7,0,230.7,0,230.7,0
	s20.7,1.2,30.4,10.9s11.3,11.7,11.3,11.7"/>
<line class="st18" x1="2313.5" y1="985.1" x2="2336.5" y2="985.1"/>
<path class="st18" d="M2275.2,1012.6l-1.3-61c0,0,4.6-11.2,6.1-11.5c1.5-0.3,3.3-3.2,4.1-15c0.8-11.8,0-24.1,0-24.1"/>
<path class="st18" d="M2220.5,935.1h11c0,0,4.8-10.5,8.6-4.1c3.8,6.4-2.8,12.2,5.1,15.8c7.9,3.6-3.3,8.4-2,15.1
	c1.3,6.6,1.8,50.7,1.8,50.7v56"/>
<path class="st18" d="M1870.4,851.4l20.4,17.5c0,0,15.5,13,25,13.3c9.5,0.2,27.7,6.4,27.7,6.4s39.5,14.1,56.8,24.6
	c17.2,10.5,23.8,9.7,23.8,9.7l104.9,56.4l68,35l2.1,146.7v11.7"/>
<line class="st18" x1="2194.8" y1="1132" x2="2172.2" y2="1171.7"/>
<line class="st18" x1="2218" y1="1171.6" x2="2218" y2="1134.6"/>
<polyline class="st18" points="2125.4,1153 2083.3,1130 2032.2,1101.9 "/>
<line class="st18" x1="2108" y1="1085.6" x2="2083.3" y2="1130"/>
<line class="st18" x1="2120.9" y1="1126.6" x2="2109.5" y2="1144.3"/>
</svg>
